<svg width="18" height="18" viewBox="0 0 18 18" fill="none" xmlns="http://www.w3.org/2000/svg">
<g clip-path="url(#clip0_308_548)">
<path d="M8.98542 0.502616L8.98551 0.502566C8.98863 0.500675 8.99063 0.499809 8.99667 0.500027C9.00516 0.500334 9.02077 0.503499 9.03915 0.514267C9.05763 0.525093 9.07057 0.538769 9.07743 0.549664C9.08058 0.554674 9.0819 0.558177 9.08241 0.559864C9.08286 0.561354 9.08287 0.561984 9.08287 0.562369V5.4127V6.56331L9.92403 5.77823L12.4055 3.46217L12.4055 3.46216C12.4167 3.4517 12.434 3.45307 12.4437 3.46403L12.4438 3.46408C13.3587 4.49832 14.0815 5.58424 14.5964 6.69006C16.0332 9.77547 15.7409 12.4763 14.5658 14.3923C13.384 16.3193 11.2834 17.5 8.99917 17.5C5.38185 17.5 2.43604 14.5488 2.43604 10.9196C2.43604 8.04258 3.74271 5.44994 5.71149 3.28922L5.3419 2.95247L5.71149 3.28922C7.33299 1.50963 8.93771 0.531465 8.98542 0.502616Z" fill="#DDDADA" stroke="#3D5875"/>
<path d="M8.33033 17C5.94255 17 4 15.2344 4 13.0642C4 9.55744 7.7551 7.48103 7.91493 7.39433C8.19511 7.24247 8.54591 7.24957 8.81837 7.41232C8.97525 7.50612 12.6606 9.74735 12.6606 13.0642C12.6606 15.2344 10.7181 17 8.33033 17Z" fill="#FEC356"/>
<path d="M14 13.354C14 10.2809 9.72518 8.2044 9.54327 8.11749C9.37867 8.03893 9.18947 7.9999 9 8V17C11.7591 16.991 14 15.359 14 13.354Z" fill="#FEB020" fill-opacity="0.5"/>
</g>
<defs>
<clipPath id="clip0_308_548">
<rect width="18" height="18" fill="white"/>
</clipPath>
</defs>
</svg>
