<svg width="18" height="18" viewBox="0 0 18 18" fill="none" xmlns="http://www.w3.org/2000/svg">
<g clip-path="url(#clip0_308_602)">
<path d="M12.7609 4.93189C12.0122 4.19248 11.0516 3.86999 9.90297 3.96987C7.50967 4.18113 6.06253 7.14592 5.48291 8.6337C5.52998 9.02464 5.5707 9.41659 5.60406 9.8088C5.67268 9.7735 5.72777 9.71229 5.75136 9.63231C5.76029 9.60208 6.32873 7.71784 7.42427 6.25081C7.76198 5.79856 8.28409 5.51773 8.84849 5.52089C9.2787 5.52332 9.75383 5.62148 10.1615 5.88079C12.5991 7.43093 13.9443 11.9011 13.9576 11.9459C13.9947 12.0712 14.1096 12.1553 14.2377 12.1553C14.248 12.1553 14.2584 12.1548 14.2688 12.1536C14.4091 12.1388 14.5187 12.0258 14.5292 11.8851C14.5442 11.6873 14.8719 7.01683 12.7609 4.93189Z" fill="#FFC850"/>
<path d="M5.44782 11.5711C5.29116 11.5711 5.16143 11.4469 5.15588 11.2891C5.15247 11.1913 5.07797 8.86602 5.60222 6.33446C6.31037 2.9145 7.79175 0.80073 9.88612 0.221426C11.5882 -0.249456 13.1614 0.0362232 14.316 1.02562C15.6799 2.19422 16.2741 4.18701 15.9891 6.63694C15.9731 6.77479 15.8624 6.88237 15.7243 6.89436C15.5843 6.90807 15.4585 6.81958 15.4188 6.68662C14.4736 3.51356 11.0048 1.37026 8.69211 1.688C8.49773 1.71472 8.31407 1.8018 8.1803 1.94535C5.54935 4.76758 5.73726 11.1914 5.74004 11.2686C5.74559 11.4298 5.61945 11.5654 5.45822 11.5708C5.45467 11.5711 5.45123 11.5711 5.44782 11.5711Z" fill="#FFC850"/>
<path d="M3.79062 0.524649C3.41413 1.78679 2.74532 4.85368 3.40229 9.23341L4.57119 14.7857L5.7401 11.8634C4.3194 7.60139 4.06501 2.38005 4.01959 0.552211C4.01625 0.418653 3.82884 0.39661 3.79062 0.524649Z" fill="#D4F582"/>
<path d="M7.18785 9.17859C5.16341 9.59245 4.86353 14.2012 4.86353 14.2012L6.03244 17.7079C6.03244 17.7079 6.84827 10.9941 7.71143 10.8406C8.55996 10.6897 12.1827 13.4883 13.7746 14.7591C13.883 14.8457 14.0255 14.7052 13.9398 14.596C12.5681 12.8488 9.13427 8.78069 7.18785 9.17859Z" fill="#AFD755"/>
<path d="M1.94156 4.0174C1.93042 6.17596 2.13963 11.8193 4.32723 17.6218C4.41297 17.8492 4.6333 17.9998 4.87633 17.9998H6.2038C6.41171 17.9998 6.55163 17.7897 6.4725 17.5974C4.21459 12.1109 2.69981 6.194 2.17173 3.98984C2.13952 3.8553 1.9423 3.87906 1.94156 4.0174Z" fill="#BEE86E"/>
<path d="M15.9111 6.80115C15.8099 3.76885 14.7505 1.23363 12.4979 0.68572C10.6728 0.241802 9.00341 1.09972 8.29688 1.84377C8.41261 1.76045 8.54926 1.70761 8.69217 1.68795C11.0048 1.37021 14.4737 3.51351 15.4189 6.68658C15.4585 6.81958 15.5844 6.90803 15.7244 6.89432C15.7985 6.88792 15.8632 6.85259 15.9111 6.80115Z" fill="#FFDC64"/>
<path d="M10.507 4.53938C9.22468 4.51371 8.35186 5.10557 7.62427 6.0274C7.95196 5.70945 8.38498 5.51841 8.84837 5.52101C9.27858 5.52344 9.75371 5.62159 10.1614 5.8809C12.5989 7.43105 13.9442 11.9012 13.9575 11.946C13.9946 12.0713 14.1094 12.1554 14.2376 12.1554C14.2478 12.1554 14.2583 12.1549 14.2687 12.1537C14.3673 12.1433 14.4486 12.0828 14.4932 11.9998C14.3607 5.26992 11.4202 4.55762 10.507 4.53938Z" fill="#FFDC64"/>
</g>
<defs>
<clipPath id="clip0_308_602">
<rect width="18" height="18" fill="white"/>
</clipPath>
</defs>
</svg>
