<svg width="60" height="60" viewBox="0 0 60 60" fill="none" xmlns="http://www.w3.org/2000/svg">
<rect opacity="0.2" width="60" height="60" rx="12" fill="url(#paint0_linear_430_734)"/>
<g clip-path="url(#clip0_430_734)">
<path d="M48.0992 15.8105C46.6441 13.4683 41.5168 12 29.1834 12C24.9915 12 20.7303 12.4894 16.7808 13.9926C15.499 14.517 12.2078 15.8804 12.1038 19.2015C12.0692 19.9006 12.4849 20.4949 12.6235 21.1941L13.1085 23.1168C13.1085 23.0469 13.1085 23.012 13.1085 22.942C15.6722 34.9328 31.1235 33.919 40.0271 30.5281C43.3529 29.2696 45.9166 27.4867 47.5102 24.2006C48.1338 22.9071 48.7228 21.1242 48.9306 19.6909C48.9999 19.2364 48.896 18.8519 48.9653 18.3974C48.896 17.4186 48.5495 16.5446 48.0992 15.8105Z" fill="#688EAD"/>
<path d="M15.8454 18.6072C16.3997 18.4674 16.9886 18.4674 17.5083 18.3275C18.2705 18.1178 18.8594 17.5584 19.483 17.104C20.557 16.3698 21.8042 15.8804 23.086 15.7406C24.4371 15.5658 25.8576 15.7406 27.2087 15.5308C28.5944 15.3211 29.9456 14.7268 31.366 14.7967C32.7171 14.8666 33.9643 15.4959 35.3154 15.6007C36.8398 15.7406 38.468 15.1812 39.9231 15.7755C40.616 16.0552 41.2049 16.5796 41.9325 16.7893C42.4175 16.9292 42.9371 16.9292 43.4222 16.9641C44.5308 17.104 45.5355 17.6633 46.5401 18.1877C47.3023 18.6072 48.0991 19.0616 48.4456 19.8657C48.8613 20.8795 48.3416 22.0681 47.5795 22.8721C46.2283 24.3404 44.2536 25.0046 42.3135 25.494C38.0523 26.5428 33.6179 26.7525 29.218 26.8574C25.8229 26.9623 22.3931 26.9973 19.0327 26.333C17.7855 26.0883 16.5036 25.7038 15.6029 24.8298C14.0439 23.2217 12.7967 19.4462 15.8454 18.6072Z" fill="#F4D09F"/>
<path d="M40.7547 17.5238C40.6854 17.7685 40.4429 17.9433 40.235 18.0831C39.8886 18.3278 39.4728 18.5376 39.0571 18.7123C38.8839 18.7823 38.7107 18.8522 38.5721 18.992C38.4335 19.1318 38.3989 19.3766 38.5374 19.4814C38.6067 19.5513 38.676 19.5514 38.7453 19.5863C39.265 19.6912 39.7153 19.3416 40.235 19.2717C40.6161 19.2018 40.9972 19.2717 41.3783 19.3066C41.7594 19.3066 42.1751 19.2717 42.4522 19.027C42.5562 18.9571 42.6255 18.8522 42.6255 18.7123C42.6255 18.5725 42.5562 18.4676 42.4176 18.4327C42.9026 18.6424 43.4569 18.7123 44.0112 18.6774C44.1498 18.6774 44.323 18.6075 44.3923 18.4676C44.427 18.3977 44.3923 18.3278 44.3923 18.2579C44.2884 17.8384 43.8034 17.6286 43.3876 17.5587C42.9719 17.4888 42.5215 17.4888 42.1751 17.2441C42.0019 17.1392 41.8979 16.9644 41.7247 16.8595C41.4129 16.6498 40.7547 16.51 40.4429 16.7547C40.6507 16.9295 40.8586 17.2091 40.7547 17.5238Z" fill="#F2C194"/>
<path d="M34.2415 20.1452C34.1029 20.4249 33.7911 20.5298 33.4793 20.6347C33.029 20.8095 32.6479 21.0192 32.3014 21.3338C32.2668 21.3688 32.2321 21.4038 32.1975 21.4737C32.0936 21.6834 32.3707 21.8582 32.6132 21.8233C32.8211 21.7883 33.029 21.6485 33.2368 21.6485C33.514 21.6485 33.7218 21.8233 33.9644 21.8932C34.1376 21.9281 34.3454 21.9281 34.5187 21.8932C35.3848 21.7883 36.2162 21.6834 37.0823 21.5785C37.3941 21.5436 37.7752 21.4737 37.9484 21.194C37.9831 21.1241 38.0177 21.0542 38.0177 20.9843C37.9831 20.8444 37.8445 20.7745 37.7406 20.7395C37.3595 20.6347 36.9438 20.5997 36.5627 20.6347C36.4934 20.2851 37.1863 20.2152 37.2209 19.8306C36.632 19.6908 36.0084 19.5859 35.4194 19.4461C34.7958 19.3062 34.1722 19.2014 33.5833 19.2713C33.8951 19.4111 34.484 19.6558 34.2415 20.1452Z" fill="#F2C194"/>
<path d="M38.2948 22.6276C38.8145 22.348 39.2302 21.8586 39.3341 21.2643C40.3042 21.2643 41.3781 21.2643 42.1403 20.635C42.3135 20.4952 42.4521 20.3204 42.6253 20.2155C42.8332 20.0757 43.1103 20.0407 43.3875 20.0057C44.115 19.9009 44.8079 19.796 45.5354 19.6562C45.6047 19.6562 45.7087 19.6212 45.7779 19.6562C45.9165 19.7261 45.9512 19.9358 45.9165 20.0757C45.7779 20.6 45.2583 20.9496 44.7386 21.0895C44.219 21.2293 43.6646 21.2643 43.145 21.4391C42.66 21.6138 42.2442 21.9634 41.8285 22.2431C41.2396 22.6276 40.616 22.9423 39.9231 23.187C38.5027 23.6764 36.9783 23.7114 35.454 23.7463C34.6572 23.7813 33.895 23.7813 33.1328 23.6414C33.895 23.0471 34.969 23.3268 35.8351 23.2569C36.6319 23.152 37.5673 23.0471 38.2948 22.6276Z" fill="#F2C194"/>
<path d="M24.4374 19.2012C24.6453 19.2361 24.8878 19.2361 25.0957 19.1662C25.3035 19.0963 25.5114 18.9215 25.5114 18.7118C25.5114 18.537 25.4421 18.3971 25.3035 18.2573C25.1649 18.1524 25.0264 18.0825 24.8532 18.0126C24.2296 17.8028 22.8091 17.5931 22.4973 18.3971C22.2202 19.2711 24.0217 19.1662 24.4374 19.2012Z" fill="#BF9777"/>
<path d="M23.1901 18.9562C24.032 18.9562 24.7145 18.2676 24.7145 17.4181C24.7145 16.5685 24.032 15.8799 23.1901 15.8799C22.3482 15.8799 21.6658 16.5685 21.6658 17.4181C21.6658 18.2676 22.3482 18.9562 23.1901 18.9562Z" fill="#600C4E"/>
<path d="M23.9869 15.915L24.0215 15.95C24.0215 15.95 24.0562 15.95 24.0908 15.95C24.1947 15.915 24.2987 15.8801 24.368 15.8451C24.368 15.915 24.3333 15.9849 24.3333 16.0549C24.4372 16.0549 24.5758 16.0549 24.6797 16.0549C24.6451 16.1248 24.5758 16.1947 24.5412 16.2646C24.6105 16.2646 24.7144 16.2646 24.7837 16.2646C24.8183 16.2646 24.853 16.2646 24.853 16.2996C24.853 16.2996 24.853 16.3345 24.8183 16.3345C24.7144 16.4394 24.6105 16.5443 24.5065 16.6142C24.4719 16.6492 24.4026 16.6841 24.3333 16.7191C24.264 16.7191 24.2294 16.6841 24.1601 16.6841C23.9869 16.6142 23.7097 16.4394 23.6404 16.2646C23.5711 16.0898 23.7444 15.8801 23.8483 15.7402C23.9522 15.8451 23.9522 15.8801 23.9869 15.915Z" fill="#600C4E"/>
<path opacity="0.33" d="M22.7051 16.2998C22.5319 16.4046 22.3933 16.5445 22.3586 16.7542C22.3586 16.7892 22.3586 16.8591 22.3586 16.8941C22.3586 16.964 22.4279 16.9989 22.4626 17.0339C22.4972 17.0689 22.5319 17.1038 22.5665 17.0689C22.6358 17.0689 22.6704 16.9989 22.7051 16.929C22.8437 16.7193 23.0862 16.5794 23.3287 16.6494C23.398 16.6494 23.4673 16.6843 23.5019 16.6144C23.5019 16.6144 23.5019 16.5794 23.5019 16.5445C23.5365 16.125 22.9822 16.1949 22.7051 16.2998Z" fill="white"/>
<path d="M20.5917 22.313C20.7996 22.348 21.0421 22.348 21.25 22.278C21.4578 22.2081 21.6657 22.0333 21.6657 21.8236C21.6657 21.6488 21.5964 21.509 21.4578 21.3691C21.3192 21.2642 21.1807 21.1943 21.0075 21.1244C20.3839 20.9147 18.9634 20.7049 18.6516 21.509C18.3745 22.3829 20.1413 22.278 20.5917 22.313Z" fill="#BF9777"/>
<path d="M20.8137 20.8896C21.0089 20.0632 20.5032 19.2336 19.6842 19.0367C18.8652 18.8398 18.0431 19.3501 17.848 20.1765C17.6528 21.0029 18.1585 21.8325 18.9775 22.0294C19.7965 22.2263 20.6186 21.716 20.8137 20.8896Z" fill="#600C4E"/>
<path d="M20.1065 19.0268L20.1411 19.0618C20.1411 19.0618 20.1758 19.0618 20.2104 19.0618C20.3144 19.0268 20.4183 18.9919 20.4876 18.9569C20.4876 19.0268 20.4529 19.0968 20.4529 19.1667C20.5569 19.1667 20.6954 19.1667 20.7994 19.1667C20.7647 19.2366 20.6954 19.3065 20.6608 19.3764C20.7301 19.3764 20.834 19.3764 20.9033 19.3764C20.938 19.3764 20.9726 19.3764 20.9726 19.4114C20.9726 19.4114 20.9726 19.4463 20.938 19.4463C20.834 19.5512 20.7301 19.6561 20.6262 19.726C20.5915 19.761 20.5222 19.7959 20.4529 19.8309C20.3836 19.8309 20.349 19.7959 20.2797 19.7959C20.1065 19.726 19.8293 19.5512 19.7601 19.3764C19.6908 19.2016 19.864 18.9919 19.9679 18.8521C20.0718 18.9569 20.1065 18.9919 20.1065 19.0268Z" fill="#600C4E"/>
<path opacity="0.33" d="M18.8594 19.4111C18.6862 19.516 18.5476 19.6558 18.5129 19.8656C18.5129 19.9005 18.5129 19.9704 18.5129 20.0054C18.5129 20.0753 18.5822 20.1103 18.6169 20.1452C18.6515 20.1802 18.6862 20.2151 18.7208 20.1802C18.7901 20.1802 18.8247 20.1103 18.8594 20.0404C18.998 19.8306 19.2405 19.6908 19.483 19.7607C19.5523 19.7607 19.6216 19.7956 19.6562 19.7257C19.6562 19.7257 19.6562 19.6908 19.6562 19.6558C19.6908 19.2363 19.1019 19.3062 18.8594 19.4111Z" fill="white"/>
<path d="M34.4147 23.0117C34.6226 23.0467 34.8651 23.0467 35.073 22.9768C35.2808 22.9069 35.4887 22.7321 35.4887 22.5223C35.4887 22.3475 35.4194 22.2077 35.2808 22.0678C35.1422 21.963 35.0037 21.8931 34.8305 21.8231C34.2069 21.6134 32.7864 21.4036 32.4746 22.2077C32.1975 23.0817 33.9643 22.9768 34.4147 23.0117Z" fill="#BF9777"/>
<path d="M33.641 22.6931C34.4417 22.4308 34.88 21.5631 34.6201 20.7552C34.3601 19.9472 33.5003 19.5049 32.6996 19.7672C31.8989 20.0295 31.4605 20.8972 31.7205 21.7051C31.9804 22.5131 32.8403 22.9555 33.641 22.6931Z" fill="#600C4E"/>
<path d="M33.9644 19.7256L33.9991 19.7605C33.9991 19.7605 34.0337 19.7605 34.0683 19.7605C34.1723 19.7256 34.2762 19.6906 34.3455 19.6557C34.3455 19.7256 34.3109 19.7955 34.3109 19.8654C34.4148 19.8654 34.5534 19.8654 34.6573 19.8654C34.6227 19.9353 34.5534 20.0052 34.5187 20.0752C34.588 20.0752 34.6919 20.0752 34.7612 20.0752C34.7959 20.0752 34.8305 20.0752 34.8305 20.1101C34.8305 20.1101 34.8305 20.1451 34.7959 20.1451C34.6919 20.25 34.588 20.3548 34.4841 20.4247C34.4494 20.4597 34.3801 20.4947 34.3109 20.5296C34.2416 20.5296 34.2069 20.4947 34.1376 20.4947C33.9644 20.4247 33.6873 20.25 33.618 20.0752C33.5487 19.9004 33.7219 19.6906 33.8258 19.5508C33.8951 19.6207 33.9298 19.6906 33.9644 19.7256Z" fill="#600C4E"/>
<path opacity="0.33" d="M32.6826 20.1107C32.5094 20.2156 32.3708 20.3554 32.3362 20.5652C32.3362 20.6001 32.3362 20.67 32.3362 20.705C32.3362 20.7749 32.4055 20.8099 32.4401 20.8448C32.4748 20.8798 32.5094 20.9148 32.544 20.8798C32.6133 20.8798 32.648 20.8099 32.6826 20.74C32.8212 20.5302 33.0637 20.3904 33.3062 20.4603C33.3755 20.4603 33.4448 20.4953 33.4794 20.4253C33.4794 20.4253 33.4794 20.3904 33.4794 20.3554C33.5141 19.9359 32.9251 19.9709 32.6826 20.1107Z" fill="white"/>
<path d="M37.8792 19.7959C38.0871 19.8309 38.3296 19.8309 38.5374 19.761C38.7453 19.691 38.9532 19.5162 38.9532 19.3065C38.9532 19.1317 38.8839 18.9919 38.7453 18.852C38.6067 18.7472 38.4681 18.6772 38.2949 18.6073C37.6713 18.3976 36.2509 18.1878 35.9391 18.9919C35.6273 19.8658 37.4288 19.761 37.8792 19.7959Z" fill="#BF9777"/>
<path d="M36.632 19.551C37.4739 19.551 38.1564 18.8623 38.1564 18.0128C38.1564 17.1633 37.4739 16.4746 36.632 16.4746C35.7901 16.4746 35.1077 17.1633 35.1077 18.0128C35.1077 18.8623 35.7901 19.551 36.632 19.551Z" fill="#600C4E"/>
<path d="M37.3943 16.5098L37.429 16.5447C37.429 16.5447 37.4636 16.5447 37.4983 16.5447C37.6022 16.5098 37.7061 16.4748 37.7754 16.4398C37.7754 16.5098 37.7408 16.5797 37.7408 16.6496C37.8447 16.6496 37.9833 16.6496 38.0872 16.6496C38.0526 16.7195 37.9833 16.7894 37.9486 16.8593C38.0179 16.8593 38.1219 16.8593 38.1912 16.8593C38.2258 16.8593 38.2604 16.8593 38.2604 16.8943C38.2604 16.8943 38.2604 16.9293 38.2258 16.9293C38.1219 17.0341 38.0179 17.139 37.914 17.2089C37.8794 17.2439 37.8101 17.2788 37.7408 17.3138C37.6715 17.3138 37.6368 17.2788 37.5676 17.2788C37.3943 17.2089 37.1172 17.0341 37.0479 16.8593C36.9786 16.6845 37.1518 16.4748 37.2558 16.335C37.3597 16.4398 37.3943 16.4748 37.3943 16.5098Z" fill="#600C4E"/>
<path opacity="0.33" d="M36.1123 16.8944C35.9391 16.9993 35.8005 17.1391 35.7659 17.3489C35.7659 17.3838 35.7659 17.4537 35.7659 17.4887C35.7659 17.5586 35.8352 17.5936 35.8698 17.6285C35.9044 17.6635 35.9391 17.6985 35.9737 17.6635C36.043 17.6635 36.0777 17.5936 36.1123 17.5237C36.2509 17.3139 36.4934 17.1741 36.7359 17.244C36.8052 17.244 36.8745 17.2789 36.9091 17.209C36.9091 17.209 36.9091 17.1741 36.9091 17.1391C36.9784 16.7196 36.3895 16.7546 36.1123 16.8944Z" fill="white"/>
<path d="M31.3315 16.7539C31.5393 16.7889 31.7818 16.7889 31.9897 16.719C32.1976 16.649 32.4054 16.4742 32.4054 16.2645C32.4054 16.0897 32.3361 15.9499 32.1976 15.81C32.059 15.7052 31.9204 15.6352 31.7472 15.5653C31.1236 15.3556 29.7032 15.1458 29.3914 15.9499C29.1142 16.8238 30.8811 16.719 31.3315 16.7539Z" fill="#BF9777"/>
<path d="M31.5661 15.3326C31.7578 14.5055 31.2487 13.6781 30.4289 13.4847C29.6092 13.2912 28.7893 13.805 28.5976 14.6322C28.4059 15.4593 28.915 16.2867 29.7347 16.4801C30.5545 16.6736 31.3744 16.1598 31.5661 15.3326Z" fill="#600C4E"/>
<path d="M30.8812 13.4678L30.9158 13.5027C30.9158 13.5027 30.9504 13.5027 30.9851 13.5027C31.089 13.4678 31.193 13.4328 31.2622 13.3978C31.2622 13.4678 31.2276 13.5377 31.2276 13.6076C31.3315 13.6076 31.4701 13.6076 31.574 13.6076C31.5394 13.6775 31.4701 13.7474 31.4355 13.8173C31.5047 13.8173 31.6087 13.8173 31.678 13.8173C31.7126 13.8173 31.7473 13.8173 31.7473 13.8523C31.7473 13.8523 31.7473 13.8873 31.7126 13.8873C31.6087 13.9921 31.5047 14.097 31.4008 14.1669C31.3662 14.2019 31.2969 14.2369 31.2276 14.2718C31.1583 14.2718 31.1237 14.2369 31.0544 14.2369C30.8812 14.1669 30.604 13.9921 30.5347 13.8173C30.4654 13.6426 30.6386 13.4328 30.7426 13.293C30.8119 13.3978 30.8465 13.4328 30.8812 13.4678Z" fill="#600C4E"/>
<path opacity="0.33" d="M29.5994 13.8525C29.4262 13.9574 29.2876 14.0972 29.2529 14.307C29.2529 14.3419 29.2529 14.4118 29.2529 14.4468C29.2529 14.5167 29.3222 14.5517 29.3569 14.5866C29.3915 14.6216 29.4262 14.6566 29.4608 14.6216C29.5301 14.6216 29.5647 14.5517 29.5994 14.4818C29.7379 14.272 29.9805 14.1322 30.223 14.2021C30.2923 14.2021 30.3615 14.2371 30.3962 14.1671C30.3962 14.1671 30.3962 14.1322 30.3962 14.0972C30.4308 13.6777 29.8419 13.7476 29.5994 13.8525Z" fill="white"/>
<path d="M44.3229 23.7808C44.5308 23.8157 44.7733 23.8157 44.9812 23.7458C45.189 23.6759 45.3969 23.5011 45.3969 23.2914C45.3969 23.1166 45.3276 22.9767 45.189 22.8369C45.0505 22.732 44.9119 22.6621 44.7387 22.5922C44.1151 22.3824 42.6946 22.1727 42.3828 22.9767C42.1057 23.8507 43.8725 23.7458 44.3229 23.7808Z" fill="#BF9777"/>
<path d="M44.5781 22.3088C44.7551 21.4783 44.2314 20.6602 43.4084 20.4816C42.5854 20.3029 41.7747 20.8313 41.5977 21.6618C41.4206 22.4923 41.9443 23.3104 42.7673 23.489C43.5903 23.6677 44.401 23.1392 44.5781 22.3088Z" fill="#600C4E"/>
<path d="M43.8379 20.4946L43.8726 20.5296C43.8726 20.5296 43.9072 20.5296 43.9419 20.5296C44.0458 20.4946 44.1497 20.4597 44.219 20.4247C44.219 20.4946 44.1844 20.5645 44.1844 20.6345C44.2883 20.6345 44.4269 20.6345 44.5308 20.6345C44.4962 20.7044 44.4269 20.7743 44.3922 20.8442C44.4615 20.8442 44.5655 20.8442 44.6348 20.8442C44.6694 20.8442 44.704 20.8442 44.704 20.8792C44.704 20.8792 44.704 20.9141 44.6694 20.9141C44.5655 21.019 44.4615 21.1239 44.3576 21.1938C44.323 21.2287 44.2537 21.2637 44.1844 21.2987C44.1151 21.2987 44.0804 21.2637 44.0112 21.2637C43.8379 21.1938 43.5608 21.019 43.4915 20.8442C43.4222 20.6694 43.5954 20.4597 43.6994 20.3198C43.8033 20.3897 43.8379 20.4597 43.8379 20.4946Z" fill="#600C4E"/>
<path opacity="0.33" d="M42.5908 20.8793C42.4176 20.9841 42.279 21.124 42.2444 21.3337C42.2444 21.3687 42.2444 21.4386 42.2444 21.4736C42.2444 21.5435 42.3137 21.5784 42.3483 21.6134C42.383 21.6484 42.4176 21.6833 42.4522 21.6484C42.5215 21.6484 42.5562 21.5784 42.5908 21.5085C42.7294 21.2988 42.9719 21.1589 43.2144 21.2289C43.2837 21.2289 43.353 21.2638 43.3876 21.1939C43.3876 21.1939 43.3876 21.1589 43.3876 21.124C43.4223 20.7045 42.8333 20.7394 42.5908 20.8793Z" fill="white"/>
<path d="M48.9651 18.3276C48.5841 19.4463 47.7526 20.1105 47.0251 20.8097C46.055 21.7186 45.0503 22.3828 43.8378 23.0121C40.7545 24.5852 37.3247 24.3755 33.9642 24.6901C29.3912 25.0746 23.467 25.0746 19.2058 23.6413C16.261 22.6625 14.4595 21.1942 12.1037 19.2016C11.9998 21.9284 12.4848 24.3755 12.762 26.0535C13.3163 29.6542 14.7713 33.7793 17.3696 36.3313C17.9586 36.9256 18.5822 37.45 19.2058 37.8695C19.6561 44.5116 31.3312 44.0572 35.35 43.9173C38.1908 43.8125 40.8238 42.3792 41.6899 41.0158C42.2788 39.8621 42.3481 38.8134 42.2788 37.8345C44.1842 36.4712 45.7432 34.6883 46.7826 32.5558C48.4108 29.2697 48.3069 25.8088 48.7573 22.278C48.9651 21.0544 49.0344 19.5861 48.9651 18.3276Z" fill="#8FBBEF"/>
<path d="M46.852 32.5558C48.4802 29.2697 48.3763 25.8088 48.8267 22.278C48.9652 21.0544 49.0345 19.6211 48.9652 18.3276C48.1338 19.6561 47.6834 20.2154 46.9559 20.8796C45.9166 21.7885 45.0851 22.3479 43.8726 22.9771C43.3875 23.2218 42.9372 23.3966 42.4175 23.5714C42.175 24.5503 42.0018 25.599 41.7593 26.5079C40.6853 30.8778 38.2602 35.3874 34.0336 37.2402C33.41 37.5199 29.9109 37.7646 30.2227 38.6386C30.3613 39.0231 31.4699 39.163 31.7471 39.6873C32.0242 40.2467 31.8857 41.3304 31.7817 41.9597C31.6778 42.5539 31.2967 43.323 31.5046 43.9873C33.0636 44.0222 34.4493 43.9523 35.4194 43.9173C38.2602 43.8125 40.8932 42.3792 41.7593 41.0158C42.3482 39.8621 42.4175 38.8134 42.3482 37.8345C44.219 36.4712 45.778 34.6883 46.852 32.5558Z" fill="#80ABD6"/>
<path d="M12.7966 22.9768C13.1084 22.9418 13.4548 22.9418 13.732 23.0816C13.9399 23.1865 14.1131 23.3963 14.2516 23.606C14.6327 24.2003 14.9099 24.8296 15.4988 25.284C16.6421 26.123 18.1318 25.1792 19.3097 25.8783C19.6215 26.0531 19.9333 26.3328 20.2104 26.5775C20.4876 26.8222 20.7648 27.0669 21.0419 27.2767C21.5616 27.6962 22.1505 28.0807 22.8088 28.2905C23.5709 28.5352 24.3678 28.4653 25.1646 28.2555C25.8575 28.0807 26.5157 27.801 27.2432 27.7311C27.5897 27.6962 27.9361 27.7311 28.2825 27.871C28.6983 28.0108 29.0794 28.2905 29.4951 28.5002C30.2919 28.8848 31.1234 29.1644 32.0241 29.1994C32.9249 29.2344 33.791 28.9547 34.5878 28.5002C35.246 28.1157 35.9043 27.7661 36.6318 27.6263C37.2207 27.5214 37.8097 27.6612 38.364 27.801C39.0569 27.9758 39.7844 28.2905 40.5119 28.2206C41.6552 28.0807 42.1749 27.0669 42.9024 26.2978C43.2835 25.8783 43.7685 25.5637 44.3228 25.4588C44.8078 25.3889 45.2582 25.4938 45.7432 25.4938C46.2282 25.4938 46.6786 25.3539 46.9904 24.9694C47.2329 24.6897 47.4061 24.3751 47.5447 24.0255C47.6486 23.7459 47.6833 23.4662 47.7872 23.1516C47.8565 22.9068 47.9951 22.802 48.2722 22.8369C48.2722 22.6971 48.2722 22.5223 48.2722 22.3825C48.099 22.4174 47.9604 22.4873 47.8219 22.5922C47.614 22.802 47.9258 23.1166 48.1337 22.9068C48.1683 22.8719 48.203 22.8369 48.2722 22.8369C48.5494 22.802 48.584 22.3825 48.2722 22.3825C47.9604 22.3475 47.6833 22.4524 47.4754 22.7321C47.3022 22.9768 47.2676 23.2564 47.1983 23.5361C47.0597 24.0605 46.7479 24.7247 46.2629 24.9344C45.8818 25.0743 45.4314 24.9694 45.0157 24.9344C44.4614 24.8995 43.9071 24.9694 43.4221 25.2491C42.9024 25.5287 42.5213 25.9482 42.1402 26.4027C41.8284 26.7872 41.5166 27.2068 41.1009 27.4515C40.6159 27.7661 40.0269 27.7661 39.4726 27.5913C38.7797 27.4165 38.0869 27.1718 37.394 27.0669C36.7704 26.997 36.1814 27.1019 35.6271 27.3466C34.7957 27.6962 34.0681 28.2555 33.202 28.5002C32.3706 28.7449 31.5045 28.675 30.673 28.4303C30.2573 28.2905 29.8415 28.1157 29.4258 27.9059C29.0447 27.6962 28.6636 27.4515 28.2133 27.3466C27.5204 27.1368 26.8621 27.2767 26.1693 27.4515C25.4071 27.6612 24.6103 27.9409 23.8134 27.9409C22.3584 27.9409 21.3191 26.8572 20.2451 25.9482C19.9679 25.7035 19.6561 25.4588 19.3097 25.284C18.9979 25.1442 18.6515 25.0743 18.305 25.0393C17.6814 25.0044 17.0232 25.1792 16.3996 25.0743C15.6721 24.9344 15.2563 24.3751 14.9099 23.7458C14.6327 23.2564 14.3209 22.7321 13.7666 22.5223C13.4548 22.4873 13.1084 22.4873 12.7966 22.5223C12.4848 22.5223 12.4848 23.0117 12.7966 22.9768Z" fill="#E5E5B7"/>
<path d="M13.351 25.3192C13.6628 25.2143 13.9746 25.2143 14.2517 25.3891C14.4942 25.5639 14.6675 25.8435 14.806 26.0882C15.1178 26.6126 15.3603 27.2768 15.8107 27.6614C16.0879 27.8711 16.3997 27.976 16.7115 28.0459C17.0925 28.0809 17.4736 28.011 17.8201 27.9061C18.2012 27.8012 18.5476 27.6963 18.9287 27.8362C19.2405 27.9411 19.5176 28.1508 19.7255 28.4305C20.1759 28.9549 20.453 29.5841 21.042 29.9687C21.3884 30.1784 21.7695 30.3182 22.1506 30.3182C22.497 30.3182 22.8088 30.2134 23.086 30.0735C23.7442 29.7589 24.4025 29.4093 25.1646 29.4443C25.7536 29.4792 26.2733 29.8288 26.7583 30.1085C27.3472 30.4581 28.0055 30.8426 28.6984 31.0174C29.4259 31.1922 30.1534 31.0524 30.8463 30.8077C31.5045 30.563 32.1974 30.2483 32.8903 30.2483C33.5832 30.2483 34.2414 30.493 34.8304 30.8077C35.35 31.0524 35.8697 31.367 36.4587 31.367C37.2208 31.402 37.9484 30.9825 38.6066 30.5979C38.953 30.3882 39.2995 30.1434 39.6459 30.0036C40.027 29.8638 40.4427 29.8288 40.8931 29.8638C41.3088 29.8987 41.6899 30.0036 42.1057 29.9687C42.5214 29.9337 42.9025 29.7589 43.2489 29.4792C43.7686 29.0248 43.9418 28.3256 44.3575 27.7663C44.5654 27.5216 44.8425 27.2768 45.1197 27.2069C45.3969 27.137 45.7087 27.102 45.9858 27.0671C46.4708 26.9622 46.9212 26.6825 47.3023 26.4029C47.5448 26.263 47.7527 26.0882 47.9605 25.8785C48.0991 25.7387 48.2723 25.5988 48.3416 25.424C48.4455 25.2492 48.4109 25.0395 48.203 24.9346C47.9605 24.7948 47.718 25.1793 47.9605 25.3192C47.9952 25.3541 47.9259 25.2842 47.9259 25.2842C47.8566 25.1793 47.9605 25.3192 47.9259 25.2143V25.1793C47.9259 25.1793 47.8912 25.2492 47.9259 25.1793C47.8912 25.2492 47.8566 25.2842 47.7873 25.3541C47.6141 25.5289 47.4409 25.6687 47.233 25.8435C46.8866 26.0882 46.4362 26.4029 46.0551 26.5427C45.7779 26.6126 45.4661 26.6476 45.1543 26.6825C44.8772 26.7525 44.6 26.8573 44.3575 27.0321C43.7686 27.4866 43.5954 28.1508 43.1796 28.7451C43.1103 29.1296 42.8332 29.3744 42.4867 29.4792C42.1057 29.5841 41.6899 29.5492 41.2742 29.4792C40.8585 29.4093 40.4427 29.3744 40.027 29.4792C39.6459 29.5492 39.2648 29.7239 38.953 29.9337C38.2948 30.3182 37.6366 30.8426 36.8744 30.9475C36.3201 31.0174 35.8004 30.7727 35.3154 30.528C34.7264 30.2134 34.1028 29.9337 33.4446 29.8638C32.7171 29.7589 32.0588 29.9687 31.366 30.2134C30.7077 30.4581 30.0495 30.7377 29.3566 30.7028C28.6637 30.6678 27.9708 30.3182 27.3819 29.9687C26.8622 29.654 26.3425 29.3044 25.7882 29.1296C25.13 28.9549 24.4718 29.0248 23.8482 29.3044C23.2246 29.5492 22.601 30.0386 21.8734 29.8638C21.527 29.7589 21.2152 29.5841 20.9727 29.3044C20.7302 29.0597 20.557 28.7801 20.3837 28.5004C19.968 27.9411 19.4484 27.4516 18.7208 27.3817C17.9587 27.3118 17.3004 27.8362 16.5382 27.6264C15.9493 27.4516 15.7068 26.8224 15.4643 26.333C15.1871 25.8086 14.8407 25.1793 14.2517 24.9346C13.9399 24.8297 13.5935 24.8297 13.2817 24.9346C12.9352 24.9696 13.0738 25.424 13.351 25.3192Z" fill="#E5E5B7"/>
<path opacity="0.1" d="M22.1159 26.1235C21.423 25.6341 20.6609 25.2496 19.8641 24.9C19.0326 24.5154 16.7461 22.9773 16.0186 23.9911C12.9006 24.9349 15.6375 30.4584 16.9193 32.3112C17.7161 33.4648 20.6955 35.9119 21.9774 33.9892C22.4277 33.29 22.2545 32.1714 22.3238 31.4023C22.3931 30.4584 22.3931 29.5495 22.5317 28.6056C22.7049 27.4869 23.1206 26.8577 22.1159 26.1235Z" fill="white"/>
<path d="M26.3425 16.6847C26.1693 16.8245 26.1 17.0343 26.2039 17.2091C26.2732 17.3139 26.3771 17.3839 26.481 17.4188C26.8275 17.5936 27.2432 17.7684 27.3818 18.118C27.555 18.5025 27.3125 18.957 27.0354 19.3066C26.7236 19.6562 26.3425 19.9358 25.9267 20.1106C25.4071 20.3204 24.7835 20.4253 24.3331 20.8098C24.2292 20.9147 24.1252 21.0196 24.1252 21.1594C24.1252 21.3342 24.3331 21.474 24.5063 21.5439C25.511 21.9285 26.6889 21.7187 27.5204 21.0545C27.7282 20.8797 27.9361 20.7049 28.1786 20.5651C28.4904 20.3903 28.8715 20.3903 29.2179 20.3553C29.9108 20.2505 30.5691 20.0407 31.1927 19.7261C31.4352 19.6212 31.643 19.4464 31.8163 19.2716C31.8509 19.2017 31.9202 19.1318 31.9202 19.0619C31.9548 18.922 31.8163 18.7822 31.6777 18.7123C31.5391 18.6424 31.3659 18.6424 31.2273 18.6424C30.8116 18.6424 30.4305 18.6074 30.0494 18.4676C29.6683 18.3277 29.3565 18.0481 29.1833 17.6985C29.114 17.5237 29.0794 17.3489 28.9754 17.2091C28.8369 16.9644 28.629 16.8245 28.4211 16.6847C27.8322 16.405 26.8621 16.2652 26.3425 16.6847Z" fill="#F2DCA5"/>
<path d="M27.174 33.5342C25.9961 33.5342 24.8182 33.6391 23.6403 33.674C21.2845 33.7789 18.9287 33.7789 16.5729 33.7789C15.7068 33.7789 14.8754 33.7439 14.0439 33.7439C13.6282 33.7439 13.2124 33.7439 12.7967 33.7439C12.5888 33.7439 11.896 33.8138 12.0345 33.8488V33.9537C12.0345 34.6179 12.1038 35.4219 12.5542 35.9114C12.9353 39.4422 14.1132 47.9721 14.91 48.6363C17.0233 50.3842 23.9521 50.4891 25.7883 48.5664C26.4812 47.8322 27.5551 39.9666 27.9362 36.226C28.3519 35.9463 28.0748 35.2821 28.1441 34.6878C28.3173 33.5342 28.2134 33.5691 27.174 33.5342Z" fill="#EFE0CB"/>
<path d="M19.9334 30.8426C15.6722 30.9125 11.896 32.136 11.9999 33.7441C12.1038 35.3522 14.5636 37.1002 20.0027 37.1002C26.1001 37.1002 28.0402 36.1213 28.3173 33.9189C28.6291 31.9612 24.645 30.8076 19.9334 30.8426Z" fill="#EF6A60"/>
<path d="M25.7882 48.5669C26.4118 47.9027 27.3819 41.3305 27.8322 37.3452C27.3126 37.52 26.7929 37.7298 26.4811 37.7997C25.3725 38.0444 24.2292 38.1842 23.1206 38.359C22.0466 38.5338 20.938 38.5688 19.7948 38.5688C18.7554 38.5688 17.2657 38.4989 16.3996 37.9745L16.4343 38.1143C16.9193 38.4289 17.8547 38.6387 18.4783 38.7785C20.7302 39.233 23.0167 39.4078 25.2339 39.8622C25.3032 41.0508 25.1993 42.3093 25.0953 43.4979C24.9914 44.7914 24.6796 46.1897 24.3678 47.4133C24.0214 48.8116 22.2199 49.0913 21.042 49.0913C19.4483 49.0913 17.7508 49.1263 16.2264 48.6718C15.776 48.532 15.1178 48.0775 14.5981 48.1125C14.7021 48.3921 14.806 48.6019 14.9099 48.6718C17.0232 50.4197 23.9867 50.5246 25.7882 48.5669Z" fill="#E8D2BF"/>
<path d="M28.8717 36.4359C28.4559 35.7368 28.9063 34.2685 27.9016 33.9888C27.382 33.849 26.793 33.9539 26.4119 34.3384C26.2041 34.5482 25.6151 36.0164 26.2387 35.8766L26.3426 36.0514C26.9316 36.0164 27.3127 36.5058 27.4513 36.9953C27.5898 37.5196 27.9363 37.9741 28.4213 38.2887C28.9063 38.6034 29.3913 38.5684 29.4953 37.9391C29.5992 37.2749 29.1488 36.9253 28.8717 36.4359Z" fill="#EF6A60"/>
<path opacity="0.3" d="M14.9447 38.0441C14.5983 37.9392 14.2172 37.8343 13.94 37.9741C13.8708 37.9741 13.8361 38.0091 13.8015 38.114C13.7668 38.2188 13.7322 38.3237 13.7322 38.4985C13.7322 38.6733 13.7668 38.8831 13.8015 39.0579C13.8361 39.3725 13.8708 39.6521 13.9054 39.7221C14.044 40.6659 14.2865 41.6098 14.4251 42.5188C14.5636 43.4277 14.5983 44.3016 14.7022 45.2106C14.7715 45.8049 14.9794 47.413 15.8455 47.343C16.8848 47.2382 16.2612 45.0008 16.2612 44.3366C16.2612 43.0781 16.6423 42.0293 16.9194 40.8407C17.162 39.4774 16.1573 38.4636 14.9447 38.0441Z" fill="white"/>
<path d="M25.7536 41.8198C27.0354 43.8124 26.689 46.3644 24.9567 47.4831C23.2245 48.6018 20.8687 47.6579 19.2058 45.9449C17.4043 44.0921 17.6122 41.0857 19.3444 39.967C21.042 38.8483 24.4371 39.7922 25.7536 41.8198Z" fill="white"/>
<path d="M25.7536 41.8197C25.615 41.575 25.4418 41.3652 25.2686 41.1904C25.2339 41.9595 25.1993 42.7286 25.13 43.4627C25.0261 44.7562 24.7143 46.1546 24.4025 47.3781C24.3678 47.5529 24.2985 47.6927 24.2292 47.8326C24.4718 47.7627 24.7143 47.6228 24.9568 47.483C26.6543 46.3643 27.0354 43.8123 25.7536 41.8197Z" fill="#DDDDDD"/>
<path d="M21.2845 40.561C21.3192 40.4911 21.3885 40.4911 21.4578 40.4911C21.5271 40.5261 21.5963 40.596 21.5617 40.6659C21.5617 40.7009 21.5271 40.7358 21.4924 40.7708L21.1806 41.1204L21.146 41.3301C21.1113 41.435 21.042 41.5049 20.9381 41.47C20.8342 41.435 20.7995 41.3651 20.8342 41.2602L20.8688 41.0505L20.7302 40.596C20.7302 40.561 20.6956 40.5261 20.7302 40.4911C20.7302 40.4212 20.8342 40.3513 20.9035 40.3863C20.9728 40.3863 21.0074 40.4562 21.042 40.5261L21.1113 40.8058L21.2845 40.561Z" fill="#EF6A60"/>
<path d="M22.2893 40.7357C22.5318 40.8406 22.705 41.0853 22.5665 41.4349C22.4279 41.7845 22.1507 41.8194 21.9082 41.7495C21.6657 41.6446 21.4925 41.3999 21.6311 41.0503C21.735 40.7357 22.0121 40.6658 22.2893 40.7357ZM22.1854 40.9804C22.0468 40.9455 21.9775 41.0154 21.9082 41.1552C21.8389 41.2951 21.8736 41.4349 21.9775 41.4698C22.1161 41.5048 22.1854 41.4349 22.2547 41.2951C22.3239 41.1552 22.3239 41.0503 22.1854 40.9804Z" fill="#EF6A60"/>
<path d="M23.1552 41.9941C23.1206 41.9592 23.0859 41.9242 23.1206 41.8543C23.1552 41.7844 23.2245 41.7844 23.2591 41.8193L23.4324 41.9242C23.5017 41.9592 23.5363 42.0641 23.467 42.134L23.3284 42.3787C23.2938 42.4486 23.2245 42.4836 23.1552 42.4486C23.0859 42.4136 23.0859 42.3437 23.1206 42.3088V42.2738C23.0513 42.3088 22.9127 42.2738 22.8088 42.2388C22.6355 42.134 22.4623 41.8893 22.6702 41.5397C22.8781 41.2251 23.1899 41.2251 23.3631 41.3649C23.6402 41.5397 23.6402 41.7145 23.5709 41.7844C23.5363 41.8543 23.467 41.8893 23.3631 41.8193C23.2591 41.7494 23.3284 41.6446 23.2245 41.5746C23.1206 41.5047 23.0166 41.5397 22.9127 41.7145C22.8088 41.8543 22.8088 41.9592 22.9473 42.0641C23.0166 42.134 23.0859 42.099 23.1552 42.0641V41.9941Z" fill="#EF6A60"/>
<path d="M24.4719 42.3436C24.5412 42.2737 24.6451 42.2388 24.7144 42.3087C24.7837 42.3786 24.7837 42.4485 24.7144 42.5534L24.4026 42.903C24.1947 43.1477 23.9869 43.0778 23.779 42.903C23.5711 42.7282 23.5019 42.4835 23.6751 42.2737L23.9869 41.9241C24.0562 41.8542 24.1601 41.8193 24.2294 41.8892C24.2987 41.9591 24.2987 42.029 24.2294 42.1339L23.9176 42.4835C23.8483 42.5534 23.8483 42.6583 23.9176 42.7282C23.9869 42.7981 24.0908 42.7981 24.1601 42.6932L24.4719 42.3436Z" fill="#EF6A60"/>
<path d="M24.8875 42.7982C24.9914 42.7283 25.0607 42.7283 25.1647 42.8332L25.4072 43.1129C25.5457 43.2877 25.5457 43.4625 25.4072 43.5673C25.3032 43.6372 25.1993 43.6372 25.0954 43.5673C25.1647 43.6372 25.1647 43.7421 25.0954 43.812L25.0261 43.882C24.9914 43.9169 24.9568 43.9519 24.9222 43.9868C24.8529 44.0218 24.7836 44.0218 24.7489 43.9519C24.6796 43.882 24.6796 43.812 24.7489 43.7421L24.8529 43.6372C24.9222 43.5673 24.8875 43.5324 24.8529 43.4625L24.7836 43.3576L24.5757 43.4625C24.5064 43.5324 24.4025 43.5324 24.3332 43.4625C24.2639 43.3925 24.2639 43.2877 24.3678 43.2177L24.8875 42.7982ZM24.9914 43.3226C25.0607 43.3925 25.0954 43.3925 25.1647 43.3576C25.234 43.3226 25.1993 43.2527 25.1647 43.1828L25.0607 43.043L24.9222 43.1828L24.9914 43.3226Z" fill="#EF6A60"/>
<path d="M25.5458 43.7772C25.5111 43.7073 25.5111 43.6374 25.5804 43.6025C25.6497 43.5675 25.719 43.5675 25.7536 43.6724L26.1001 44.2667C26.1694 44.3366 26.1347 44.4065 26.0654 44.4415C25.9962 44.4764 25.9269 44.4764 25.8922 44.4065L25.7883 44.2317L25.3033 44.5463C25.1993 44.6163 25.13 44.5813 25.0608 44.5114C25.0261 44.4415 25.0261 44.3366 25.13 44.2667L25.6151 43.952L25.5458 43.7772Z" fill="#EF6A60"/>
<path d="M23.4672 43.4976C23.2593 43.0781 22.6704 42.6935 22.1853 42.9033C21.8389 43.0431 21.5618 43.3228 21.2846 43.4976C21.0421 43.4626 20.6956 43.6374 20.5571 43.7773C20.2453 44.0919 20.1413 44.6163 20.2453 45.0358C20.4878 45.9447 21.3539 46.504 22.1853 46.8187C22.4625 46.9235 22.9475 46.9935 23.2593 46.8886C23.779 46.6788 23.779 46.2244 23.8136 45.8398C23.8483 45.0707 23.8483 44.1618 23.4672 43.4976Z" fill="#ED4B48"/>
<path d="M20.5916 44.3016C20.5916 44.4414 20.6262 44.6162 20.6608 44.7561C20.6608 44.791 20.7301 44.8959 20.7648 44.826C20.7648 44.791 20.7301 44.7561 20.6955 44.826C20.7301 44.826 20.7301 44.826 20.7301 44.791V44.7561C20.7301 44.7211 20.6955 44.6862 20.6955 44.6512C20.6955 44.5114 20.6608 44.4065 20.6608 44.3016C20.6608 44.2667 20.5916 44.2667 20.5916 44.3016Z" fill="#EACE49"/>
<path d="M21.042 44.1617C21.0767 44.1967 21.1113 44.2666 21.1459 44.3015C21.1459 44.3365 21.1806 44.3365 21.1806 44.3715V44.4064V44.3715H21.2152C21.1806 44.3365 21.1459 44.3715 21.1806 44.4064C21.2152 44.4414 21.2499 44.4064 21.2499 44.3715C21.2499 44.3365 21.2152 44.3015 21.2152 44.3015C21.1806 44.2316 21.1113 44.1268 21.042 44.0918C21.042 44.0918 21.0074 44.1617 21.042 44.1617Z" fill="#EACE49"/>
<path d="M21.7004 43.9522C21.7697 44.0222 21.8389 44.0571 21.8736 44.0921C21.9082 44.127 21.9429 44.0571 21.9082 44.0222C21.8389 43.9872 21.7697 43.9522 21.735 43.8823C21.735 43.8823 21.6657 43.9173 21.7004 43.9522Z" fill="#EACE49"/>
<path d="M22.1853 43.6375C22.2893 43.7074 22.3585 43.7424 22.4625 43.8123C22.4971 43.8123 22.5318 43.7774 22.4625 43.7424C22.3585 43.7074 22.2893 43.6375 22.1853 43.6026C22.1853 43.5676 22.1507 43.6375 22.1853 43.6375Z" fill="#EACE49"/>
<path d="M22.7743 43.2179C22.8089 43.2179 22.8089 43.1479 22.7743 43.1479C22.7396 43.1479 22.7396 43.2179 22.7743 43.2179Z" fill="#EACE49"/>
<path d="M22.7741 43.2182C22.8434 43.2531 22.9127 43.323 22.982 43.358C23.0166 43.393 23.0512 43.323 23.0166 43.2881C22.982 43.2881 22.9473 43.2531 22.9473 43.2182C22.9127 43.1832 22.878 43.1482 22.8434 43.1133C22.7741 43.1482 22.7394 43.2182 22.7741 43.2182Z" fill="#EACE49"/>
<path d="M20.5916 45.2806C20.6262 45.3855 20.6608 45.4904 20.7301 45.5603C20.7648 45.5952 20.7994 45.5603 20.7648 45.5253C20.6955 45.4554 20.6608 45.3505 20.6608 45.2806C20.6262 45.2107 20.5916 45.2456 20.5916 45.2806Z" fill="#EACE49"/>
<path d="M21.146 45.1056C21.1806 45.1755 21.2153 45.2454 21.2846 45.2804C21.3192 45.3153 21.3539 45.2804 21.3192 45.2454C21.2846 45.2105 21.2153 45.1405 21.1806 45.0706C21.1806 45.0357 21.146 45.0706 21.146 45.1056Z" fill="#EACE49"/>
<path d="M21.8388 44.756C21.9081 44.8259 21.9774 44.8958 22.0467 44.9308C22.0813 44.9308 22.116 44.8609 22.0467 44.8609C21.9774 44.8259 21.9081 44.756 21.8735 44.721C21.8388 44.6861 21.8042 44.721 21.8388 44.756Z" fill="#EACE49"/>
<path d="M22.4277 44.4762C22.4623 44.5461 22.497 44.616 22.5662 44.651C22.6009 44.686 22.6355 44.651 22.6009 44.616C22.5662 44.5811 22.5316 44.5112 22.4623 44.4412C22.4623 44.4063 22.393 44.4412 22.4277 44.4762Z" fill="#EACE49"/>
<path d="M22.9474 44.2667C22.9821 44.3017 23.0167 44.3366 23.0514 44.4066C23.086 44.4415 23.1207 44.4066 23.1207 44.3716C23.086 44.3366 23.0514 44.3017 23.0167 44.2318C22.9821 44.1968 22.9128 44.2318 22.9474 44.2667Z" fill="#EACE49"/>
<path d="M23.3632 44.0223C23.3978 44.0922 23.4325 44.1621 23.4325 44.232C23.4325 44.267 23.5018 44.267 23.5018 44.232C23.5018 44.1621 23.4671 44.0922 23.4325 43.9873C23.3978 43.9873 23.3286 43.9873 23.3632 44.0223Z" fill="#EACE49"/>
<path d="M21.319 45.9796C21.3883 46.0495 21.4923 46.1194 21.5615 46.1544C21.5962 46.1544 21.6308 46.1194 21.5962 46.0845C21.4923 46.0495 21.423 45.9796 21.3537 45.9097C21.319 45.9097 21.2844 45.9446 21.319 45.9796Z" fill="#EACE49"/>
<path d="M21.9082 45.7696C21.9775 45.8046 22.0122 45.8745 22.0814 45.8745C22.1161 45.8745 22.1507 45.8395 22.0814 45.8046C22.0122 45.7696 21.9775 45.7347 21.9082 45.6997C21.9082 45.6997 21.8736 45.7347 21.9082 45.7696Z" fill="#EACE49"/>
<path d="M22.5319 45.4202C22.5666 45.4902 22.6358 45.5601 22.6705 45.63C22.7051 45.665 22.7398 45.63 22.7051 45.595C22.6705 45.5251 22.6012 45.4902 22.5666 45.4202C22.5666 45.3503 22.4973 45.3853 22.5319 45.4202Z" fill="#EACE49"/>
<path d="M23.1207 45.1754C23.1554 45.1754 23.1554 45.1055 23.1207 45.1055C23.0861 45.1055 23.0861 45.1754 23.1207 45.1754Z" fill="#EACE49"/>
<path d="M23.0861 45.1407C23.1207 45.2107 23.1554 45.2806 23.19 45.3505C23.19 45.3855 23.2593 45.3855 23.2593 45.3505C23.2593 45.2806 23.2247 45.1757 23.1554 45.1058C23.1207 45.0708 23.0515 45.1058 23.0861 45.1407Z" fill="#EACE49"/>
<path d="M23.571 44.931C23.6056 45.0009 23.6056 45.0708 23.571 45.1407C23.571 45.1757 23.6403 45.2106 23.6403 45.1407C23.6403 45.0708 23.6403 44.9659 23.6403 44.896C23.6056 44.8611 23.5363 44.8611 23.571 44.931Z" fill="#EACE49"/>
<path d="M22.1162 46.5742C22.1854 46.6091 22.2894 46.679 22.3933 46.679C22.428 46.679 22.428 46.6091 22.3933 46.6091C22.2894 46.6091 22.2201 46.5742 22.1508 46.5392C22.1162 46.4693 22.0815 46.5392 22.1162 46.5742Z" fill="#EACE49"/>
<path d="M22.5664 46.2594C22.6356 46.3293 22.7049 46.3643 22.8089 46.3992C22.8435 46.3992 22.8781 46.3293 22.8089 46.3293C22.7396 46.3293 22.6703 46.2594 22.601 46.2244C22.5664 46.1895 22.5317 46.2244 22.5664 46.2594Z" fill="#EACE49"/>
<path d="M23.0514 46.0494C23.0861 46.0844 23.0861 46.1543 23.1207 46.1893C23.1554 46.2242 23.19 46.1893 23.19 46.1543C23.1554 46.0844 23.1554 46.0494 23.1207 46.0145C23.0861 45.9795 23.0168 46.0145 23.0514 46.0494Z" fill="#EACE49"/>
<path d="M23.6057 45.7347C23.6057 45.8046 23.6404 45.8395 23.6057 45.9095C23.6057 45.9444 23.675 45.9794 23.675 45.9095C23.675 45.8395 23.675 45.7696 23.675 45.6997C23.6404 45.6997 23.6057 45.6997 23.6057 45.7347Z" fill="#EACE49"/>
<path d="M22.9129 46.7137C22.9822 46.7487 23.0861 46.7836 23.19 46.7836C23.2247 46.7836 23.2247 46.7137 23.19 46.7137C23.1208 46.7137 23.0168 46.6787 22.9475 46.6787C22.8782 46.6438 22.8782 46.7137 22.9129 46.7137Z" fill="#EACE49"/>
<path d="M23.1554 46.5738C23.1901 46.6088 23.2247 46.6437 23.294 46.6437C23.3287 46.6437 23.3287 46.5738 23.294 46.5738L23.2594 46.5389L23.2247 46.5039C23.1554 46.5039 23.1208 46.5389 23.1554 46.5738Z" fill="#EACE49"/>
<path d="M23.5365 46.3292C23.5711 46.3292 23.5711 46.2593 23.5365 46.2593C23.5018 46.2593 23.5018 46.3292 23.5365 46.3292Z" fill="#EACE49"/>
<path d="M23.5017 46.3289C23.5017 46.3988 23.5017 46.4338 23.5017 46.5037C23.5017 46.5387 23.571 46.5736 23.571 46.5037C23.571 46.4338 23.571 46.3639 23.571 46.294C23.5364 46.259 23.5017 46.259 23.5017 46.3289Z" fill="#EACE49"/>
<path d="M21.3193 43.0082C21.1807 42.8683 21.1114 42.6236 21.0421 42.4488C20.9036 42.4838 20.5918 42.6236 20.4878 42.7635C20.6957 42.9033 20.9382 43.0781 21.1114 43.2878C20.661 43.2179 20.1414 43.5325 19.8296 43.8122C20.0721 43.8122 20.28 43.8122 20.5225 43.8122C20.6957 43.8122 21.0768 43.7772 21.2154 43.6374L21.1461 43.6724C21.3886 43.5675 21.6311 43.4277 21.8043 43.2179C21.9082 43.113 22.0468 42.9732 22.1161 42.8334C22.1854 42.6935 22.1854 42.4838 22.324 42.3789C21.8736 42.3789 21.4579 42.5887 21.3193 43.0082Z" fill="#53B748"/>
<g opacity="0.5">
<path opacity="0.5" d="M13.4548 34.0938C13.4895 34.9677 14.5288 35.3173 15.2217 35.5271C16.261 35.8417 17.3696 36.0165 18.4436 36.1214C19.9679 36.2612 21.4923 36.1563 23.0166 36.0165C24.0906 35.9116 25.3031 35.7718 26.2385 35.1775C26.6543 34.8978 27.0354 34.4783 27.1739 33.9539C27.2779 33.4995 27.1046 33.045 26.7928 32.7304C25.9267 31.8215 24.4717 31.6117 23.3284 31.4719C21.8387 31.2621 20.3837 31.332 18.894 31.4019C17.6814 31.4369 16.3996 31.5068 15.291 31.9962C14.6674 32.2759 14.0438 32.7304 13.7666 33.3946C13.8359 33.3946 13.9399 33.4295 14.0091 33.4295C14.0091 33.3946 14.0091 33.3596 14.0091 33.3247C14.0091 33.1499 13.7666 33.1499 13.7666 33.3247C13.7666 33.3596 13.7666 33.3946 13.7666 33.4295C13.7666 33.5694 13.9745 33.6043 14.0091 33.4645C14.2517 32.8353 14.9099 32.4157 15.5335 32.171C16.1224 31.9263 16.7807 31.8215 17.4043 31.7515C18.0279 31.6816 18.6515 31.6467 19.2751 31.6467C20.0026 31.6117 20.7301 31.5767 21.4576 31.6117C22.2545 31.6117 23.0859 31.6816 23.8827 31.8215C24.541 31.9263 25.2339 32.1011 25.8575 32.3808C26.3425 32.6255 26.8621 32.9401 27.0007 33.4995C27.1393 34.0938 26.6196 34.6531 26.1693 34.9677C25.3031 35.562 24.1252 35.6669 23.0859 35.7718C21.7002 35.9116 20.3144 36.0165 18.894 35.9116C17.82 35.8417 16.746 35.6319 15.7067 35.3872C15.0831 35.2124 13.8359 34.9328 13.8013 34.0938C13.6973 33.919 13.4548 33.919 13.4548 34.0938Z" fill="white"/>
</g>
<path opacity="0.1" d="M22.7395 31.7863C22.1852 31.3319 21.1112 31.4367 20.4184 31.4367C18.5129 31.4367 16.4689 31.5766 14.6674 32.2058C14.1131 32.4156 13.3856 32.7652 13.1084 33.3245C12.9352 33.5342 12.7966 33.8139 12.8313 34.1285C12.8659 34.7928 13.6281 35.0375 14.1478 35.2123C14.806 35.457 15.5335 35.5968 16.1918 35.422C17.3004 35.1423 16.3303 34.6529 16.4343 33.9188C16.5728 33.0448 18.3397 32.9749 18.9633 32.905C19.9333 32.8001 20.938 32.6952 21.9081 32.6603C22.3931 32.6952 23.4324 32.3457 22.7395 31.7863Z" fill="white"/>
</g>
<defs>
<linearGradient id="paint0_linear_430_734" x1="60" y1="60" x2="-19.9676" y2="53.812" gradientUnits="userSpaceOnUse">
<stop stop-color="#C58BF2"/>
<stop offset="1" stop-color="#EEA4CE"/>
</linearGradient>
<clipPath id="clip0_430_734">
<rect width="37" height="38" fill="white" transform="translate(12 12)"/>
</clipPath>
</defs>
</svg>
