<svg width="68" height="68" viewBox="0 0 68 68" fill="none" xmlns="http://www.w3.org/2000/svg">
<g filter="url(#filter0_d_430_724)">
<rect opacity="0.2" x="4" width="60" height="60" rx="12" fill="url(#paint0_linear_430_724)"/>
<g clip-path="url(#clip0_430_724)">
<path d="M11.2681 35.4118C11.4289 35.7896 11.6434 36.1135 11.9114 36.3294C13.1445 37.4089 15.5035 36.6532 17.0047 36.9231C18.5594 37.193 19.9534 38.1646 21.4545 38.6504C21.7226 38.7583 21.9907 38.8123 22.2051 38.8663C23.5991 39.1362 24.6713 39.9998 26.1725 39.9458C27.9417 39.8379 29.4429 39.1902 31.1585 38.8123C32.7133 38.4345 34.1608 38.2725 35.7692 38.2186C37.3776 38.2186 38.5571 38.5424 40.0583 38.8663C40.4336 38.9203 40.7552 39.0282 41.1305 39.0822C43.7576 39.622 46.4918 39.9998 49.0653 39.0282C49.3333 38.9203 49.6014 38.8123 49.9231 38.7583C52.0676 38.0566 54.373 37.4089 55.7669 35.4657C56.0886 35.0339 56.303 34.5481 56.5175 34.0083C56.8928 32.9828 57.0536 31.7413 57.0536 30.7697C57.0536 29.5822 56.6783 28.8805 56.0886 28.3947C55.4452 27.9089 54.5338 27.693 53.4079 27.585C52.4965 27.4771 51.6387 27.801 50.7809 27.8549C50.2448 27.9089 49.7086 27.9089 49.1725 27.9089C46.7599 27.9089 44.2937 27.693 41.9347 27.1532C40.4872 26.8294 39.1468 26.3975 37.8601 25.8578C34.6434 24.5083 31.1049 23.6447 27.6737 23.6987C26.0653 23.6987 24.3496 23.6987 22.7949 23.9146C21.9907 24.0225 21.2401 24.2924 20.4895 24.5083C20.0606 24.6163 19.6853 24.7242 19.2564 24.7782C17.5408 25.0481 16.0932 25.1021 14.6993 26.2356C13.8951 26.8833 12.9301 27.9089 12.4476 28.7725C11.4825 30.2839 10.5175 33.4686 11.2681 35.4118Z" fill="#B0502E"/>
<path d="M40.9162 37.625C40.9162 38.1108 40.9698 38.6506 41.1306 39.1364C43.7577 39.6762 46.4919 40.054 49.0654 39.0824C49.3334 38.9745 49.6015 38.8665 49.9232 38.8125C50.4593 38.3807 50.9954 37.841 51.3707 37.2472C52.2285 35.8978 52.3894 34.2245 52.7111 32.6052C52.8183 32.0654 52.9791 31.4716 52.8719 30.9319C52.7111 30.0142 51.9069 29.4205 51.1027 28.9347C50.4593 28.5569 49.816 28.233 49.119 27.9631C47.4034 27.2614 45.5269 26.8296 43.6505 26.8296C43.0071 26.8296 42.3637 26.8836 41.8276 27.2074C41.774 27.2074 41.7204 27.2614 41.7204 27.3154C40.9162 27.9091 40.809 29.0427 40.809 30.0682C40.7017 32.5512 40.7553 35.0881 40.9162 37.625Z" fill="#C75A34"/>
<path d="M18.1841 32.1732C21.9906 32.3891 25.4755 34.5482 29.282 34.3322C31.641 34.2243 33.8927 33.1447 36.2517 33.1447C38.8251 33.1447 41.1841 34.2783 43.7039 34.4942C47.564 34.818 51.1561 32.9828 54.4265 31.2016C55.3916 30.6618 56.4638 30.0141 56.5174 29.0425C56.5174 28.3408 55.9813 27.693 55.2307 27.3152C54.5337 26.9374 53.6759 26.8294 52.8717 26.6675C46.7599 25.426 41.0233 22.997 34.8578 21.7016C32.1771 21.1078 29.3356 20.784 26.5477 21.1618C23.1165 21.6476 20.1142 23.2669 17.1655 24.7783C15.7179 25.534 14.2703 26.3436 13.4125 27.5311C12.5547 28.7726 12.5547 30.5538 13.8414 31.4175C14.9673 32.2811 16.6829 32.1192 18.1841 32.1732Z" fill="#D8774A"/>
<path d="M34.9113 22.1334C32.177 21.5936 29.3355 21.3237 26.5477 21.7015C23.1164 22.1334 20.1141 23.5368 17.1654 24.9402C16.6292 25.2101 16.0931 25.426 15.6106 25.6959C16.1467 25.372 16.6829 25.1021 17.1654 24.8322C20.1141 23.2669 23.1164 21.6476 26.5477 21.1618C29.3355 20.7839 32.177 21.1078 34.8577 21.6476C39.4148 22.6191 43.7038 24.1845 48.1537 25.4799C43.7038 24.3464 39.4148 22.943 34.9113 22.1334Z" fill="#BF8E7D"/>
<path d="M13.7878 30.8236C14.9673 31.5253 16.6829 31.3634 18.1841 31.4174C21.9906 31.5793 25.4754 33.5225 29.282 33.3066C31.6409 33.1986 33.8927 32.281 36.2517 32.2271C38.8251 32.2271 41.1841 33.2526 43.7039 33.4146C47.564 33.6844 51.1561 32.0651 54.4801 30.4998C55.3915 30.068 56.4102 29.4742 56.5174 28.6646C56.5174 28.7725 56.571 28.8265 56.5174 28.9344C56.4638 29.906 55.3915 30.6077 54.4265 31.0935C51.1561 32.8748 47.564 34.71 43.7039 34.3861C41.1841 34.1702 38.8251 32.9827 36.2517 33.0367C33.8927 33.0367 31.6409 34.1163 29.282 34.2242C25.4754 34.4401 21.9906 32.281 18.1841 32.0651C16.6829 32.0111 14.9673 32.1731 13.7878 31.3634C13.0372 30.8236 12.7155 30.014 12.7692 29.1503C12.8228 29.8521 13.1444 30.4458 13.7878 30.8236Z" fill="#BF8E7D"/>
<path d="M11.2681 35.4117C11.4289 35.7895 11.6434 36.1134 11.9114 36.3293C13.1445 37.4088 15.5035 36.6531 17.0047 36.923C18.8275 37.2469 20.4359 38.5423 22.2051 38.9202C23.5991 39.1901 24.6713 40.0537 26.1725 39.9997C27.9417 39.8918 29.4429 39.2441 31.1585 38.8662C32.7133 38.4884 34.1608 38.3264 35.7692 38.2725C37.3776 38.2725 38.5571 38.5963 40.0583 38.9202C43.007 39.5139 46.1702 40.1617 49.0653 39.0821C51.4242 38.2725 54.1585 37.7327 55.7133 35.5736C56.035 35.1418 56.2494 34.656 56.4639 34.1162C52.6573 37.8946 46.9744 39.6759 41.7203 38.6503C38.9324 38.1105 35.9837 37.5168 33.1422 38.0026C30.3007 38.4884 27.4592 39.2441 24.6177 38.8122C22.1515 38.4344 19.9534 37.1389 17.4872 36.6531C16.0932 36.3833 14.6457 36.3833 13.2517 36.1134C12.6084 35.9514 11.9114 35.7355 11.2681 35.4117Z" fill="#6B301C"/>
<path d="M44.7761 25.9656C46.5453 26.1816 48.3682 26.4514 50.1374 26.7213C51.1561 26.8833 52.3355 27.1531 52.8181 28.0708C53.3006 28.9884 52.8181 30.2298 51.9603 30.8776C51.1025 31.5253 50.0302 31.6872 49.0115 31.7952C47.9393 31.9031 46.867 31.9571 45.7948 31.9571C45.4195 31.9571 45.0978 31.9571 44.7225 31.9031C44.4008 31.8492 44.0791 31.7412 43.7575 31.6333C42.4707 31.2554 41.184 30.8236 39.8973 30.4458C39.4684 30.2838 38.9323 30.0139 38.9859 29.5821C39.0395 29.1503 39.522 28.9884 39.8973 28.8804C41.1304 28.5026 42.2563 27.7469 43.1141 26.7753C43.3822 26.4514 43.6502 26.1276 44.0255 26.0196C44.24 25.9117 44.508 25.9656 44.7761 25.9656Z" fill="#C96F45"/>
<path d="M28.7994 30.8778C28.9067 29.9062 29.0139 28.9886 29.1211 28.017C29.1747 27.5852 29.2283 27.1534 29.1211 26.7215C28.9603 25.9659 28.3169 25.3721 27.888 24.7244C27.4591 24.0767 27.191 23.1051 27.7808 22.5113C28.4241 21.8636 29.4964 22.2414 30.3542 22.5653C33.3029 23.7528 36.5733 23.6448 39.7365 23.9147C40.3799 23.9687 41.0768 24.0767 41.5593 24.5085C42.0419 24.9403 42.1491 25.8579 41.5593 26.2357C41.1304 26.5056 40.6479 26.3437 40.1654 26.3977C39.522 26.5056 39.0931 27.0454 38.7178 27.5852C38.0745 28.5568 37.2703 29.6363 37.2703 30.8238C36.1444 30.9857 35.0185 30.338 33.8391 30.284C32.1771 30.2301 30.4614 31.3636 28.7994 30.8778Z" fill="#C96F45"/>
<path d="M27.4056 31.0396C27.2447 31.2015 26.9767 31.2555 26.7622 31.2555C24.296 31.5254 21.9906 29.2584 19.5244 29.7441C18.6666 29.9061 17.8088 30.3919 17.0046 30.068C16.6293 29.9061 16.3613 29.5282 16.0932 29.1504C15.8251 28.7186 15.6107 28.2868 15.3962 27.801C16.6293 27.747 17.8088 27.2072 19.0419 27.0453C20.5431 26.8833 21.9906 27.3152 23.4382 27.747C23.9743 26.9373 23.2774 25.8578 23.2774 24.8322C23.2774 23.5907 24.6177 22.5652 25.7972 22.889C25.3683 23.8606 26.1725 24.8862 26.7622 25.8038C27.5664 27.0993 27.8881 28.7186 27.6736 30.2299C27.6736 30.5538 27.62 30.8237 27.4056 31.0396Z" fill="#C96F45"/>
<path d="M28.6925 23.213C29.6575 23.213 30.3545 23.5908 30.1937 23.8607C30.9442 24.1306 30.9442 24.4544 31.3731 24.7783C31.802 25.1022 32.7135 25.2641 33.1424 25.588C33.5713 25.9118 33.3568 26.2897 33.7857 26.6135C34.2682 26.9914 34.858 27.1533 35.2333 27.5311C36.0911 28.2328 36.8953 28.9885 37.7531 29.6902C38.0748 29.9601 39.147 30.338 39.3079 30.6618C39.4687 30.9317 38.9326 31.0397 38.9326 31.2556C38.9326 31.4715 39.4687 31.6874 39.5223 31.8493C38.7181 31.9033 38.1284 31.3635 37.7531 31.1476C37.1097 30.7698 37.3242 30.6078 37.0025 30.176C36.7881 29.8522 35.8766 29.5283 35.4477 29.2584C35.0724 28.9885 34.9116 28.6647 34.6435 28.3948C34.0538 27.747 32.8743 27.2613 32.2846 26.6675C32.0165 26.3976 31.8557 26.0198 31.4804 25.7499C30.8906 25.426 30.14 25.372 29.9792 24.8863C29.0678 24.8323 28.7997 24.2385 28.6389 23.9147C27.8883 23.8067 27.7275 23.4828 28.1027 23.213C28.2636 23.159 28.5317 23.213 28.6925 23.213Z" fill="#642917"/>
<path d="M23.0094 23.3209C23.4383 23.051 24.8322 23.4829 25.0467 23.7528C25.422 24.1846 24.6714 24.5624 25.5828 25.0482C26.3334 25.426 27.6201 25.588 28.2098 26.0198C28.6924 26.3976 28.5315 26.8295 29.014 27.2613C29.5502 27.6391 30.2471 27.963 30.6224 28.3948C30.9977 28.8806 31.0513 29.2584 31.8555 29.6903C33.0886 30.338 33.7856 31.2016 33.8928 32.0113C33.3031 31.7414 32.9814 31.3096 32.8206 30.9857C31.4266 30.8778 30.5152 29.6903 29.9791 29.2045C29.2821 28.5028 28.3707 27.909 27.352 27.3153C26.7087 26.9374 27.0304 26.5596 26.5478 26.1817C26.0117 25.8039 25.1003 25.642 24.6178 25.2101C24.1352 24.7783 23.9744 24.5624 23.8672 24.1306C23.7063 23.6448 23.1702 23.4289 22.7949 22.9971L23.0094 23.3209Z" fill="#642917"/>
<path d="M19.2564 24.2924C19.9533 24.2924 21.2401 25.4799 21.7762 25.8037C22.6876 26.3975 22.6876 27.1532 23.1701 27.8009C23.6526 28.4486 25.1002 29.0424 25.9044 29.6361C26.7622 30.2839 27.3519 30.7157 27.3519 31.4714C27.4592 31.0935 25.6899 30.1219 25.1002 29.7981C24.2424 29.3123 22.5268 28.8265 22.3659 28.1787C21.5617 28.0708 21.7226 27.4231 21.6154 27.1532C21.4009 26.6134 20.972 26.4515 20.275 26.0736C19.6317 25.8037 17.3263 24.2384 19.2564 24.2924Z" fill="#803018"/>
<path d="M35.6622 23.8065C37.9139 24.886 38.2356 26.3974 40.4873 27.4769C41.1307 27.8008 41.2379 27.9627 41.6668 28.3406C42.0421 28.7184 42.8999 28.9343 43.3288 29.3121C43.6505 29.582 43.6505 29.9599 44.0794 30.2837C44.4011 30.5536 44.9372 30.7156 44.9908 30.9854C45.2589 30.9854 45.8486 30.9315 46.1167 30.8775C45.6342 30.2837 44.0794 29.7979 43.4897 29.2042C42.8463 28.5565 42.6855 27.8008 41.8277 27.1531C41.6668 27.0451 41.1307 26.9911 40.9162 26.8292C40.7018 26.6673 40.8626 26.3974 40.7554 26.2354C40.4873 25.8576 39.844 25.5337 39.3615 25.2099C38.45 24.5621 37.485 23.9144 35.7158 23.6445C35.3941 23.7525 35.3405 23.6985 35.6622 23.8065Z" fill="#7A2E17"/>
<path d="M43.9186 25.858C43.9722 25.8041 43.8114 25.6961 44.0258 25.6961C44.5084 26.2898 44.9373 26.9376 45.4734 27.4773C46.0631 28.0171 46.6529 28.1791 47.4035 28.5569C48.0468 28.8808 48.3149 29.4205 48.7974 29.9063C49.0655 30.1222 49.1727 30.2302 49.4407 30.3381C49.6552 30.4461 49.9769 30.2842 50.1913 30.5541C50.1913 30.5541 50.2986 30.3921 50.2986 30.4461C49.816 29.9063 49.1191 29.6364 48.6366 29.0967C48.154 28.5569 47.5643 28.1251 46.9209 27.6393C46.224 27.0455 45.0445 24.7245 43.7042 24.9944C43.5433 25.5342 43.865 25.7501 44.1867 26.1279L43.9186 25.858Z" fill="#803018"/>
<path d="M52.9255 29.5826C52.7646 29.2048 51.8532 28.719 51.5315 28.2332C51.3171 27.8553 51.2099 27.6934 50.8882 27.3695C50.5665 26.9917 50.2448 26.8837 50.084 26.3979C51.4779 27.2076 52.7646 28.1792 52.9255 29.5826Z" fill="#732F1B"/>
<path d="M15.8789 26.1275C16.5758 26.6133 17.38 27.423 17.8089 28.0707C18.2378 28.7724 18.5595 29.5821 18.9884 30.2298C18.774 29.852 18.1842 29.744 17.8089 29.4741C17.4336 29.1503 17.2192 28.7185 17.0047 28.3406C16.5222 27.477 15.718 26.9372 15.718 26.0196C15.8789 25.9656 15.8252 26.0736 15.8789 26.1275Z" fill="#803018"/>
</g>
</g>
<defs>
<filter id="filter0_d_430_724" x="0" y="0" width="68" height="68" filterUnits="userSpaceOnUse" color-interpolation-filters="sRGB">
<feFlood flood-opacity="0" result="BackgroundImageFix"/>
<feColorMatrix in="SourceAlpha" type="matrix" values="0 0 0 0 0 0 0 0 0 0 0 0 0 0 0 0 0 0 127 0" result="hardAlpha"/>
<feOffset dy="4"/>
<feGaussianBlur stdDeviation="2"/>
<feComposite in2="hardAlpha" operator="out"/>
<feColorMatrix type="matrix" values="0 0 0 0 0 0 0 0 0 0 0 0 0 0 0 0 0 0 0.25 0"/>
<feBlend mode="normal" in2="BackgroundImageFix" result="effect1_dropShadow_430_724"/>
<feBlend mode="normal" in="SourceGraphic" in2="effect1_dropShadow_430_724" result="shape"/>
</filter>
<linearGradient id="paint0_linear_430_724" x1="64" y1="60" x2="-15.9676" y2="53.812" gradientUnits="userSpaceOnUse">
<stop stop-color="#92A3FD"/>
<stop offset="1" stop-color="#9DCEFF"/>
</linearGradient>
<clipPath id="clip0_430_724">
<rect width="46" height="19" fill="white" transform="translate(11 21)"/>
</clipPath>
</defs>
</svg>
