<svg width="24" height="24" viewBox="0 0 24 24" fill="none" xmlns="http://www.w3.org/2000/svg">
<path fill-rule="evenodd" clip-rule="evenodd" d="M11.9595 6.14844C12.5676 6.14844 13.0605 6.60029 13.0605 7.15768V11.5311H17.8315C18.4396 11.5311 18.9325 11.9829 18.9325 12.5403C18.9325 13.0977 18.4396 13.5496 17.8315 13.5496H13.0605V17.923C13.0605 18.4804 12.5676 18.9322 11.9595 18.9322C11.3515 18.9322 10.8585 18.4804 10.8585 17.923V13.5496H6.08757C5.4795 13.5496 4.98657 13.0977 4.98657 12.5403C4.98657 11.9829 5.4795 11.5311 6.08757 11.5311H10.8585V7.15768C10.8585 6.60029 11.3515 6.14844 11.9595 6.14844Z" fill="#ADA4A5"/>
<path fill-rule="evenodd" clip-rule="evenodd" d="M12.25 23C18.1863 23 23 18.1875 23 12.25C23 6.31368 18.1863 1.5 12.25 1.5C6.31368 1.5 1.5 6.31368 1.5 12.25C1.5 18.1875 6.31368 23 12.25 23Z" stroke="#ADA4A5" stroke-width="1.2" stroke-linecap="round" stroke-linejoin="round"/>
</svg>
