<svg width="18" height="18" viewBox="0 0 18 18" fill="none" xmlns="http://www.w3.org/2000/svg">
<path d="M13.5 4.78125V13.2188C13.5 13.5171 13.3815 13.8033 13.1705 14.0142C12.9595 14.2252 12.6734 14.3438 12.375 14.3438H9.5625C8.96576 14.3438 8.39347 14.1067 7.97151 13.6847C7.54955 13.2628 7.3125 12.6905 7.3125 12.0938V11.9972C7.3125 11.8495 7.2834 11.7032 7.22686 11.5667C7.17032 11.4302 7.08745 11.3062 6.98298 11.2017L5.95452 10.1733C5.85005 10.0688 5.76718 9.94478 5.71064 9.80829C5.6541 9.67179 5.625 9.5255 5.625 9.37775V5.90625C5.625 5.01114 5.98058 4.1527 6.61351 3.51976C7.24645 2.88683 8.10489 2.53125 9 2.53125H11.25C11.8467 2.53125 12.419 2.7683 12.841 3.19026C13.2629 3.61222 13.5 4.18451 13.5 4.78125Z" fill="#FC9495"/>
<path d="M9 3.65625H11.25C11.5484 3.65625 11.8345 3.77478 12.0455 3.98575C12.2565 4.19673 12.375 4.48288 12.375 4.78125V12.6562C12.375 12.8054 12.3157 12.9485 12.2102 13.054C12.1048 13.1595 11.9617 13.2188 11.8125 13.2188H9.5625C9.26413 13.2188 8.97798 13.1002 8.767 12.8892C8.55603 12.6783 8.4375 12.3921 8.4375 12.0938V11.4347C8.4375 11.287 8.4084 11.1407 8.35186 11.0042C8.29532 10.8677 8.21245 10.7437 8.10798 10.6392L7.07952 9.61077C6.97505 9.5063 6.89218 9.38228 6.83564 9.24579C6.7791 9.10929 6.75 8.963 6.75 8.81525V5.90625C6.75 5.30951 6.98705 4.73722 7.40901 4.31526C7.83097 3.8933 8.40326 3.65625 9 3.65625Z" fill="#E74444"/>
<path d="M10.4062 6.46875C10.8722 6.46875 11.25 6.09099 11.25 5.625C11.25 5.15901 10.8722 4.78125 10.4062 4.78125C9.94026 4.78125 9.5625 5.15901 9.5625 5.625C9.5625 6.09099 9.94026 6.46875 10.4062 6.46875Z" fill="#FAE8D8"/>
<path d="M5.90625 14.9062L4.21875 14.3438L2.53125 14.9062L3.375 12.9375V12.0938H5.0625V12.9375L5.90625 14.9062Z" fill="#606669"/>
<path d="M4.21875 1.6875C4.21875 1.6875 7.59375 2.8125 7.59375 5.625C7.59375 8.23616 6.86647 10.12 5.41195 11.5017C5.30151 11.6067 5.21357 11.733 5.1535 11.8731C5.09342 12.0131 5.06246 12.1639 5.0625 12.3163V12.9375H3.375V12.3163C3.37504 12.1639 3.34408 12.0131 3.284 11.8731C3.22393 11.733 3.13599 11.6067 3.02555 11.5017C1.57103 10.12 0.84375 8.23616 0.84375 5.625C0.84375 2.8125 4.21875 1.6875 4.21875 1.6875Z" fill="#99A2A7"/>
<path d="M4.5 5.625H6.1875V6.46875C6.1875 6.69253 6.09861 6.90714 5.94037 7.06537C5.78214 7.22361 5.56753 7.3125 5.34375 7.3125C5.11997 7.3125 4.90536 7.22361 4.74713 7.06537C4.58889 6.90714 4.5 6.69253 4.5 6.46875V5.625Z" fill="#606669"/>
<path d="M17.1562 13.7812C17.1562 12.9375 16.3125 11.8125 14.3438 11.8125C12.375 11.8125 12.375 13.7812 12.375 13.7812C12.375 13.7812 12.375 15.75 14.3438 15.75C16.3125 15.75 17.1562 14.625 17.1562 13.7812Z" fill="#DEB89A"/>
<path d="M11.8125 11.5312C10.9688 11.5312 9.84375 12.375 9.84375 14.3438C9.84375 16.3125 11.8125 16.3125 11.8125 16.3125C11.8125 16.3125 13.7812 16.3125 13.7812 14.3438C13.7812 12.375 12.6562 11.5312 11.8125 11.5312Z" fill="#F5CBAA"/>
<path d="M2.81275 4.78125V11.2901C1.50037 9.92953 0.844004 8.10527 0.844004 5.625C0.843317 5.34031 0.879356 5.05672 0.95123 4.78125H2.81275Z" fill="#606669"/>
<path d="M7.59375 5.625H0.84375C0.84375 2.8125 4.21875 1.6875 4.21875 1.6875C4.21875 1.6875 7.59375 2.8125 7.59375 5.625Z" fill="#757C80"/>
<path d="M3.9375 4.21875C4.24816 4.21875 4.5 3.96691 4.5 3.65625C4.5 3.34559 4.24816 3.09375 3.9375 3.09375C3.62684 3.09375 3.375 3.34559 3.375 3.65625C3.375 3.96691 3.62684 4.21875 3.9375 4.21875Z" fill="#606669"/>
<path d="M10.4063 6.75C10.6288 6.75 10.8463 6.68402 11.0313 6.5604C11.2163 6.43679 11.3605 6.26109 11.4456 6.05552C11.5308 5.84995 11.5531 5.62375 11.5096 5.40552C11.4662 5.1873 11.3591 4.98684 11.2018 4.82951C11.0444 4.67217 10.844 4.56503 10.6257 4.52162C10.4075 4.47821 10.1813 4.50049 9.97574 4.58564C9.77017 4.67078 9.59447 4.81498 9.47085 4.99998C9.34723 5.18499 9.28125 5.4025 9.28125 5.625C9.28158 5.92327 9.40022 6.20922 9.61113 6.42013C9.82203 6.63103 10.108 6.74967 10.4063 6.75ZM10.4063 5.0625C10.5175 5.0625 10.6263 5.09549 10.7188 5.1573C10.8113 5.21911 10.8834 5.30696 10.9259 5.40974C10.9685 5.51252 10.9797 5.62562 10.958 5.73474C10.9362 5.84385 10.8827 5.94408 10.804 6.02275C10.7253 6.10142 10.6251 6.15499 10.516 6.17669C10.4069 6.1984 10.2938 6.18726 10.191 6.14468C10.0882 6.10211 10.0004 6.03001 9.93855 5.93751C9.87674 5.84501 9.84375 5.73625 9.84375 5.625C9.84393 5.47587 9.90325 5.3329 10.0087 5.22745C10.1142 5.122 10.2571 5.06268 10.4063 5.0625Z" fill="black"/>
<path d="M16.67 12.2658C16.2738 11.9307 15.5489 11.5313 14.3438 11.5313C14.1548 11.5304 13.9664 11.549 13.7812 11.5866V4.78126C13.7805 4.11016 13.5136 3.46677 13.039 2.99223C12.5645 2.51769 11.9211 2.25076 11.25 2.25001H9C8.19721 2.24963 7.41672 2.51407 6.7795 3.00235C6.56307 2.77392 6.32736 2.56455 6.075 2.37657C5.53568 1.97344 4.94027 1.6514 4.3077 1.42067C4.24996 1.40144 4.18754 1.40144 4.1298 1.42067C3.49723 1.6514 2.90182 1.97344 2.3625 2.37657C1.18494 3.25977 0.5625 4.38304 0.5625 5.62501C0.5625 8.26609 1.30479 10.2551 2.83184 11.7057C2.91445 11.7845 2.98025 11.8792 3.02526 11.9842C3.07028 12.0891 3.09357 12.202 3.09375 12.3162V12.8797L2.27271 14.7955C2.25135 14.8453 2.24485 14.9003 2.25399 14.9537C2.26313 15.0072 2.28753 15.0568 2.32425 15.0967C2.36097 15.1366 2.40844 15.1651 2.46095 15.1786C2.51345 15.1922 2.56876 15.1903 2.6202 15.1731L4.21875 14.6402L5.8173 15.1731C5.86874 15.1903 5.92405 15.1922 5.97655 15.1786C6.02906 15.1651 6.07653 15.1366 6.11325 15.0967C6.14997 15.0568 6.17437 15.0072 6.18351 14.9537C6.19266 14.9003 6.18615 14.8453 6.16479 14.7955L5.34375 12.8797V12.3162C5.34393 12.202 5.36723 12.0891 5.41224 11.9841C5.45726 11.8792 5.52305 11.7845 5.60566 11.7056C5.85994 11.4642 6.09534 11.2037 6.30981 10.9264L6.78421 11.4007C6.94182 11.5593 7.03059 11.7735 7.03125 11.9971V12.0938C7.032 12.7649 7.29893 13.4083 7.77347 13.8828C8.24801 14.3573 8.8914 14.6243 9.5625 14.625H9.57568C9.66709 15.5956 10.2264 16.08 10.7023 16.318C11.0488 16.4871 11.4271 16.5811 11.8125 16.5938C12.1979 16.5811 12.5762 16.4871 12.9227 16.318C13.1376 16.2119 13.3327 16.0697 13.4995 15.8977C13.7715 15.9892 14.0568 16.0343 14.3438 16.0313C15.5489 16.0313 16.2738 15.6319 16.67 15.2967C17.1577 14.884 17.4375 14.3316 17.4375 13.7813C17.4375 13.2309 17.1577 12.6785 16.67 12.2658ZM9 2.81251H11.25C11.772 2.8131 12.2724 3.02071 12.6415 3.38979C13.0106 3.75888 13.2182 4.25929 13.2188 4.78126V11.7857C13.1944 11.7985 13.1703 11.8118 13.1466 11.8256C13.0002 11.6851 12.8352 11.5652 12.6562 11.4695V4.78126C12.6558 4.40843 12.5075 4.05099 12.2439 3.78735C11.9803 3.52372 11.6228 3.37543 11.25 3.37501H9C8.43512 3.37588 7.88664 3.565 7.44128 3.91248C7.35196 3.74643 7.25117 3.58682 7.13964 3.43481C7.67558 3.03057 8.3287 2.8121 9 2.81251ZM8.30696 10.4405L7.27829 9.4118C7.2578 9.39112 7.23841 9.36938 7.22018 9.34669C7.65865 8.28381 7.875 7.0494 7.875 5.62501C7.87555 5.22468 7.80869 4.82712 7.67721 4.449C8.03964 4.12067 8.51096 3.93843 9 3.93751H11.25C11.4737 3.93777 11.6882 4.02675 11.8463 4.18493C12.0045 4.3431 12.0935 4.55756 12.0938 4.78126V11.2746C12.0009 11.2585 11.9068 11.2503 11.8125 11.25C11.2621 11.25 10.7098 11.5298 10.297 12.0175C10.0706 12.2901 9.8962 12.6019 9.78247 12.9375H9.5625C9.3388 12.9373 9.12434 12.8483 8.96617 12.6901C8.80799 12.5319 8.71901 12.3175 8.71875 12.0938V11.4346C8.71925 11.2499 8.68312 11.0669 8.61243 10.8963C8.54175 10.7256 8.43792 10.5707 8.30696 10.4405ZM2.68794 2.83564C3.15815 2.48572 3.67305 2.20027 4.21896 1.9869C4.7602 2.19807 5.27088 2.48045 5.7375 2.82657C6.69023 3.54116 7.21463 4.38684 7.29988 5.34376H1.13762C1.22252 4.39103 1.74284 3.54844 2.68794 2.83564ZM4.78125 5.90626H5.90625V6.46876C5.90625 6.61794 5.84699 6.76102 5.7415 6.86651C5.63601 6.972 5.49293 7.03126 5.34375 7.03126C5.19457 7.03126 5.05149 6.972 4.946 6.86651C4.84051 6.76102 4.78125 6.61794 4.78125 6.46876V5.90626ZM1.1282 5.90626H2.53125V10.531C2.16131 10.0418 1.86525 9.50095 1.65255 8.92569C1.32402 8.04924 1.15204 7.05882 1.1282 5.90626ZM4.3077 14.0769C4.24996 14.0577 4.18754 14.0577 4.1298 14.0769L3.03645 14.4414L3.56048 13.2188H4.87702L5.40102 14.4414L4.3077 14.0769ZM5.21824 11.2978C5.08042 11.4292 4.97064 11.5873 4.89554 11.7623C4.82043 11.9373 4.78156 12.1258 4.78125 12.3162V12.6563H3.65625V12.3162C3.65594 12.1258 3.61706 11.9373 3.54195 11.7623C3.46684 11.5873 3.35706 11.4293 3.21922 11.2978C3.17668 11.2574 3.13486 11.2166 3.09375 11.1754V5.90626H4.21875V6.46876C4.21875 6.76713 4.33728 7.05328 4.54825 7.26426C4.75923 7.47523 5.04538 7.59376 5.34375 7.59376C5.64212 7.59376 5.92827 7.47523 6.13925 7.26426C6.35022 7.05328 6.46875 6.76713 6.46875 6.46876V5.90626H7.3093C7.28546 7.05882 7.11348 8.04924 6.78495 8.92569C6.45345 9.82704 5.91714 10.6391 5.21828 11.2978H5.21824ZM7.59375 12.0938V11.9971C7.59425 11.8124 7.55812 11.6294 7.48743 11.4588C7.41675 11.2881 7.31292 11.1332 7.18196 11.003L6.63933 10.4603C6.75675 10.2782 6.86573 10.0899 6.96628 9.89523L7.90928 10.8382C8.06687 10.9968 8.1556 11.211 8.15625 11.4346V12.0938C8.15667 12.4666 8.30496 12.824 8.56859 13.0877C8.83223 13.3513 9.18967 13.4996 9.5625 13.5H9.63527C9.6018 13.686 9.58009 13.8738 9.57027 14.0625H9.5625C9.04053 14.0619 8.54012 13.8543 8.17103 13.4852C7.80195 13.1161 7.59434 12.6157 7.59375 12.0938ZM12.6868 15.8069C12.4141 15.9416 12.1164 16.018 11.8125 16.0313C11.7436 16.0313 10.125 16.0121 10.125 14.3438C10.125 12.4997 11.1601 11.8125 11.8125 11.8125C12.4649 11.8125 13.5 12.4997 13.5 14.3438C13.5 15.0381 13.2264 15.5304 12.6868 15.8069ZM14.3438 15.4688C14.1735 15.4699 14.0037 15.4508 13.838 15.4118C13.9749 15.1305 14.0625 14.78 14.0625 14.3438C14.0625 13.3573 13.7949 12.6927 13.5141 12.2668C13.7466 12.152 14.0244 12.0938 14.3438 12.0938C16.1878 12.0938 16.875 13.1288 16.875 13.7813C16.875 14.4337 16.1878 15.4688 14.3438 15.4688Z" fill="black"/>
<path d="M3.9375 4.5C4.10438 4.5 4.26751 4.45051 4.40626 4.3578C4.54501 4.26509 4.65316 4.13331 4.71702 3.97914C4.78088 3.82496 4.79759 3.65531 4.76503 3.49164C4.73248 3.32797 4.65212 3.17763 4.53412 3.05963C4.41612 2.94163 4.26578 2.86127 4.10211 2.82871C3.93843 2.79616 3.76878 2.81287 3.61461 2.87673C3.46044 2.94059 3.32866 3.04873 3.23595 3.18749C3.14324 3.32624 3.09375 3.48937 3.09375 3.65625C3.09401 3.87994 3.18299 4.0944 3.34117 4.25258C3.49934 4.41076 3.7138 4.49974 3.9375 4.5ZM3.9375 3.375C3.99312 3.375 4.0475 3.39149 4.09375 3.4224C4.14 3.4533 4.17605 3.49723 4.19734 3.54862C4.21863 3.60001 4.2242 3.65656 4.21334 3.71112C4.20249 3.76567 4.17571 3.81579 4.13637 3.85512C4.09704 3.89446 4.04692 3.92124 3.99237 3.93209C3.93781 3.94295 3.88126 3.93738 3.82987 3.91609C3.77848 3.8948 3.73455 3.85875 3.70365 3.8125C3.67274 3.76625 3.65625 3.71187 3.65625 3.65625C3.65633 3.58168 3.68599 3.51019 3.73872 3.45747C3.79144 3.40474 3.86293 3.37508 3.9375 3.375Z" fill="black"/>
</svg>
