<svg width="60" height="60" viewBox="0 0 60 60" fill="none" xmlns="http://www.w3.org/2000/svg">
<rect opacity="0.2" width="60" height="60" rx="12" fill="url(#paint0_linear_430_722)"/>
<g clip-path="url(#clip0_430_722)">
<path d="M25.2786 43.7482C28.125 44.3933 31.062 44.4031 33.9588 44.0219C38.2738 43.4549 40.4061 38.5577 41.5628 34.9214C42.0155 33.5139 44.4294 19.2523 42.9609 18.5485C41.7539 17.9718 38.7264 19.0861 37.3987 19.1937C35.2764 19.3696 33.134 19.3892 31.0017 19.3403C25.9927 19.2425 21.034 18.5583 16.0853 19.1643C15.6629 23.7097 16.9705 32.9762 18.8011 37.1599C20.0885 39.672 21.6677 42.5947 24.6248 43.5624C24.836 43.6309 25.0573 43.6895 25.2786 43.7482Z" fill="#F5D4A2"/>
<path d="M34.5422 42.4283C31.6454 42.8096 28.7084 42.7998 25.8619 42.1546C25.6306 42.1058 25.4093 42.0471 25.1981 41.9689C22.241 41.0012 20.6719 38.0785 19.3744 35.5664C17.7449 31.8128 16.5279 23.9636 16.5983 19.1055C16.4273 19.125 16.2563 19.1446 16.0853 19.1641C15.6629 23.7094 16.9705 32.976 18.8011 37.1597C20.0885 39.6718 21.6677 42.5945 24.6248 43.5622C24.836 43.6306 25.0573 43.6893 25.2886 43.7479C28.1351 44.3931 31.0721 44.4029 33.9689 44.0216C38.0525 43.484 40.1849 39.0658 41.3818 35.5077C40.0943 38.6748 38.0324 41.9689 34.5422 42.4283Z" fill="#CC9C62"/>
<path d="M35.0652 42.7611C32.0075 43.1521 28.9196 43.1521 25.9223 42.4776C25.6809 42.4288 25.4495 42.3603 25.2282 42.2919C19.4347 40.4249 18.0366 33.2599 17.1113 28.2454C16.5581 25.2543 16.2261 22.2143 16.1356 19.1743C16.025 20.4255 15.9847 21.6767 16.035 22.9279C14.7073 22.4 13.1181 22.8594 12.0821 23.8174C8.63217 27.0138 9.90956 32.1847 12.9673 35.1562C13.7317 35.8991 14.6168 36.5345 15.5925 36.9842C16.0954 37.209 16.6083 37.3947 17.1515 37.5218C17.5438 37.6097 18.4892 37.512 18.791 37.6879C19.6761 38.206 20.4405 40.2099 21.1446 41.0505C22.07 42.1551 23.2267 43.1032 24.6348 43.5626C24.846 43.6311 25.0673 43.6897 25.2987 43.7484C28.1451 44.3935 31.0821 44.4033 33.9789 44.0221C35.8598 43.7777 37.3283 42.7025 38.4749 41.2753C37.4993 42.0475 36.3728 42.5949 35.0652 42.7611ZM17.6041 33.7096C17.6041 33.8464 17.6041 33.9735 17.5941 34.1103C17.5438 34.8923 17.5941 35.039 16.6888 35.0487C16.1457 35.0585 15.5824 34.8239 15.1298 34.5502C13.2087 33.4163 11.8407 30.6012 12.062 28.4409C12.2531 26.5544 13.7317 24.5114 15.9043 24.9122C16.5983 25.0392 16.5782 27.9717 16.6486 28.48C16.8799 30.1124 17.584 32.0283 17.6041 33.7096Z" fill="#CC9C62"/>
<path d="M42.971 18.7341C42.9106 18.177 42.5787 17.61 41.8746 17.0822C38.4347 14.4918 14.8381 13.1918 16.1859 20.1124C16.9604 24.0419 28.9397 23.2599 31.6052 23.1231C34.5422 22.9764 38.2134 22.8494 40.899 21.5102C40.899 21.5102 40.899 21.5102 40.909 21.5102C42.1261 20.8944 43.0917 19.8387 42.971 18.7341Z" fill="#F5D4A2"/>
<path d="M41.8141 18.6947C41.7638 18.2451 41.4621 17.7759 40.8183 17.3458C37.6701 15.2344 16.1153 14.1592 17.3525 19.8188C18.0566 23.0348 28.9999 22.3896 31.434 22.2821C34.1196 22.1648 37.4689 22.0573 39.9232 20.9625C39.9232 20.9625 39.9232 20.9625 39.9332 20.9625C41.0296 20.464 41.9147 19.6038 41.8141 18.6947Z" fill="#CC9C62"/>
<path d="M18.2881 21.0119C21.1346 22.8495 29.3622 22.3706 31.4241 22.2826C34.1097 22.1653 37.4591 22.0578 39.9133 20.963C39.9133 20.963 39.9133 20.963 39.9233 20.963C40.1547 20.8555 40.386 20.7382 40.5872 20.6013C37.3887 18.8907 22.3114 17.9817 18.2881 21.0119Z" fill="#45301C"/>
<path d="M27.3706 19.0567C32.279 19.262 36.8857 20.171 38.8973 21.3538C39.2494 21.2365 39.5913 21.1094 39.9233 20.9628C39.9233 20.9628 39.9233 20.9628 39.9333 20.9628C40.1647 20.8553 40.396 20.738 40.5972 20.6011C38.7163 19.6041 32.7819 18.8808 27.3706 19.0567Z" fill="#362512"/>
<path d="M40.1545 21.5591C40.0137 21.6764 38.8671 21.9012 38.6156 21.9794C37.8009 22.2335 36.9359 22.3997 36.091 22.5463C34.9846 22.7321 33.8681 22.8396 32.7617 22.9178C32.1884 22.9569 31.6151 22.9862 31.0418 23.0253C30.7702 23.0449 30.4986 23.0644 30.227 23.084C29.9655 23.1133 29.523 23.2697 29.2916 23.1524C29.2816 23.1524 29.2715 23.1524 29.2715 23.1622C29.0703 23.7878 31.4642 23.5727 31.776 23.5629C34.5118 23.4554 37.992 23.3968 40.1545 21.5591Z" fill="#FDFFEB"/>
<path d="M26.7672 23.1917C26.043 23.1037 25.2886 23.1331 24.5644 23.0842C23.8302 23.0353 23.106 22.9082 22.3717 22.8789C22.2711 22.8789 22.2611 23.0158 22.3516 23.0451C23.0557 23.2601 23.8302 23.3286 24.5644 23.3774C25.2987 23.4263 26.0631 23.4654 26.7873 23.3286C26.8677 23.309 26.8376 23.2015 26.7672 23.1917Z" fill="#FDFFEB"/>
<path d="M33.5665 19.0761C32.9429 18.9197 32.259 18.9491 31.6253 18.91C30.9212 18.8709 30.2172 18.8415 29.503 18.8318C28.1351 18.8024 26.7672 18.822 25.4093 18.9491C23.0155 19.1739 20.4908 19.7115 18.4188 20.9431C18.3082 21.0116 18.4088 21.168 18.5194 21.1093C19.9578 20.4544 21.4162 19.9656 22.935 19.6333C22.8847 19.6626 22.8545 19.7213 22.8545 19.7799C22.8545 19.8777 22.935 19.9656 23.0456 19.9656C23.1462 19.9656 23.2367 19.8777 23.2367 19.7799C23.2367 19.6919 23.1764 19.6235 23.0959 19.604C23.116 19.604 23.1362 19.5942 23.1462 19.5942C23.1764 19.6724 23.2669 19.731 23.3574 19.6919C23.3977 19.6724 23.4379 19.6626 23.4681 19.6333C23.4983 19.604 23.5184 19.5649 23.5083 19.5258C24.2124 19.3889 24.9366 19.2912 25.6708 19.2227C26.9482 19.1055 28.2256 19.0859 29.503 19.1055C30.1769 19.1152 30.8508 19.1446 31.5247 19.1739C32.1886 19.2032 32.8826 19.3107 33.5464 19.2227C33.6269 19.213 33.6571 19.0957 33.5665 19.0761Z" fill="#87602D"/>
<path d="M35.4475 19.4085C35.1055 19.301 34.7434 19.2619 34.3914 19.2228C34.331 19.213 34.3109 19.3205 34.3813 19.3303C34.7334 19.3987 35.0854 19.4769 35.4475 19.4769C35.4777 19.4769 35.4777 19.4183 35.4475 19.4085Z" fill="#543B22"/>
<path d="M36.3125 20.6013C35.1156 20.2494 33.7476 20.2397 32.5205 20.181C31.1928 20.1126 29.8652 20.1126 28.5375 20.1615C27.2903 20.2103 26.0531 20.3179 24.8159 20.484C23.7799 20.6209 22.6232 20.7577 21.8186 21.4713C21.7783 21.5104 21.8286 21.5788 21.8789 21.5495C22.925 20.9728 24.0414 20.8066 25.2283 20.6698C26.4554 20.5329 27.6825 20.4352 28.9197 20.3961C30.1166 20.357 31.3236 20.3667 32.5205 20.4254C33.7678 20.484 35.0451 20.7382 36.3024 20.7186C36.3728 20.7284 36.3829 20.6209 36.3125 20.6013Z" fill="#87602D"/>
<path d="M32.973 21.8425C32.802 21.5004 32.0979 21.5395 31.7761 21.5102C30.4685 21.3636 29.0201 21.3049 27.7326 21.6079C27.6924 21.6177 27.7025 21.6764 27.7427 21.6764C28.5373 21.6568 29.3319 21.5786 30.1265 21.5982C30.4987 21.6079 30.8608 21.6275 31.2329 21.6666C31.4642 21.6861 31.7056 21.7155 31.937 21.7448C32.0577 21.7643 32.1784 21.7839 32.2991 21.8034C32.4801 21.8034 32.6109 21.8816 32.7014 22.0478C32.5505 22.0478 32.5505 22.2824 32.7014 22.2726C32.9227 22.2531 33.0736 22.0576 32.973 21.8425Z" fill="#87602D"/>
<path d="M37.3684 20.6793C37.2377 20.65 37.0264 20.6598 36.9862 20.8064C36.956 20.8553 36.9359 20.9139 36.9661 20.9628C36.9963 21.0117 37.0365 21.0214 37.0868 21.0214C37.1069 21.0312 37.127 21.0312 37.1572 21.0312C37.1773 21.0312 37.1974 21.0312 37.2075 21.0312C37.2176 21.0312 37.2377 21.0312 37.2477 21.0312H37.2578C37.2578 21.0312 37.2578 21.0312 37.2678 21.0312C37.3684 21.0508 37.4791 21.0019 37.4992 20.9041C37.5294 20.8064 37.4791 20.7086 37.3684 20.6793Z" fill="#87602D"/>
<path d="M35.2763 19.4088C35.2763 19.399 35.2763 19.399 35.2763 19.399C35.2763 19.3404 35.2461 19.272 35.1857 19.2426C35.0952 19.2035 34.9645 19.2035 34.9242 19.3111C34.894 19.399 34.9142 19.487 34.9846 19.5457C34.9846 19.5457 34.9846 19.5457 34.9846 19.5554C34.9846 19.5554 34.9946 19.5652 34.9946 19.575C34.9946 19.5848 35.0047 19.5945 35.0047 19.5945C35.0047 19.5945 35.0147 19.6141 35.0147 19.6239C35.0147 19.6434 35.0147 19.6532 35.0248 19.6727C35.0349 19.7021 35.055 19.7216 35.0952 19.7216C35.1254 19.7216 35.1656 19.7118 35.1958 19.6825C35.1958 19.6825 35.226 19.6532 35.2059 19.6727C35.236 19.6434 35.2561 19.6336 35.2662 19.5945C35.2763 19.5652 35.2863 19.5261 35.2863 19.487C35.2863 19.4479 35.2763 19.4284 35.2763 19.4088Z" fill="#543B22"/>
<path d="M35.2966 19.917C35.2865 19.8388 35.2161 19.7704 35.1357 19.7606C35.0652 19.7508 34.9848 19.7802 34.9445 19.8486C34.9043 19.917 34.9144 20.0148 34.9747 20.0734C34.9747 20.0734 34.9747 20.0734 34.9848 20.0832C35.0451 20.1418 35.1155 20.1418 35.196 20.1125H35.2061C35.2765 20.0636 35.3066 19.9854 35.2966 19.917Z" fill="#422D16"/>
<path d="M36.926 19.8485C36.8556 19.8485 36.7953 19.8876 36.7651 19.9364C36.7249 20.0049 36.7349 20.1026 36.7953 20.1613C36.8154 20.1808 36.8355 20.1906 36.8556 20.2004C36.8556 20.2004 36.8556 20.2004 36.8657 20.2101C36.916 20.2492 36.9562 20.2492 37.0065 20.2101C37.0065 20.2101 37.0065 20.2101 37.0166 20.2004C37.0367 20.1906 37.0568 20.171 37.0769 20.1613C37.1775 20.0537 37.087 19.8387 36.926 19.8485Z" fill="#543B22"/>
<path d="M38.7868 20.5426C38.7767 20.4253 38.6057 20.4253 38.5956 20.5426C38.5956 20.5621 38.5956 20.5719 38.5856 20.5914C38.5755 20.6403 38.6359 20.6892 38.6862 20.6892C38.7365 20.6892 38.7968 20.6403 38.7868 20.5914C38.7868 20.5719 38.7868 20.5523 38.7868 20.5426Z" fill="#543B22"/>
<path d="M24.5744 19.4278C24.4638 19.3789 24.333 19.4571 24.333 19.5842V19.594V19.5842C24.333 19.6135 24.3431 19.6331 24.3531 19.6624C24.4135 19.7699 24.5643 19.7699 24.6348 19.6819C24.7152 19.594 24.675 19.4669 24.5744 19.4278Z" fill="#87602D"/>
<path d="M25.4596 21.3047C25.4093 21.2461 25.3389 21.2461 25.2685 21.2461C25.1679 21.2461 25.0774 21.3341 25.0774 21.4318C25.0774 21.5296 25.1579 21.6175 25.2685 21.6175C25.3389 21.6175 25.3993 21.6078 25.4596 21.5589C25.52 21.4807 25.52 21.3732 25.4596 21.3047Z" fill="#87602D"/>
<path d="M26.4352 20.8848C26.395 20.8653 26.3447 20.8457 26.2944 20.8457C26.2844 20.8457 26.2743 20.8457 26.2643 20.8457C26.2341 20.8457 26.2341 20.8457 26.2643 20.8457C26.2441 20.8457 26.2341 20.8457 26.214 20.8555C26.1938 20.8653 26.1737 20.8653 26.1637 20.875C26.1033 20.9044 26.0731 20.9826 26.0832 21.0412C26.0933 21.1096 26.1436 21.1585 26.2039 21.178C26.224 21.1878 26.224 21.1878 26.1938 21.178C26.214 21.1878 26.224 21.1976 26.2441 21.1976C26.2643 21.1976 26.2743 21.2074 26.2944 21.2074C26.385 21.2367 26.4855 21.178 26.5157 21.0998C26.5459 21.0314 26.5157 20.9239 26.4352 20.8848Z" fill="#87602D"/>
<path d="M26.8376 21.5201C26.8275 21.5103 26.8275 21.5103 26.8175 21.5005C26.7873 21.4712 26.737 21.4712 26.7169 21.5005C26.7068 21.5103 26.7068 21.5103 26.6968 21.5201C26.6565 21.5592 26.6465 21.5885 26.6465 21.608C26.6565 21.6471 26.7068 21.6667 26.7672 21.6667C26.8275 21.6667 26.8778 21.6471 26.8879 21.608C26.8879 21.5885 26.8778 21.5592 26.8376 21.5201Z" fill="#87602D"/>
<path d="M27.4814 21.0312C27.3708 21.0312 27.3708 21.1974 27.4814 21.1974C27.5921 21.1876 27.5921 21.0312 27.4814 21.0312Z" fill="#87602D"/>
<path d="M39.5814 16.7497C38.3946 16.3587 37.0971 16.1632 35.87 15.9971C34.6931 15.8309 33.4258 15.6354 32.2389 15.7625C32.1886 15.7722 32.1685 15.8407 32.2289 15.8504C33.4359 16.0753 34.6831 16.085 35.8901 16.2708C37.1172 16.4565 38.304 16.7693 39.5211 17.0039C39.682 17.0234 39.7424 16.7986 39.5814 16.7497Z" fill="#FDFFEB"/>
<path d="M15.3107 23.182C13.7517 22.9181 12.2229 23.8565 11.3579 25.0588C10.4426 26.3295 9.95976 28.3822 10.7644 29.8094C10.8348 29.9267 10.9958 29.8582 11.0058 29.7409C11.0863 29.0665 11.046 28.3724 11.1165 27.6882C11.1969 26.9453 11.4283 26.2122 11.8406 25.5671C12.595 24.3745 13.8624 23.7392 15.2604 23.573C15.4717 23.5632 15.5723 23.2309 15.3107 23.182Z" fill="#F5D4A2"/>
<path d="M20.5511 22.5559C19.6258 22.3702 18.7507 22.2236 17.9661 21.6859C17.1816 21.1581 16.729 20.4348 16.387 19.5843C16.3669 19.5355 16.2764 19.5355 16.2764 19.5941C16.3568 21.51 18.6602 22.8198 20.3701 23.1815C20.7925 23.2597 20.9635 22.6341 20.5511 22.5559Z" fill="#CC9C62"/>
<path d="M42.2676 39.525C40.8896 39.613 39.3809 40.2777 38.9987 41.568C38.6164 42.8778 39.6122 44.2756 40.9097 44.8035C42.1972 45.3313 43.6757 45.1652 45.0336 44.8719C46.321 44.5884 48.5842 43.3763 47.8499 41.7244C47.1358 40.1311 43.8568 39.4273 42.2676 39.525Z" fill="#6E4115"/>
<path d="M43.1118 43.4155C44.3691 43.5914 45.8175 43.7674 46.9641 43.1027C48.151 42.4087 47.3061 40.8349 46.3908 40.2484C45.5761 39.7206 44.5501 39.6033 43.5745 39.6326C42.6391 39.6619 39.8127 39.7694 39.5612 40.9913C39.2494 42.4282 42.106 43.2786 43.1118 43.4155Z" fill="#915821"/>
<path d="M47.6782 42.2421C47.5373 42.1443 47.3764 42.0857 47.2155 42.027C47.1652 42.0075 47.125 41.9879 47.0747 41.9684C46.9338 41.8902 46.783 41.8413 46.622 41.8315C46.5718 41.8218 46.5315 41.812 46.4812 41.7924C46.3404 41.7338 46.2499 41.6751 46.089 41.6458C45.9783 41.6263 45.8576 41.636 45.7369 41.636C45.6062 41.6165 45.4754 41.5872 45.3346 41.5676C45.3145 41.5578 45.3044 41.5578 45.2843 41.5383C45.1334 41.4308 45.1737 41.3135 44.9323 41.2841C44.8619 41.2744 44.7311 41.2939 44.6607 41.3037C44.3992 41.3428 44.2282 41.3526 43.9667 41.2841C43.5945 41.1766 43.2525 41.0495 42.8603 41.0007C42.468 40.9518 42.0958 41.1668 41.7337 41.1082C41.4018 41.0593 41.2811 40.8247 40.9391 40.8247C40.6072 40.8149 40.2552 40.8638 39.9132 40.9127C39.883 40.854 39.8327 40.8149 39.7422 40.8149L39.5511 40.8345C39.4706 40.8443 39.4304 40.8931 39.4204 40.9518C39.2393 41.0789 39.1186 41.2841 39.4002 41.4405C39.5712 41.5383 39.8529 41.4405 40.0339 41.4308C40.4262 41.4112 40.8184 41.421 41.2107 41.4503C41.3918 41.4992 41.5628 41.5676 41.7539 41.6458C42.4278 41.9293 43.1117 41.6849 43.7756 41.939C43.9968 42.027 44.1276 42.0466 44.369 42.027C44.8216 41.9879 45.063 42.0661 45.4855 42.1932C45.7269 42.2714 45.9582 42.3007 46.2097 42.2714C46.8232 42.203 47.0143 42.3985 47.3664 42.8188C47.4669 42.9361 47.6882 42.8774 47.6983 42.7113C47.7083 42.6037 47.6882 42.506 47.658 42.4278C47.7486 42.4082 47.7687 42.3007 47.6782 42.2421Z" fill="#6E4115"/>
<path d="M46.2198 43.4057C46.1292 43.3959 46.0286 43.4253 45.9582 43.4644C45.9281 43.4839 45.8878 43.5035 45.8576 43.523C45.8174 43.5523 45.8074 43.5816 45.7772 43.6207C45.7369 43.6598 45.7772 43.7381 45.8375 43.7087C45.8979 43.6794 45.9783 43.6696 46.0387 43.6501C46.1091 43.6305 46.1896 43.6208 46.26 43.5914C46.3505 43.5621 46.3103 43.4057 46.2198 43.4057Z" fill="#593511"/>
<path d="M47.1249 41.9006C46.7628 41.7246 46.3806 41.7442 45.9884 41.7148C45.4855 41.6757 45.0731 41.4314 44.6003 41.3141C43.8057 41.1088 42.981 41.1772 42.1662 41.0697C41.4018 40.9719 40.6776 40.6005 39.9132 40.8742C39.8327 40.9035 39.873 41.0306 39.9635 41.0208C40.6776 40.9328 41.3616 41.2065 42.0556 41.3043C42.7094 41.3923 43.3732 41.3825 44.0371 41.49C44.711 41.6073 45.2843 41.9787 45.9682 42.0276C46.3706 42.0569 46.7327 42.0374 47.1048 42.2524C47.1853 42.3013 47.2658 42.3795 47.3563 42.4088C47.4367 42.4284 47.477 42.4479 47.4971 42.4577C47.4971 42.5066 47.5273 42.5555 47.5776 42.575C47.5977 42.5848 47.6077 42.5848 47.6279 42.5946C47.6681 42.6043 47.7284 42.6043 47.7687 42.5652C48.0805 42.2427 47.3362 41.9983 47.1249 41.9006Z" fill="#593511"/>
<path d="M46.4812 43.7969C45.9481 43.9826 45.4854 44.2661 44.9121 44.3932C44.4092 44.5007 43.9063 44.5202 43.3933 44.5496C43.3229 44.5496 43.3128 44.6669 43.3832 44.6766C44.379 44.9112 45.8375 44.6962 46.622 44.0119C46.7427 43.9142 46.622 43.748 46.4812 43.7969Z" fill="#915821"/>
<path d="M46.924 43.4739L46.9139 43.4837C46.7932 43.5717 46.8938 43.7965 47.0447 43.7574C47.0547 43.7574 47.0547 43.7574 47.0648 43.7574C47.1654 43.7378 47.2358 43.6303 47.1855 43.5326C47.1352 43.4348 47.0145 43.4153 46.924 43.4739Z" fill="#915821"/>
<path d="M44.7914 44.9405C44.2684 44.8428 43.6951 44.9698 43.1519 44.9601C42.5585 44.9405 41.9651 44.8623 41.4018 44.6766C40.1244 44.2465 39.3801 43.3668 38.9878 42.1449C38.9778 42.1058 38.8973 42.096 38.9074 42.1449C38.9476 43.2886 39.9735 44.3052 40.9693 44.7841C41.5527 45.0578 42.1964 45.2142 42.8502 45.2631C43.4637 45.312 44.2583 45.3706 44.8115 45.0969C44.892 45.048 44.8618 44.9503 44.7914 44.9405Z" fill="#593511"/>
<path d="M38.7566 41.7441C37.439 41.2358 35.7392 41.2163 34.8038 42.2524C33.8583 43.2983 34.16 45.0285 35.1156 46.0646C36.0812 47.1007 37.5195 47.5797 38.9176 47.8827C40.2352 48.1662 42.8906 48 42.9509 46.1526C43.0012 44.3833 40.2754 42.3306 38.7566 41.7441Z" fill="#6E4115"/>
<path d="M37.7812 45.7223C38.8674 46.4163 40.1348 47.1983 41.4926 47.0614C42.9108 46.9246 42.8304 45.1064 42.247 44.1681C41.724 43.3372 40.8288 42.7898 39.9135 42.3988C39.0384 42.0274 36.3629 40.9228 35.5683 41.9492C34.643 43.1515 36.9161 45.1651 37.7812 45.7223Z" fill="#915821"/>
<path d="M42.5585 46.5728C42.4781 46.4164 42.3574 46.2991 42.2166 46.1818C42.1864 46.1427 42.1462 46.1036 42.1059 46.0645C42.0154 45.9375 41.8947 45.8299 41.7438 45.742C41.7036 45.7126 41.6634 45.6833 41.6332 45.654C41.5326 45.5367 41.4723 45.4487 41.3415 45.351C41.2409 45.2825 41.1303 45.2434 41.0196 45.1946C40.909 45.1164 40.7883 45.0382 40.6777 44.96C40.6676 44.9502 40.6575 44.9306 40.6475 44.9209C40.557 44.7547 40.6475 44.6667 40.4363 44.5397C40.3759 44.5006 40.2451 44.4615 40.1747 44.4419C39.9132 44.3637 39.7523 44.3051 39.5411 44.1291C39.2393 43.8652 38.9879 43.6013 38.6358 43.396C38.2939 43.1907 37.8513 43.22 37.5395 43.0148C37.2478 42.8291 37.2478 42.5651 36.936 42.4087C36.6242 42.2621 36.2822 42.1546 35.9402 42.0568C35.9402 41.9884 35.91 41.9298 35.8296 41.9004L35.6485 41.832C35.5681 41.8027 35.5178 41.832 35.4775 41.8809C35.2462 41.92 35.0551 42.0666 35.2361 42.3305C35.3468 42.4967 35.6485 42.526 35.8296 42.5945C36.2017 42.7411 36.5638 42.917 36.9159 43.1125C37.0567 43.2396 37.1975 43.3667 37.3283 43.5231C37.8211 44.0705 38.5755 44.1389 39.0784 44.657C39.2494 44.8329 39.35 44.9111 39.5914 44.9893C40.0339 45.1457 40.225 45.3216 40.557 45.6149C40.7481 45.7908 40.9392 45.9179 41.1906 45.9961C41.7941 46.1916 41.8746 46.4555 42.0255 46.9931C42.0657 47.1495 42.297 47.1789 42.3876 47.042C42.4378 46.9443 42.468 46.8465 42.4781 46.7585C42.5384 46.7488 42.6088 46.6706 42.5585 46.5728Z" fill="#6E4115"/>
<path d="M40.6778 47.0323C40.5974 46.9834 40.4968 46.9736 40.4063 46.9736C40.366 46.9736 40.3258 46.9834 40.2856 46.9932C40.2353 47.003 40.2152 47.0323 40.1649 47.0421C40.1045 47.0616 40.1146 47.1496 40.185 47.1496C40.2453 47.1496 40.3258 47.1691 40.3962 47.1789C40.4767 47.1887 40.5471 47.2082 40.6276 47.218C40.7281 47.2376 40.7583 47.0812 40.6778 47.0323Z" fill="#593511"/>
<path d="M42.1965 46.0155C41.945 45.7027 41.5729 45.5561 41.2309 45.3606C40.7783 45.1065 40.5168 44.7155 40.1245 44.3929C39.4808 43.8651 38.6761 43.5718 37.972 43.1319C37.3082 42.7116 36.8053 42.0567 35.9704 41.9981C35.8799 41.9883 35.8698 42.1251 35.9503 42.1545C36.6544 42.3695 37.1674 42.9267 37.7709 43.3079C38.3442 43.6696 38.9678 43.9433 39.521 44.3245C40.0943 44.7155 40.4564 45.3117 41.07 45.6441C41.432 45.8494 41.774 45.9862 42.0255 46.3381C42.0758 46.4163 42.116 46.5238 42.1864 46.5923C42.2468 46.6509 42.2769 46.6802 42.2971 46.6998C42.2769 46.7487 42.2769 46.8073 42.3172 46.8366C42.3272 46.8464 42.3373 46.8562 42.3574 46.8757C42.3876 46.9051 42.4479 46.9246 42.4982 46.9148C42.9307 46.7389 42.3473 46.2013 42.1965 46.0155Z" fill="#593511"/>
<path d="M40.7381 47.5114C40.1547 47.4626 39.6015 47.5212 39.0181 47.4039C38.5052 47.2964 38.0224 47.0911 37.5396 46.9054C37.4792 46.8761 37.4189 46.9836 37.4692 47.0227C38.2939 47.6581 39.7423 48.0882 40.7783 47.7851C40.9292 47.7265 40.889 47.5212 40.7381 47.5114Z" fill="#915821"/>
<path d="M41.3015 47.4037C41.2914 47.4037 41.2914 47.4037 41.2813 47.4037C41.1204 47.433 41.1204 47.6774 41.2813 47.7165C41.2914 47.7165 41.2914 47.7165 41.3015 47.7165C41.4121 47.7361 41.5127 47.6676 41.5127 47.5601C41.5127 47.4526 41.402 47.3842 41.3015 47.4037Z" fill="#915821"/>
<path d="M38.6561 47.8533C38.2135 47.5405 37.6201 47.4135 37.1272 47.1691C36.5841 46.9052 36.0711 46.5728 35.6386 46.1623C34.6529 45.2141 34.3511 44.0802 34.5422 42.7802C34.5523 42.7411 34.4819 42.702 34.4618 42.7508C33.979 43.8261 34.4819 45.2141 35.196 46.0743C35.6185 46.5826 36.1415 46.9931 36.7249 47.3255C37.268 47.6285 37.9822 48.0195 38.6259 48.0097C38.7064 47.9902 38.7164 47.8924 38.6561 47.8533Z" fill="#593511"/>
<path d="M36.3427 44.3443C36.1315 43.9435 35.7392 43.7382 35.5984 43.2788C35.4576 42.7999 35.5883 42.3795 35.7593 41.9299C35.7794 41.8712 35.6889 41.8126 35.6386 41.8615C35.0351 42.5946 35.3369 44.0706 36.2824 44.4127C36.3326 44.4225 36.3528 44.3736 36.3427 44.3443Z" fill="#593511"/>
<path d="M35.357 43.5428C35.3469 43.5428 35.3469 43.5428 35.3368 43.5428C35.2061 43.533 35.2061 43.7481 35.3368 43.7285C35.3469 43.7285 35.3469 43.7285 35.357 43.7285C35.4877 43.7285 35.4877 43.5624 35.357 43.5428Z" fill="#593511"/>
</g>
<defs>
<linearGradient id="paint0_linear_430_722" x1="60" y1="60" x2="-19.9676" y2="53.812" gradientUnits="userSpaceOnUse">
<stop stop-color="#C58BF2"/>
<stop offset="1" stop-color="#EEA4CE"/>
</linearGradient>
<clipPath id="clip0_430_722">
<rect width="38" height="33" fill="white" transform="translate(10 15)"/>
</clipPath>
</defs>
</svg>
