<svg width="244" height="244" viewBox="0 0 244 244" fill="none" xmlns="http://www.w3.org/2000/svg">
<g opacity="0.2" filter="url(#filter0_d_430_606)">
<path d="M22 48.0656C22 34.9268 22 28.3574 24.7158 23.4114C26.7288 19.7452 29.7452 16.7288 33.4114 14.7158C38.3574 12 44.9268 12 58.0656 12C117.787 12 147.648 12 170.13 24.3445C186.795 33.4947 200.505 47.2054 209.655 63.8698C222 86.3518 222 116.213 222 175.934C222 189.073 222 195.643 219.284 200.589C217.271 204.255 214.255 207.271 210.589 209.284C205.643 212 199.073 212 185.934 212H66C45.2582 212 34.8873 212 28.4437 205.556C22 199.113 22 188.742 22 168V48.0656Z" fill="url(#paint0_linear_430_606)"/>
</g>
<g clip-path="url(#clip0_430_606)">
<path fill-rule="evenodd" clip-rule="evenodd" d="M201.843 83.2944C201.843 88.4013 178.709 94.0002 154.172 94.0002C129.634 94.0002 109.572 85.1255 109.572 80.0186C109.572 74.9117 132.887 74.0522 157.418 74.0522C181.95 74.0522 201.843 78.1876 201.843 83.2944Z" fill="#E2CAB3"/>
<path fill-rule="evenodd" clip-rule="evenodd" d="M205.641 88.5073C205.71 91.2351 199.799 93.6017 192.435 93.7886C185.071 93.9754 179.041 91.9202 178.972 89.1861C178.903 86.4521 184.814 84.0917 192.178 83.9049C199.543 83.718 205.572 85.7732 205.641 88.5073Z" fill="#E2CAB3"/>
<path fill-rule="evenodd" clip-rule="evenodd" d="M98.4149 69.0944C94.4914 78.3366 99.2673 83.1757 105.629 83.9728C108.136 84.2842 111.896 82.5591 114.679 81.4817C116.943 80.4824 119.093 79.2442 121.091 77.7885C122.037 76.8232 123.153 75.5091 123.379 74.0518C123.409 73.4886 123.288 72.9276 123.028 72.4263C123.098 72.2163 123.202 72.0188 123.335 71.8409C123.673 71.2181 122.758 70.7385 123.216 70.041C123.943 68.9262 122.984 67.7242 122.514 66.734C122.357 66.4164 118.314 62.8478 118.126 62.5052C114.754 58.9616 113.846 57.2925 109.208 56.5638C103.385 55.6421 97.738 57.7534 98.4149 69.0944Z" fill="#5F825C"/>
<g style="mix-blend-mode:multiply" opacity="0.4">
<path fill-rule="evenodd" clip-rule="evenodd" d="M100.521 65.682C101.185 65.763 101.511 67.5504 101.236 69.6928C100.96 71.8352 100.208 73.4794 99.537 73.3984C98.8664 73.3174 98.553 71.53 98.8225 69.3876C99.092 67.2452 99.8191 65.5948 100.521 65.682Z" fill="#5F825C"/>
</g>
<path fill-rule="evenodd" clip-rule="evenodd" d="M101.148 75.7023C99.7251 76.3251 99.8567 78.1499 100.433 79.3332C100.447 79.3519 100.458 79.373 100.465 79.3955C100.6 79.6681 100.768 79.9232 100.966 80.1553C101.665 81.0389 102.628 81.6781 103.718 81.98C105.084 82.3226 106.651 82.0921 107.44 81.0147C107.46 80.9816 107.491 80.957 107.528 80.9462V80.8092C107.353 80.1117 106.275 79.9747 105.698 79.8875C104.445 79.6944 104.075 78.5983 103.692 77.5831C103.31 76.568 102.401 75.1293 101.148 75.7023Z" fill="#8DB54F"/>
<g style="mix-blend-mode:multiply" opacity="0.4">
<path fill-rule="evenodd" clip-rule="evenodd" d="M114.021 61.9761C112.862 62.5989 113.94 64.0064 114.498 64.6728C115.751 66.2173 117.468 67.3259 118.515 69.0822C119.562 70.8384 118.196 73.56 119.869 75.0423C119.95 75.1139 120.044 75.1688 120.146 75.2038C120.248 75.2389 120.357 75.2533 120.464 75.2464C120.572 75.2394 120.678 75.2112 120.775 75.1633C120.872 75.1154 120.958 75.0489 121.028 74.9675C121.102 74.8498 121.157 74.7217 121.191 74.5876C121.395 74.3291 121.554 74.0386 121.661 73.7282C121.943 72.7538 121.906 71.7156 121.555 70.7637C121.292 69.9105 121.881 69.0822 121.624 68.2289C121.506 67.911 121.318 67.6236 121.072 67.3882C120.815 67.0918 120.52 66.8301 120.195 66.6097C119.588 66.1084 119.028 65.554 118.521 64.9531C117.914 64.2383 117.248 63.5757 116.528 62.9726C115.77 62.2564 114.786 61.5589 114.021 61.9761Z" fill="#5F825C"/>
</g>
<path fill-rule="evenodd" clip-rule="evenodd" d="M99.4806 69.6676C98.8538 69.5617 98.459 69.3126 96.4345 68.8143C94.4101 68.3161 93.3822 68.204 93.0688 68.0172C92.7555 67.8303 93.6329 66.8525 93.6329 66.8525C93.6329 66.8525 95.1497 67.4317 96.3969 67.8926C97.6442 68.3535 99.9256 68.9638 99.9256 68.9638C99.9256 68.9638 100.283 69.1631 100.139 69.487C99.9945 69.8108 99.4806 69.6676 99.4806 69.6676Z" fill="#300D33"/>
<path fill-rule="evenodd" clip-rule="evenodd" d="M205.817 51.663C204.118 52.0553 202.683 53.0767 200.915 53.1639C199.035 53.2573 197.155 52.4788 195.318 52.1239C191.326 51.3516 187.239 50.9219 183.203 50.4797C175.055 49.5829 166.801 49.1967 158.622 48.2626C150.442 47.3284 142.326 46.2634 134.14 46.3008C130.197 46.3106 126.261 46.6523 122.376 47.3221C119.173 47.8764 115.914 48.5241 113.232 50.4361C111.167 51.9452 109.611 54.0406 108.769 56.446C107.679 59.3731 113.439 77.2971 114.31 78.4741C121.881 88.4388 134.592 90.6186 155.507 90.2013C177.857 89.7529 186.494 87.2804 192.824 81.7251C196.227 78.7419 199.091 71.0691 199.605 69.5682C200.477 66.9214 201.442 64.3119 202.344 61.6775C202.915 60.0084 203.51 58.358 204.225 56.745C204.981 55.2296 205.61 53.6548 206.105 52.0367C206.119 51.9926 206.122 51.9458 206.114 51.9002C206.106 51.8546 206.088 51.8116 206.059 51.7748C206.031 51.7381 205.994 51.7088 205.952 51.6893C205.909 51.6698 205.863 51.6608 205.817 51.663Z" fill="#DA840D"/>
<path fill-rule="evenodd" clip-rule="evenodd" d="M202.432 52.8897C199.58 54.8826 195.475 54.9636 192.134 55.6175C183.886 57.2368 175.663 58.3516 167.246 58.1523C159.01 57.9654 150.768 57.0001 142.564 56.3275C134.178 55.6424 125.773 55.1504 117.362 55.5303C115.504 55.5978 113.66 55.8864 111.871 56.3898C110.956 56.6513 109.59 57.0126 109.133 57.9467C109.02 58.1892 108.958 58.452 108.951 58.719V58.7626C108.537 60.1452 109.02 61.3036 109.496 62.5305C109.609 63.0474 109.734 63.5643 109.853 64.0812C109.64 64.0812 109.609 64.4051 109.853 64.4113H109.922C109.948 64.4405 109.98 64.4638 110.016 64.4798C110.051 64.4958 110.09 64.5041 110.129 64.5041C110.168 64.5041 110.207 64.4958 110.243 64.4798C110.278 64.4638 110.31 64.4405 110.336 64.4113C111.815 64.4113 113.282 64.1373 114.767 64.0999C116.998 64.0376 118.891 65.1711 120.84 66.1053C124.338 67.7619 127.641 69.6988 131.182 71.1686C132.762 71.8255 134.387 72.3687 136.046 72.7941C137.699 73.1474 139.374 73.3929 141.06 73.529C142.852 73.7594 144.626 74.1518 146.412 74.3946C148.413 74.6302 150.43 74.6948 152.442 74.5877C160.431 74.4478 168.396 73.6667 176.258 72.2522C183.404 70.9195 190.549 68.9141 196.772 65.0839C199.233 63.5973 201.317 61.5688 202.864 59.155C203.579 58.0402 204.187 56.8382 204.851 55.6922C205.34 54.839 205.929 53.8239 205.842 52.8336C205.697 50.6788 203.309 52.2856 202.432 52.8897Z" fill="#C66720"/>
<path opacity="0.4" fill-rule="evenodd" clip-rule="evenodd" d="M154.372 86.0157C123.348 90.3752 114.059 77.963 114.341 78.3305C121.912 88.2951 134.629 90.4749 155.538 90.0576C177.888 89.6154 186.97 86.9935 193.307 81.4382C196.516 78.6169 200.069 68.2101 200.778 66.186C185.253 78.8785 180.822 82.2789 154.372 86.0157Z" fill="#C66720"/>
<path fill-rule="evenodd" clip-rule="evenodd" d="M210.968 41.5113C210.611 39.3253 207.208 39.0201 205.528 38.3973C204.043 37.8493 203.021 36.529 201.811 35.5387C200.506 34.4664 199.054 33.5837 197.499 32.9168C193.958 31.3972 190.411 30.1827 187.183 28.0341C184.212 26.0474 180.564 25.792 177.155 25.2378C175.047 24.9108 172.984 24.3445 171.006 23.55C169.249 22.7296 167.394 22.1372 165.484 21.7875C163.516 21.5259 161.492 21.9743 159.524 22.0553C157.343 22.1425 155.337 21.4325 153.288 20.8097C151.615 20.2076 149.838 19.943 148.061 20.0312C146.406 20.1682 144.927 21.0402 143.535 21.8996C143.5 21.9189 143.471 21.9468 143.45 21.9806C143.429 22.0144 143.418 22.053 143.416 22.0927C141.843 22.9085 140.333 23.8178 138.753 24.6399C137.435 25.3622 136.022 25.8968 134.554 26.228C132.755 26.6017 131.063 26.3027 129.277 26.0723C126.143 25.6675 123.178 25.5928 120.207 26.7325C116.672 28.0901 113.858 30.8553 110.355 32.3376C107.34 33.5832 104.714 35.0592 102.834 37.8181C102.051 38.9761 101.518 40.2821 101.267 41.6545C101.035 43.1305 101.392 44.4695 101.705 45.9144C102.119 47.7828 101.749 49.2775 101.21 51.0774C100.751 52.2641 100.785 53.5836 101.304 54.7456C101.793 55.6922 102.834 56.3026 103.742 56.7883C104.651 57.2741 106.97 57.7973 107.165 58.9307C107.992 63.7387 113.432 61.4842 116.635 62.6675C118.208 63.2591 119.662 64.156 121.26 64.7352C123.097 65.4015 125.021 65.8998 126.901 66.4042C130.662 67.4132 134.284 68.7584 137.938 70.141C139.549 70.7638 141.072 71.536 142.796 71.8474C144.519 72.1588 146.299 71.8786 148.004 71.7291C151.545 71.4115 162.746 72.3519 164.231 71.5983C166.155 70.6579 167.941 70.7451 170.022 70.9195C171.646 71.0565 173.049 69.8607 174.679 69.7299C176.552 69.5465 178.4 69.1602 180.188 68.5778C181.784 67.9653 183.409 67.4332 185.058 66.9834C186.938 66.5662 188.581 65.2147 190.48 64.9594C194.171 64.4549 196.879 62.3997 199.737 60.0144C202.332 57.8533 208.468 50.4047 209 48.9287C209.533 47.4527 209.928 45.8148 210.36 44.2889C210.599 43.4357 211.119 42.4206 210.968 41.5113Z" fill="#F0A508"/>
<g opacity="0.5">
<path opacity="0.5" fill-rule="evenodd" clip-rule="evenodd" d="M153.062 30.5311C152.542 31.2099 151.915 31.3968 151.972 35.6193C152.028 39.8418 152.435 41.4362 150.8 44.6373C149.164 47.8384 145.992 50.9462 144.87 54.3528C143.749 57.7595 142.332 63.3522 143.767 65.5257C145.203 67.6992 150.43 68.7704 157.556 68.9635C164.682 69.1566 172.498 67.9982 176.892 66.6405C181.285 65.2828 183.824 64.7223 184.82 63.5265C185.817 62.3308 180.846 52.117 177.368 48.1311C173.889 44.1453 172.222 42.825 168.299 39.5242C164.375 36.2234 162.658 34.9093 160.721 32.2438C158.785 29.5782 158.283 29.435 156.246 29.4661C155.096 29.4628 153.976 29.8372 153.062 30.5311Z" fill="#E2CAB3"/>
<path opacity="0.5" fill-rule="evenodd" clip-rule="evenodd" d="M113.476 57.3672C116.24 51.0334 119.888 48.1499 120.909 46.7175C123.724 42.7752 125.391 41.0501 129.12 40.4896C132.849 39.9291 130.806 39.9477 135.043 39.3561C139.28 38.7644 142.833 37.8489 145.698 35.6194C148.562 33.3898 150.041 31.6522 151.564 31.1103C153.087 30.5685 155.438 29.3603 153.77 31.0668C152.103 32.7732 154.328 33.4209 151.194 38.0482C148.061 42.6756 146.569 45.0671 145.453 48.6357C144.338 52.2043 143.184 63.3398 140.634 64.2179C138.083 65.096 131.997 65.2517 126.343 63.1654C121.957 61.4543 117.662 59.519 113.476 57.3672Z" fill="#E2CAB3"/>
<path opacity="0.5" fill-rule="evenodd" clip-rule="evenodd" d="M189.878 60.2133C189.878 60.2133 195.118 58.5879 198.126 55.9908C201.135 53.3938 204.143 50.9711 205.096 47.4025C206.048 43.8339 207.126 42.9434 205.961 41.8846C204.795 40.8259 198.559 35.2021 193.425 32.4306C188.292 29.6592 181.768 27.9092 175.964 26.6947C170.16 25.4803 167.083 26.1903 164.056 26.072C161.028 25.9536 156.234 29.4226 156.302 29.4599C157.979 31.0616 159.843 32.4564 161.856 33.614C164.576 35.0339 170.919 37.4379 174.015 39.2191C177.111 41.0002 179.568 44.9363 180.282 46.7797C180.997 48.6232 182 49.1962 183.021 52.7274C184.043 56.2586 186.876 61.9447 186.876 61.9447L189.878 60.2133Z" fill="#E2CAB3"/>
<path opacity="0.5" fill-rule="evenodd" clip-rule="evenodd" d="M104.94 38.7582C104.94 38.7582 102.52 45.2165 103.774 48.3242C104.643 50.3627 105.827 52.2538 107.284 53.9293C107.284 53.9293 110.418 56.9063 112.555 53.8235C114.692 50.7407 119.324 43.5412 123.003 40.7636C126.682 37.9859 131.264 37.388 134.661 36.9832C138.058 36.5784 146.036 35.2145 148.243 33.4271C150.449 31.6397 156.303 29.4599 156.303 29.4599C153.77 28.3046 151.132 27.3932 148.424 26.7383C144.325 25.8041 137.769 28.3015 132.448 27.0559C127.127 25.8103 121.937 28.6191 116.046 31.6085C112.134 33.6527 108.416 36.0457 104.94 38.7582Z" fill="#E2CAB3"/>
<path opacity="0.5" fill-rule="evenodd" clip-rule="evenodd" d="M140.038 25.5366C140.038 25.5366 145.548 20.3737 149.289 20.4671C154.021 20.5916 155.557 21.6255 157.819 22.3354C160.395 23.1326 161.423 23.4502 160.759 24.4778C160.095 25.5055 156.961 30.083 156.961 30.083C156.961 30.083 149.44 26.4147 146.682 25.9912C144.482 25.6723 142.261 25.5204 140.038 25.5366Z" fill="#E2CAB3"/>
</g>
<path opacity="0.4" fill-rule="evenodd" clip-rule="evenodd" d="M194.222 31.2539C192.736 30.6311 191.244 30.1142 189.784 29.4229C188.074 28.5503 186.316 27.7727 184.519 27.0936C182.898 26.5994 181.234 26.2554 179.549 26.066C175.738 25.4432 172.241 23.88 168.587 22.759C166.492 22.1185 164.303 21.8363 162.113 21.9245C160.207 22.049 158.296 22.049 156.39 21.9245C154.51 21.7252 152.855 20.8595 151.025 20.3799C148.8 19.7945 146.951 20.3799 144.977 21.4325C142.063 22.9334 139.154 24.7644 135.996 25.7235C134.309 26.2703 132.543 26.5395 130.768 26.5207C128.888 26.4584 127.096 26.0847 125.247 25.9602C123.21 25.7441 121.153 26.116 119.324 27.0314C117.935 27.7627 116.627 28.6351 115.419 29.6346C115.413 29.7446 115.413 29.8548 115.419 29.9647C115.055 31.0228 114.924 32.1465 115.037 33.2593C115.092 34.3947 115.391 35.5052 115.914 36.5161C116.438 37.527 117.173 38.4148 118.07 39.1197C119.374 40.2158 120.74 41.0566 121.831 42.3707C122.921 43.6848 123.711 45.0549 124.965 46.1074C127.008 47.8388 129.722 47.9758 132.291 47.9758C133.645 47.9758 134.993 47.9073 136.34 47.9758C138.19 48.1693 140.009 48.5876 141.756 49.2214C145.366 50.3424 148.907 51.8932 152.636 52.6218C156.365 53.3505 160.063 52.4724 163.686 51.507C167.309 50.5417 170.881 49.894 174.428 48.9598C177.636 48.1764 180.68 46.8399 183.422 45.0113C186.349 42.8985 188.996 40.4273 191.301 37.6562C192.185 36.6348 193.024 35.576 193.896 34.5422C194.67 33.7631 195.189 32.7683 195.381 31.6898C194.987 31.564 194.6 31.4185 194.222 31.2539Z" fill="#E2CAB3"/>
<path fill-rule="evenodd" clip-rule="evenodd" d="M144.212 35.5327C143.924 35.595 143.636 35.6448 143.366 35.6822H143.278C141.31 36.0621 139.361 36.5354 137.337 36.3797C135.97 36.2801 130.63 36.4233 131.884 38.8709C131.899 38.9132 131.899 38.9593 131.884 39.0017C132.987 39.6992 135.438 39.4127 136.271 39.3504C136.978 39.3024 137.68 39.2004 138.371 39.0453C140.337 38.2706 142.206 37.2738 143.943 36.0745C144.055 35.9058 144.145 35.7238 144.212 35.5327Z" fill="#C66720"/>
<path fill-rule="evenodd" clip-rule="evenodd" d="M151.984 40.5522C152.114 39.2482 152.067 37.9329 151.846 36.6411C151.009 38.6175 149.936 40.4868 148.65 42.2089C147.898 43.1493 146.901 43.9651 146.293 45.0114C145.967 45.5719 145.516 46.4065 145.754 47.0915C146.13 48.169 146.795 48.1627 147.503 48.0195C148.719 47.2722 149.834 45.5283 150.436 44.6315C150.993 43.8008 151.445 42.9056 151.784 41.966C151.853 41.4989 151.915 41.0318 151.984 40.5522Z" fill="#C66720"/>
<path fill-rule="evenodd" clip-rule="evenodd" d="M172.022 36.8155C170.552 36.2208 169.052 35.7032 167.528 35.2647C166.597 35.0243 165.688 34.7098 164.808 34.3243C164.132 33.9214 163.369 33.6864 162.583 33.6393C162.535 33.6362 162.488 33.6453 162.445 33.6659C162.402 33.6864 162.365 33.7177 162.338 33.7565C162.311 33.7954 162.294 33.8406 162.29 33.8877C162.286 33.9348 162.294 33.9823 162.313 34.0254C162.375 34.2236 162.498 34.3977 162.664 34.5236C163.599 35.8224 164.634 37.0468 165.76 38.1856C166.769 39.3191 167.641 40.5398 168.769 41.5923C170.298 43.0559 173.062 43.9465 174.629 41.9286C176.359 39.6803 174.002 37.6438 172.022 36.8155Z" fill="#C66720"/>
<path fill-rule="evenodd" clip-rule="evenodd" d="M165.704 25.7798C165.171 24.6401 163.441 24.6712 162.294 24.939C162.201 24.9511 162.109 24.9698 162.019 24.9951C160.431 25.8065 159.2 27.1698 158.559 28.8253C160.439 28.271 161.824 26.9569 163.811 26.7264C164.131 26.6891 166.067 26.5458 165.704 25.7798Z" fill="#C66720"/>
<path fill-rule="evenodd" clip-rule="evenodd" d="M139.179 27.847C139.431 27.9268 139.692 27.9729 139.956 27.9841C140.577 27.8785 141.207 27.8367 141.837 27.8595C142.081 27.8473 142.326 27.8473 142.57 27.8595C143.391 27.8922 144.209 27.9712 145.021 28.0962L145.34 28.1833C145.787 28.2303 146.234 28.1079 146.594 27.8408C144.757 27.0374 139.699 25.1317 139.01 27.5917C139 27.6476 139.013 27.7051 139.044 27.7525C139.075 27.7999 139.124 27.8337 139.179 27.847Z" fill="#C66720"/>
<path fill-rule="evenodd" clip-rule="evenodd" d="M104.802 54.8017C104.655 55.1257 104.55 55.4668 104.488 55.8169C104.395 56.0774 104.34 56.3502 104.325 56.6265C104.328 56.6439 104.335 56.6603 104.346 56.6745C104.357 56.6887 104.37 56.7002 104.386 56.7081C104.402 56.716 104.42 56.72 104.437 56.7199C104.455 56.7198 104.473 56.7155 104.488 56.7075C104.676 56.6016 104.683 56.284 104.714 56.0847C104.771 55.6615 104.867 55.2444 105.002 54.8391C105.052 54.7457 104.858 54.6834 104.802 54.8017Z" fill="#C66720"/>
<path fill-rule="evenodd" clip-rule="evenodd" d="M105.98 55.7666C105.82 56.0751 105.704 56.4041 105.635 56.7444C105.585 56.925 105.441 57.2115 105.497 57.3672C105.501 57.3874 105.511 57.406 105.525 57.4205C105.54 57.435 105.558 57.4446 105.579 57.4482C105.817 57.4482 105.842 57.1368 105.88 56.9686C105.967 56.6012 106.043 56.2213 106.168 55.86C106.212 55.7542 106.043 55.6545 105.98 55.7666Z" fill="#C66720"/>
<path fill-rule="evenodd" clip-rule="evenodd" d="M111.646 60.0142C111.59 60.637 111.389 61.2598 111.395 61.92C111.395 62.1068 111.69 62.138 111.696 61.92C111.791 61.278 111.852 60.6314 111.878 59.9831C111.872 59.8585 111.659 59.8897 111.646 60.0142Z" fill="#C66720"/>
<path fill-rule="evenodd" clip-rule="evenodd" d="M113.2 60.3382C112.995 60.8292 112.897 61.3577 112.912 61.889C112.912 62.0883 113.232 62.1256 113.238 61.889C113.257 61.3749 113.313 60.8628 113.407 60.3569C113.432 60.2573 113.244 60.2261 113.2 60.3382Z" fill="#C66720"/>
<path fill-rule="evenodd" clip-rule="evenodd" d="M138.528 68.8395C138.433 69.074 138.366 69.3185 138.327 69.5681C138.268 69.7915 138.243 70.0224 138.252 70.2532C138.26 70.2781 138.276 70.2998 138.298 70.3152C138.319 70.3306 138.345 70.3389 138.371 70.3389C138.398 70.3389 138.423 70.3306 138.445 70.3152C138.466 70.2998 138.482 70.2781 138.49 70.2532C138.543 70.0498 138.571 69.8406 138.572 69.6304C138.609 69.3688 138.622 69.1073 138.672 68.8457C138.685 68.7896 138.559 68.771 138.528 68.8395Z" fill="#C66720"/>
<path fill-rule="evenodd" clip-rule="evenodd" d="M140.308 69.0574C140.21 69.372 140.143 69.6952 140.107 70.0227C140.037 70.2971 140.016 70.5817 140.044 70.8635C140.054 70.8877 140.071 70.9085 140.093 70.9232C140.115 70.9379 140.14 70.9457 140.167 70.9457C140.193 70.9457 140.219 70.9379 140.24 70.9232C140.262 70.9085 140.279 70.8877 140.289 70.8635C140.356 70.618 140.385 70.364 140.377 70.1099C140.377 69.7611 140.433 69.4124 140.464 69.0698C140.461 69.0524 140.452 69.0365 140.439 69.0246C140.425 69.0128 140.409 69.0056 140.391 69.0042C140.373 69.0027 140.355 69.0072 140.34 69.0168C140.325 69.0264 140.314 69.0407 140.308 69.0574Z" fill="#C66720"/>
<path fill-rule="evenodd" clip-rule="evenodd" d="M147.384 70.122C147.384 70.0224 147.265 69.9352 147.215 70.0286C147.053 70.3365 146.967 70.678 146.964 71.0251C146.964 71.1995 146.92 71.6479 147.14 71.6915C147.154 71.6964 147.168 71.6985 147.183 71.6978C147.198 71.697 147.213 71.6933 147.226 71.687C147.239 71.6806 147.251 71.6717 147.261 71.6607C147.271 71.6497 147.279 71.6369 147.284 71.623C147.294 71.4288 147.279 71.2342 147.24 71.0438C147.237 70.7308 147.286 70.4195 147.384 70.122Z" fill="#C66720"/>
<path fill-rule="evenodd" clip-rule="evenodd" d="M149.145 70.0598C149.141 70.0459 149.132 70.0337 149.12 70.025C149.108 70.0164 149.094 70.0117 149.079 70.0117C149.065 70.0117 149.05 70.0164 149.038 70.025C149.027 70.0337 149.018 70.0459 149.013 70.0598C148.875 70.5921 148.82 71.1425 148.85 71.6915C148.85 71.8597 149.12 71.8783 149.114 71.6915C149.084 71.1476 149.095 70.6022 149.145 70.0598Z" fill="#C66720"/>
<path fill-rule="evenodd" clip-rule="evenodd" d="M151.075 70.2533C151.075 70.2319 151.067 70.2113 151.052 70.1961C151.036 70.1809 151.016 70.1724 150.994 70.1724C150.972 70.1724 150.952 70.1809 150.936 70.1961C150.921 70.2113 150.912 70.2319 150.912 70.2533C150.887 70.5024 150.869 70.7516 150.856 71.0007C150.856 71.1813 150.731 71.418 150.856 71.5737C150.866 71.5812 150.878 71.5853 150.89 71.5853C150.903 71.5853 150.915 71.5812 150.925 71.5737C151.138 71.5737 151.126 71.2311 151.138 71.0692C151.149 70.7957 151.128 70.5219 151.075 70.2533Z" fill="#C66720"/>
<path fill-rule="evenodd" clip-rule="evenodd" d="M185.409 66.3605C185.409 66.3979 185.409 66.2982 185.409 66.2858C185.371 66.1968 185.34 66.1052 185.315 66.0117C185.253 65.7688 185.24 65.5073 185.165 65.2644C185.165 65.1959 185.027 65.1585 185.008 65.2644C184.989 65.3702 185.008 66.7404 185.397 66.51C185.41 66.5033 185.422 66.4933 185.431 66.4808C185.439 66.4683 185.445 66.4539 185.446 66.4388C185.447 66.4237 185.444 66.4085 185.438 66.3948C185.432 66.3811 185.422 66.3693 185.409 66.3605Z" fill="#C66720"/>
<path fill-rule="evenodd" clip-rule="evenodd" d="M187.641 65.8003C187.516 65.4188 187.366 65.0463 187.189 64.6855C187.181 64.6599 187.163 64.6387 187.139 64.6264C187.115 64.6141 187.087 64.6119 187.061 64.6201C187.035 64.6284 187.014 64.6465 187.001 64.6704C186.989 64.6944 186.987 64.7222 186.995 64.7478C187.089 65.1501 187.21 65.5455 187.359 65.9311C187.428 66.1179 187.716 65.9872 187.641 65.8003Z" fill="#C66720"/>
<path fill-rule="evenodd" clip-rule="evenodd" d="M189.784 64.6976C189.566 64.3859 189.419 64.0311 189.352 63.6575C189.346 63.6346 189.333 63.6142 189.314 63.5996C189.295 63.5851 189.272 63.5771 189.248 63.5771C189.224 63.5771 189.201 63.5851 189.182 63.5996C189.164 63.6142 189.15 63.6346 189.145 63.6575C189.116 64.1041 189.249 64.5461 189.521 64.9031C189.64 65.1024 189.909 64.8782 189.784 64.6976Z" fill="#C66720"/>
<path fill-rule="evenodd" clip-rule="evenodd" d="M192.454 64.3927C192.243 64.2168 192.071 64.0003 191.947 63.7562C191.823 63.5121 191.75 63.2456 191.733 62.9727C191.735 62.9577 191.731 62.9427 191.724 62.9295C191.717 62.9164 191.706 62.9057 191.692 62.899C191.678 62.8923 191.663 62.8898 191.648 62.8918C191.633 62.8938 191.619 62.9003 191.608 62.9104C191.056 63.2966 191.884 64.293 192.191 64.5857C192.348 64.7601 192.611 64.5484 192.454 64.3927Z" fill="#C66720"/>
<path fill-rule="evenodd" clip-rule="evenodd" d="M195.475 62.9725C195.144 62.4147 194.777 61.878 194.378 61.3657C194.335 61.291 194.19 61.3159 194.222 61.4155C194.416 62.0383 194.968 62.4805 195.237 63.0846C195.306 63.2528 195.544 63.1407 195.475 62.9725Z" fill="#C66720"/>
<path fill-rule="evenodd" clip-rule="evenodd" d="M197.969 61.0481C197.913 60.9298 197.763 60.8613 197.662 60.7866L197.167 60.4253C197.042 60.3319 196.91 60.2447 196.779 60.1575C196.647 60.0704 196.641 60.1202 196.584 60.089C196.528 60.0579 196.534 60.089 196.553 60.089C196.572 60.089 196.584 60.1887 196.628 60.2323C196.739 60.3466 196.856 60.4547 196.979 60.5561C197.136 60.6931 197.299 60.8177 197.462 60.9422C197.625 61.0668 197.712 61.1727 197.857 61.1727C197.872 61.1728 197.888 61.1695 197.903 61.1631C197.917 61.1567 197.93 61.1473 197.941 61.1356C197.952 61.1238 197.96 61.1099 197.965 61.0949C197.97 61.0798 197.971 61.0639 197.969 61.0481Z" fill="#C66720"/>
<path fill-rule="evenodd" clip-rule="evenodd" d="M200.094 59.4912C200.083 59.455 200.061 59.4226 200.033 59.3973C200.004 59.3721 199.969 59.3551 199.931 59.3479C199.814 59.2941 199.707 59.2227 199.612 59.1362C199.391 58.9439 199.2 58.7192 199.048 58.4698C198.979 58.3639 198.816 58.4698 198.866 58.5881C199 58.886 199.194 59.1531 199.436 59.3729C199.587 59.5099 199.869 59.7403 200.063 59.6095C200.08 59.5954 200.092 59.5765 200.098 59.5553C200.103 59.5341 200.102 59.5117 200.094 59.4912Z" fill="#C66720"/>
<path fill-rule="evenodd" clip-rule="evenodd" d="M207.171 51.4823C207.142 51.4486 207.107 51.4212 207.067 51.4019C207.027 51.3826 206.983 51.3718 206.939 51.3702C206.8 51.3462 206.667 51.2931 206.55 51.2145C206.301 51.0432 206.114 50.7963 206.017 50.5107C206.017 50.4173 205.855 50.4733 205.861 50.5605C205.9 50.8967 206.068 51.2047 206.331 51.42C206.513 51.5695 206.958 51.8123 207.164 51.5944C207.179 51.5794 207.187 51.56 207.188 51.5395C207.189 51.5189 207.183 51.4987 207.171 51.4823Z" fill="#C66720"/>
<path fill-rule="evenodd" clip-rule="evenodd" d="M208.555 49.8942C208.026 49.622 207.58 49.2133 207.264 48.7109C207.208 48.6175 207.045 48.7109 207.101 48.7919C207.39 49.3668 207.861 49.831 208.443 50.1122C208.568 50.162 208.681 49.9502 208.555 49.8942Z" fill="#C66720"/>
<path fill-rule="evenodd" clip-rule="evenodd" d="M209.414 47.6956C209.174 47.54 208.943 47.3694 208.725 47.1849C208.511 46.9918 208.311 46.7988 208.098 46.6244C208.016 46.5621 207.91 46.6804 207.979 46.7614C208.305 47.2655 208.759 47.6757 209.295 47.9509C209.327 47.959 209.362 47.9556 209.392 47.9412C209.422 47.9269 209.447 47.9025 209.461 47.8722C209.475 47.842 209.478 47.8078 209.469 47.7755C209.461 47.7433 209.441 47.715 209.414 47.6956Z" fill="#C66720"/>
<path fill-rule="evenodd" clip-rule="evenodd" d="M103.248 53.1576C102.705 53.8966 102.338 54.7484 102.176 55.6488C102.176 55.7235 102.282 55.7297 102.301 55.6488C102.516 54.7936 102.9 53.9893 103.429 53.2822C103.505 53.1638 103.323 53.0393 103.248 53.1576Z" fill="#C66720"/>
<path fill-rule="evenodd" clip-rule="evenodd" d="M102.27 52.541C102.132 52.6033 102.075 52.7216 101.981 52.8462C101.887 52.9707 101.724 53.2074 101.612 53.4005C101.452 53.6219 101.366 53.8877 101.367 54.1603C101.367 54.2537 101.511 54.235 101.518 54.1603C101.59 53.8783 101.723 53.6151 101.906 53.388C102.057 53.1576 102.351 52.896 102.383 52.622C102.384 52.6081 102.381 52.5942 102.375 52.5816C102.369 52.569 102.36 52.5581 102.349 52.55C102.338 52.5419 102.324 52.5368 102.311 52.5352C102.297 52.5336 102.283 52.5356 102.27 52.541Z" fill="#C66720"/>
<path fill-rule="evenodd" clip-rule="evenodd" d="M104.081 54.5648C103.905 54.8464 103.762 55.1474 103.655 55.4616C103.516 55.7548 103.415 56.0646 103.354 56.3833C103.354 56.4643 103.473 56.4892 103.492 56.3833C103.572 56.0764 103.688 55.7796 103.837 55.499C104.02 55.2159 104.147 54.9011 104.213 54.571C104.214 54.5537 104.208 54.5367 104.196 54.5239C104.184 54.511 104.168 54.5033 104.15 54.5025C104.133 54.5017 104.116 54.5078 104.103 54.5195C104.09 54.5311 104.082 54.5475 104.081 54.5648Z" fill="#C66720"/>
<path fill-rule="evenodd" clip-rule="evenodd" d="M107.478 56.7446C107.008 56.8879 106.789 57.5044 106.663 57.9342C106.658 57.9563 106.662 57.9794 106.673 57.9991C106.684 58.0189 106.702 58.0339 106.724 58.0415C106.745 58.0491 106.768 58.0488 106.79 58.0405C106.811 58.0322 106.828 58.0165 106.839 57.9964C106.914 57.7788 107.013 57.57 107.133 57.3736C107.252 57.1868 107.422 57.0311 107.547 56.8443C107.572 56.8069 107.534 56.7446 107.478 56.7446Z" fill="#C66720"/>
<path fill-rule="evenodd" clip-rule="evenodd" d="M108.518 58.6133C108.274 58.7005 108.142 59.0057 108.03 59.2361C107.902 59.504 107.843 59.7995 107.86 60.0955C107.86 60.1952 108.011 60.2139 108.017 60.0955C108.038 59.8479 108.102 59.6056 108.205 59.3793C108.305 59.1364 108.55 58.9496 108.619 58.7067C108.623 58.6931 108.624 58.6783 108.621 58.6643C108.617 58.6503 108.61 58.6375 108.599 58.6276C108.588 58.6177 108.575 58.6111 108.561 58.6086C108.547 58.606 108.532 58.6077 108.518 58.6133Z" fill="#C66720"/>
<path fill-rule="evenodd" clip-rule="evenodd" d="M109.527 59.2669C109.327 59.5853 109.174 59.9316 109.076 60.2945C108.942 60.6328 108.841 60.9832 108.775 61.3408C108.77 61.3623 108.774 61.3849 108.786 61.4036C108.798 61.4222 108.816 61.4355 108.838 61.4405C108.86 61.4454 108.882 61.4417 108.901 61.43C108.92 61.4183 108.933 61.3997 108.938 61.3782C109.032 61.0314 109.151 60.692 109.296 60.363C109.472 60.0326 109.599 59.6779 109.672 59.3105C109.674 59.3011 109.675 59.2912 109.675 59.2815C109.674 59.2717 109.671 59.2622 109.666 59.2535C109.661 59.2448 109.655 59.2371 109.647 59.2309C109.64 59.2247 109.631 59.22 109.621 59.2171C109.612 59.2142 109.602 59.2133 109.592 59.2142C109.582 59.2152 109.573 59.218 109.564 59.2227C109.555 59.2273 109.548 59.2336 109.541 59.2412C109.535 59.2488 109.53 59.2575 109.527 59.2669Z" fill="#C66720"/>
<path fill-rule="evenodd" clip-rule="evenodd" d="M110.449 60.2697C110.23 60.7562 110.14 61.2898 110.186 61.8205C110.186 61.9263 110.349 61.9388 110.349 61.8205C110.349 61.3036 110.581 60.7929 110.549 60.2822C110.546 60.2723 110.54 60.2636 110.531 60.2571C110.523 60.2505 110.513 60.2464 110.503 60.2451C110.493 60.2438 110.482 60.2454 110.472 60.2498C110.463 60.2541 110.455 60.261 110.449 60.2697Z" fill="#C66720"/>
<path fill-rule="evenodd" clip-rule="evenodd" d="M142.132 69.537C141.91 70.1141 141.826 70.7345 141.887 71.3493C141.887 71.4302 142.031 71.424 142.038 71.3493C142.038 71.0503 142.082 70.7265 142.119 70.4587C142.192 70.1631 142.227 69.8598 142.226 69.5556C142.226 69.4934 142.15 69.4996 142.132 69.537Z" fill="#C66720"/>
<path fill-rule="evenodd" clip-rule="evenodd" d="M143.767 70.7324C143.767 70.4459 143.905 70.1906 143.93 69.9041C143.927 69.8945 143.92 69.8863 143.912 69.8805C143.904 69.8747 143.894 69.8716 143.883 69.8716C143.873 69.8716 143.863 69.8747 143.855 69.8805C143.846 69.8863 143.84 69.8945 143.836 69.9041C143.654 70.1956 143.548 70.5275 143.527 70.87C143.506 71.2125 143.572 71.5547 143.717 71.8659C143.761 71.9593 143.886 71.8659 143.855 71.8036C143.743 71.458 143.713 71.0914 143.767 70.7324Z" fill="#C66720"/>
<path fill-rule="evenodd" clip-rule="evenodd" d="M145.272 70.9444C145.291 70.6599 145.266 70.3741 145.197 70.0974C145.19 70.0844 145.179 70.0735 145.167 70.0658C145.154 70.0582 145.139 70.0542 145.125 70.0542C145.11 70.0542 145.095 70.0582 145.082 70.0658C145.07 70.0735 145.059 70.0844 145.052 70.0974C144.999 70.3794 144.999 70.6687 145.052 70.9506C145.071 71.2758 145.127 71.5978 145.222 71.9097C145.222 72.0156 145.416 71.9907 145.391 71.9097C145.325 71.5917 145.285 71.2689 145.272 70.9444Z" fill="#C66720"/>
<path fill-rule="evenodd" clip-rule="evenodd" d="M201.674 56.7445C201.674 56.676 201.58 56.6387 201.548 56.6947C201.497 56.7757 201.469 56.8696 201.469 56.9656C201.469 57.0616 201.497 57.1556 201.548 57.2365C201.649 57.4296 201.893 57.7161 202.131 57.6849C202.15 57.6805 202.167 57.6689 202.177 57.6526C202.188 57.6364 202.191 57.6167 202.188 57.5978C202.125 57.2614 201.592 57.1244 201.674 56.7445Z" fill="#C66720"/>
<path fill-rule="evenodd" clip-rule="evenodd" d="M203.936 55.742C203.874 55.6423 203.817 55.6299 203.705 55.5925C203.551 55.5445 203.413 55.4537 203.31 55.3309C203.109 55.0958 202.969 54.8158 202.902 54.5151C202.9 54.5028 202.895 54.4911 202.888 54.4807C202.881 54.4703 202.872 54.4614 202.861 54.4545C202.851 54.4475 202.839 54.4427 202.827 54.4403C202.815 54.4379 202.802 54.4379 202.789 54.4403C202.777 54.4428 202.765 54.4476 202.755 54.4546C202.744 54.4615 202.735 54.4705 202.729 54.4809C202.722 54.4913 202.717 54.503 202.714 54.5153C202.712 54.5275 202.712 54.5402 202.714 54.5524C202.771 54.8961 202.911 55.221 203.122 55.4991C203.278 55.6921 203.692 56.0098 203.943 55.8354C203.952 55.8211 203.956 55.8044 203.955 55.7877C203.953 55.7709 203.947 55.755 203.936 55.742Z" fill="#C66720"/>
<path fill-rule="evenodd" clip-rule="evenodd" d="M205.002 53.6307C204.807 53.4377 204.6 53.2446 204.419 53.0391C204.343 52.9519 204.187 53.0391 204.243 53.145C204.385 53.3956 204.558 53.6278 204.757 53.8363C204.926 54.0106 205.114 54.2909 205.384 54.3096C205.397 54.3107 205.41 54.3088 205.423 54.304C205.435 54.2993 205.446 54.2919 205.455 54.2823C205.464 54.2727 205.471 54.2612 205.475 54.2487C205.479 54.2362 205.48 54.2229 205.478 54.2099C205.44 53.967 205.19 53.8051 205.002 53.6307Z" fill="#C66720"/>
<path opacity="0.4" fill-rule="evenodd" clip-rule="evenodd" d="M159.198 31.9514C159.198 33.664 156.56 35.0653 153.294 35.0653C150.029 35.0653 147.39 33.6765 147.39 31.9514C147.39 30.2262 150.029 28.8374 153.294 28.8374C156.56 28.8374 159.198 30.2387 159.198 31.9514Z" fill="#DA840D"/>
<path fill-rule="evenodd" clip-rule="evenodd" d="M191.526 57.9901C178.214 54.6333 172.642 62.0009 172.861 70.6701C172.949 74.0581 176.058 78.729 178.101 82.2603C179.914 85.0816 182.028 87.7001 184.406 90.0701C185.911 91.135 187.916 92.3619 189.928 92.3619C190.699 92.2864 191.437 92.0092 192.065 91.5585C192.36 91.6157 192.645 91.7143 192.911 91.8512C193.864 92.1751 194.284 90.8548 195.324 91.3219C196.985 92.0755 198.421 90.5434 199.662 89.7089C200.063 89.441 204.049 83.3003 204.481 82.9765C208.587 77.7388 210.655 76.1943 210.699 69.8356C210.749 61.8888 206.732 54.7703 191.526 57.9901Z" fill="#C73A54"/>
<g style="mix-blend-mode:multiply">
<path fill-rule="evenodd" clip-rule="evenodd" d="M196.572 60.0704C196.572 60.9797 194.228 61.7769 191.288 61.8516C188.349 61.9263 185.948 61.2288 185.923 60.3382C185.898 59.4476 188.267 58.6131 191.207 58.557C194.146 58.501 196.547 59.1611 196.572 60.0704Z" fill="#ED6366"/>
</g>
<path fill-rule="evenodd" clip-rule="evenodd" d="M183.14 63.0101C181.968 61.2476 179.568 61.7645 178.083 62.7984L178.007 62.8544C177.662 63.0859 177.35 63.3624 177.08 63.6765C176.023 64.7905 175.353 66.2113 175.168 67.7309C174.986 69.5993 175.619 71.6732 177.243 72.5015C177.289 72.5247 177.326 72.5618 177.349 72.6073C177.411 72.5944 177.472 72.5756 177.531 72.5513C178.446 72.1776 178.402 70.6829 178.408 69.9231C178.408 68.2353 179.819 67.488 181.11 66.7656C182.294 66.0867 184.168 64.5609 183.14 63.0101Z" fill="#ED6366"/>
<g style="mix-blend-mode:multiply">
<path fill-rule="evenodd" clip-rule="evenodd" d="M204.35 77.3966C203.247 75.9829 201.592 77.708 200.802 78.5799C198.966 80.604 197.819 83.1014 195.65 84.8577C193.482 86.6139 189.546 85.3372 187.86 87.8907C187.781 88.0137 187.727 88.151 187.702 88.2946C187.677 88.4382 187.68 88.5854 187.712 88.7278C187.744 88.8701 187.804 89.0047 187.889 89.124C187.973 89.2432 188.08 89.3448 188.204 89.4227C188.38 89.4909 188.563 89.537 188.75 89.5597C189.14 89.7772 189.563 89.9287 190.003 90.0081C191.378 90.1867 192.775 89.9249 193.989 89.2608C195.093 88.7376 196.34 89.348 197.437 88.8311C197.842 88.6114 198.191 88.3025 198.458 87.928C198.81 87.5229 199.105 87.0725 199.336 86.589C199.887 85.6818 200.516 84.8233 201.216 84.0231C202.066 83.0642 202.836 82.0372 203.516 80.9528C204.331 79.7882 205.071 78.3308 204.35 77.3966Z" fill="#ED6366"/>
</g>
<path fill-rule="evenodd" clip-rule="evenodd" d="M203.999 46.1574C203.259 45.9083 201.899 47.0293 201.323 47.3718C200.007 48.1565 198.672 48.9475 197.406 49.8069C195.482 51.1472 193.889 52.9013 192.742 54.9387C192.265 55.8063 191.944 56.7508 191.796 57.7288C191.601 58.2423 191.504 58.787 191.508 59.3356C191.504 59.3741 191.509 59.4129 191.52 59.4497C191.532 59.4865 191.551 59.5207 191.576 59.5502C191.601 59.5797 191.632 59.604 191.666 59.6217C191.701 59.6394 191.739 59.6501 191.777 59.6532C194.986 59.6906 198.27 57.6043 200.514 55.5055C201.69 54.4755 202.621 53.1993 203.241 51.7687C203.55 50.9619 203.78 50.1278 203.93 49.2776C204.106 48.3683 203.842 47.2659 204.137 46.4252C204.153 46.3715 204.148 46.3137 204.122 46.2638C204.096 46.214 204.052 46.1759 203.999 46.1574Z" fill="#8DB54F"/>
<path fill-rule="evenodd" clip-rule="evenodd" d="M190.969 59.541C190.969 58.6504 191.238 58.0961 191.495 55.2935C191.752 52.491 191.702 51.0897 191.89 50.6288C192.078 50.168 193.582 51.1457 193.582 51.1457C193.582 51.1457 193.1 53.2944 192.742 55.0569C192.385 56.8194 192.028 59.9894 192.028 59.9894C192.028 59.9894 191.833 60.5063 191.363 60.3755C190.893 60.2447 190.969 59.541 190.969 59.541Z" fill="#300D33"/>
</g>
<path d="M48.258 115.002C48.7807 115.095 49.224 115.371 49.588 115.828C49.952 116.285 50.134 116.803 50.134 117.382C50.134 117.877 50.0033 118.325 49.742 118.726C49.49 119.118 49.1213 119.431 48.636 119.664C48.1507 119.888 47.586 120 46.942 120H43.05V110.27H46.76C47.4227 110.27 47.992 110.382 48.468 110.606C48.944 110.83 49.3033 111.133 49.546 111.516C49.7887 111.889 49.91 112.309 49.91 112.776C49.91 113.336 49.7607 113.803 49.462 114.176C49.1633 114.549 48.762 114.825 48.258 115.002ZM44.646 114.358H46.62C47.1427 114.358 47.5487 114.241 47.838 114.008C48.1367 113.765 48.286 113.42 48.286 112.972C48.286 112.533 48.1367 112.193 47.838 111.95C47.5487 111.698 47.1427 111.572 46.62 111.572H44.646V114.358ZM46.802 118.698C47.3433 118.698 47.768 118.567 48.076 118.306C48.384 118.045 48.538 117.681 48.538 117.214C48.538 116.738 48.3747 116.36 48.048 116.08C47.7213 115.8 47.2873 115.66 46.746 115.66H44.646V118.698H46.802ZM53.4644 113.406C53.6977 113.014 54.0057 112.711 54.3884 112.496C54.7804 112.272 55.2424 112.16 55.7744 112.16V113.812H55.3684C54.743 113.812 54.267 113.971 53.9404 114.288C53.623 114.605 53.4644 115.156 53.4644 115.94V120H51.8684V112.286H53.4644V113.406ZM64.3114 115.954C64.3114 116.243 64.2927 116.505 64.2554 116.738H58.3614C58.4081 117.354 58.6367 117.849 59.0474 118.222C59.4581 118.595 59.9621 118.782 60.5594 118.782C61.4181 118.782 62.0247 118.423 62.3794 117.704H64.1014C63.8681 118.413 63.4434 118.997 62.8274 119.454C62.2207 119.902 61.4647 120.126 60.5594 120.126C59.8221 120.126 59.1594 119.963 58.5714 119.636C57.9927 119.3 57.5354 118.833 57.1994 118.236C56.8727 117.629 56.7094 116.929 56.7094 116.136C56.7094 115.343 56.8681 114.647 57.1854 114.05C57.5121 113.443 57.9647 112.977 58.5434 112.65C59.1314 112.323 59.8034 112.16 60.5594 112.16C61.2874 112.16 61.9361 112.319 62.5054 112.636C63.0747 112.953 63.5181 113.401 63.8354 113.98C64.1527 114.549 64.3114 115.207 64.3114 115.954ZM62.6454 115.45C62.6361 114.862 62.4261 114.391 62.0154 114.036C61.6047 113.681 61.0961 113.504 60.4894 113.504C59.9387 113.504 59.4674 113.681 59.0754 114.036C58.6834 114.381 58.4501 114.853 58.3754 115.45H62.6454ZM65.35 116.108C65.35 115.333 65.5087 114.647 65.826 114.05C66.1527 113.453 66.5914 112.991 67.142 112.664C67.702 112.328 68.318 112.16 68.99 112.16C69.5967 112.16 70.124 112.281 70.572 112.524C71.0294 112.757 71.3934 113.051 71.664 113.406V112.286H73.274V120H71.664V118.852C71.3934 119.216 71.0247 119.519 70.558 119.762C70.0914 120.005 69.5594 120.126 68.962 120.126C68.2994 120.126 67.6927 119.958 67.142 119.622C66.5914 119.277 66.1527 118.801 65.826 118.194C65.5087 117.578 65.35 116.883 65.35 116.108ZM71.664 116.136C71.664 115.604 71.552 115.142 71.328 114.75C71.1134 114.358 70.8287 114.059 70.474 113.854C70.1194 113.649 69.7367 113.546 69.326 113.546C68.9154 113.546 68.5327 113.649 68.178 113.854C67.8234 114.05 67.534 114.344 67.31 114.736C67.0954 115.119 66.988 115.576 66.988 116.108C66.988 116.64 67.0954 117.107 67.31 117.508C67.534 117.909 67.8234 118.217 68.178 118.432C68.542 118.637 68.9247 118.74 69.326 118.74C69.7367 118.74 70.1194 118.637 70.474 118.432C70.8287 118.227 71.1134 117.928 71.328 117.536C71.552 117.135 71.664 116.668 71.664 116.136ZM78.4223 116.15L81.9783 120H79.8223L76.9663 116.682V120H75.3703V109.64H76.9663V115.66L79.7663 112.286H81.9783L78.4223 116.15ZM86.3563 113.588H84.9283V120H83.3183V113.588H82.4083V112.286H83.3183V111.74C83.3183 110.853 83.5516 110.209 84.0183 109.808C84.4943 109.397 85.2363 109.192 86.2443 109.192V110.522C85.7589 110.522 85.4183 110.615 85.2223 110.802C85.0263 110.979 84.9283 111.292 84.9283 111.74V112.286H86.3563V113.588ZM87.2387 116.108C87.2387 115.333 87.3974 114.647 87.7147 114.05C88.0414 113.453 88.48 112.991 89.0307 112.664C89.5907 112.328 90.2067 112.16 90.8787 112.16C91.4854 112.16 92.0127 112.281 92.4607 112.524C92.918 112.757 93.282 113.051 93.5527 113.406V112.286H95.1627V120H93.5527V118.852C93.282 119.216 92.9134 119.519 92.4467 119.762C91.98 120.005 91.448 120.126 90.8507 120.126C90.188 120.126 89.5814 119.958 89.0307 119.622C88.48 119.277 88.0414 118.801 87.7147 118.194C87.3974 117.578 87.2387 116.883 87.2387 116.108ZM93.5527 116.136C93.5527 115.604 93.4407 115.142 93.2167 114.75C93.002 114.358 92.7174 114.059 92.3627 113.854C92.008 113.649 91.6254 113.546 91.2147 113.546C90.804 113.546 90.4214 113.649 90.0667 113.854C89.712 114.05 89.4227 114.344 89.1987 114.736C88.984 115.119 88.8767 115.576 88.8767 116.108C88.8767 116.64 88.984 117.107 89.1987 117.508C89.4227 117.909 89.712 118.217 90.0667 118.432C90.4307 118.637 90.8134 118.74 91.2147 118.74C91.6254 118.74 92.008 118.637 92.3627 118.432C92.7174 118.227 93.002 117.928 93.2167 117.536C93.4407 117.135 93.5527 116.668 93.5527 116.136ZM100.059 120.126C99.4523 120.126 98.9063 120.019 98.421 119.804C97.945 119.58 97.567 119.281 97.287 118.908C97.007 118.525 96.8577 118.101 96.839 117.634H98.491C98.519 117.961 98.673 118.236 98.953 118.46C99.2423 118.675 99.6017 118.782 100.031 118.782C100.479 118.782 100.824 118.698 101.067 118.53C101.319 118.353 101.445 118.129 101.445 117.858C101.445 117.569 101.305 117.354 101.025 117.214C100.754 117.074 100.32 116.92 99.723 116.752C99.1443 116.593 98.673 116.439 98.309 116.29C97.945 116.141 97.6277 115.912 97.357 115.604C97.0957 115.296 96.965 114.89 96.965 114.386C96.965 113.975 97.0863 113.602 97.329 113.266C97.5717 112.921 97.917 112.65 98.365 112.454C98.8223 112.258 99.345 112.16 99.933 112.16C100.81 112.16 101.515 112.384 102.047 112.832C102.588 113.271 102.878 113.873 102.915 114.638H101.319C101.291 114.293 101.151 114.017 100.899 113.812C100.647 113.607 100.306 113.504 99.877 113.504C99.457 113.504 99.135 113.583 98.911 113.742C98.687 113.901 98.575 114.111 98.575 114.372C98.575 114.577 98.6497 114.75 98.799 114.89C98.9483 115.03 99.1303 115.142 99.345 115.226C99.5597 115.301 99.877 115.399 100.297 115.52C100.857 115.669 101.314 115.823 101.669 115.982C102.033 116.131 102.346 116.355 102.607 116.654C102.868 116.953 103.004 117.349 103.013 117.844C103.013 118.283 102.892 118.675 102.649 119.02C102.406 119.365 102.061 119.636 101.613 119.832C101.174 120.028 100.656 120.126 100.059 120.126ZM106.6 113.588V117.858C106.6 118.147 106.665 118.357 106.796 118.488C106.936 118.609 107.169 118.67 107.496 118.67H108.476V120H107.216C106.497 120 105.946 119.832 105.564 119.496C105.181 119.16 104.99 118.614 104.99 117.858V113.588H104.08V112.286H104.99V110.368H106.6V112.286H108.476V113.588H106.6Z" fill="#1D1617"/>
<rect x="42" y="162" width="98" height="30" rx="15" fill="url(#paint1_linear_430_606)"/>
<path d="M84.964 179.404H81.628L81.076 181H79.312L82.324 172.612H84.28L87.292 181H85.516L84.964 179.404ZM84.508 178.06L83.296 174.556L82.084 178.06H84.508ZM87.9858 177.652C87.9858 176.98 88.1178 176.384 88.3818 175.864C88.6538 175.344 89.0218 174.944 89.4858 174.664C89.9498 174.384 90.4658 174.244 91.0338 174.244C91.4658 174.244 91.8778 174.34 92.2698 174.532C92.6618 174.716 92.9738 174.964 93.2058 175.276V172.12H94.9098V181H93.2058V180.016C92.9978 180.344 92.7058 180.608 92.3298 180.808C91.9538 181.008 91.5178 181.108 91.0218 181.108C90.4618 181.108 89.9498 180.964 89.4858 180.676C89.0218 180.388 88.6538 179.984 88.3818 179.464C88.1178 178.936 87.9858 178.332 87.9858 177.652ZM93.2178 177.676C93.2178 177.268 93.1378 176.92 92.9778 176.632C92.8178 176.336 92.6018 176.112 92.3298 175.96C92.0578 175.8 91.7658 175.72 91.4538 175.72C91.1418 175.72 90.8538 175.796 90.5898 175.948C90.3258 176.1 90.1098 176.324 89.9418 176.62C89.7818 176.908 89.7018 177.252 89.7018 177.652C89.7018 178.052 89.7818 178.404 89.9418 178.708C90.1098 179.004 90.3258 179.232 90.5898 179.392C90.8618 179.552 91.1498 179.632 91.4538 179.632C91.7658 179.632 92.0578 179.556 92.3298 179.404C92.6018 179.244 92.8178 179.02 92.9778 178.732C93.1378 178.436 93.2178 178.084 93.2178 177.676ZM96.1187 177.652C96.1187 176.98 96.2507 176.384 96.5147 175.864C96.7867 175.344 97.1547 174.944 97.6187 174.664C98.0827 174.384 98.5987 174.244 99.1667 174.244C99.5987 174.244 100.011 174.34 100.403 174.532C100.795 174.716 101.107 174.964 101.339 175.276V172.12H103.043V181H101.339V180.016C101.131 180.344 100.839 180.608 100.463 180.808C100.087 181.008 99.6507 181.108 99.1547 181.108C98.5947 181.108 98.0827 180.964 97.6187 180.676C97.1547 180.388 96.7867 179.984 96.5147 179.464C96.2507 178.936 96.1187 178.332 96.1187 177.652ZM101.351 177.676C101.351 177.268 101.271 176.92 101.111 176.632C100.951 176.336 100.735 176.112 100.463 175.96C100.191 175.8 99.8987 175.72 99.5867 175.72C99.2747 175.72 98.9867 175.796 98.7227 175.948C98.4587 176.1 98.2427 176.324 98.0747 176.62C97.9147 176.908 97.8347 177.252 97.8347 177.652C97.8347 178.052 97.9147 178.404 98.0747 178.708C98.2427 179.004 98.4587 179.232 98.7227 179.392C98.9947 179.552 99.2827 179.632 99.5867 179.632C99.8987 179.632 100.191 179.556 100.463 179.404C100.735 179.244 100.951 179.02 101.111 178.732C101.271 178.436 101.351 178.084 101.351 177.676Z" fill="white"/>
<defs>
<filter id="filter0_d_430_606" x="0" y="0" width="244" height="244" filterUnits="userSpaceOnUse" color-interpolation-filters="sRGB">
<feFlood flood-opacity="0" result="BackgroundImageFix"/>
<feColorMatrix in="SourceAlpha" type="matrix" values="0 0 0 0 0 0 0 0 0 0 0 0 0 0 0 0 0 0 127 0" result="hardAlpha"/>
<feOffset dy="10"/>
<feGaussianBlur stdDeviation="11"/>
<feColorMatrix type="matrix" values="0 0 0 0 0.584314 0 0 0 0 0.678431 0 0 0 0 0.996078 0 0 0 0.3 0"/>
<feBlend mode="normal" in2="BackgroundImageFix" result="effect1_dropShadow_430_606"/>
<feBlend mode="normal" in="SourceGraphic" in2="effect1_dropShadow_430_606" result="shape"/>
</filter>
<linearGradient id="paint0_linear_430_606" x1="222" y1="212" x2="-44.5587" y2="191.373" gradientUnits="userSpaceOnUse">
<stop stop-color="#92A3FD"/>
<stop offset="1" stop-color="#9DCEFF"/>
</linearGradient>
<linearGradient id="paint1_linear_430_606" x1="140" y1="192" x2="16.4957" y2="160.781" gradientUnits="userSpaceOnUse">
<stop stop-color="#92A3FD"/>
<stop offset="1" stop-color="#9DCEFF"/>
</linearGradient>
<clipPath id="clip0_430_606">
<rect width="118" height="74" fill="white" transform="translate(93 20)"/>
</clipPath>
</defs>
</svg>
