<svg width="278" height="304" viewBox="0 0 278 304" fill="none" xmlns="http://www.w3.org/2000/svg">
<path d="M132.427 292.774C205.42 292.774 264.88 266.252 276.611 192.261C288.342 118.27 186.894 152.727 188.78 85.6436C190.666 18.5884 168.313 -20.3908 107.106 11.07C45.8995 42.5308 55.1623 108.781 46.1213 139.521C28.5386 199.169 -68.3884 292.774 132.427 292.774Z" fill="#98BFFD"/>
<path d="M38.6046 145.904C45.0256 128.073 44.1915 111.441 36.7416 108.756C29.2918 106.072 18.0472 118.351 11.6262 136.182C5.20524 154.014 6.03931 170.645 13.4892 173.33C20.939 176.014 32.1836 163.735 38.6046 145.904Z" fill="#98BFFD"/>
<path d="M251.779 110.371C261.329 102.022 259.87 84.7224 248.52 71.7311C237.17 58.7398 220.228 54.9765 210.678 63.3257C201.128 71.6748 202.588 88.9746 213.938 101.966C225.287 114.957 242.23 118.72 251.779 110.371Z" fill="#98BFFD"/>
<path d="M152.61 42.2493L154.94 55.1221C155.245 56.8144 156.41 58.2293 158.018 58.8674L163.177 60.8927C163.177 60.8927 157.741 69.0214 146.842 71.3241C135.943 73.5991 129.98 63.7225 129.98 63.7225L134.584 60.2823C135.61 59.5055 136.165 58.2848 136.081 57.0086L135.249 45.0513L152.61 42.2493Z" fill="#FFEDE5"/>
<path d="M135.887 54.0124C135.887 54.0124 148.949 61.725 152.61 42.2493L135.277 45.0236L135.887 54.0124Z" fill="#DF845C"/>
<path d="M156.364 38.1618C156.856 36.074 156.289 34.1533 155.096 33.8719C153.904 33.5904 152.538 35.0548 152.045 37.1426C151.553 39.2305 152.121 41.1511 153.313 41.4326C154.506 41.714 155.872 40.2496 156.364 38.1618Z" fill="#FFEDE5"/>
<path d="M133.477 43.8325C134.538 43.2196 134.529 41.2169 133.457 39.3592C132.385 37.5016 130.656 36.4925 129.595 37.1054C128.533 37.7182 128.542 39.721 129.615 41.5787C130.687 43.4363 132.416 44.4454 133.477 43.8325Z" fill="#DF845C"/>
<path d="M153.498 38.8092C153.442 38.8092 153.414 38.8092 153.359 38.7814C153.22 38.6982 153.165 38.5317 153.248 38.4208L154.219 36.5342C154.302 36.3955 154.468 36.34 154.579 36.4233C154.718 36.5065 154.773 36.6729 154.69 36.7839L153.72 38.6705C153.692 38.7537 153.609 38.8092 153.498 38.8092Z" fill="#472938"/>
<path d="M132.615 41.417C132.559 41.417 132.476 41.3893 132.421 41.3338L130.535 39.5859C130.424 39.475 130.424 39.3085 130.507 39.1975C130.618 39.0866 130.784 39.0866 130.895 39.1698L132.781 40.9176C132.892 41.0286 132.892 41.1951 132.809 41.306C132.753 41.3893 132.67 41.417 132.615 41.417Z" fill="#472938"/>
<path d="M128.51 29.3764C128.51 29.3764 133.058 46.2997 134.778 48.7411C136.47 51.1548 141.711 53.402 142.599 53.5407C143.486 53.6794 147.008 53.3187 147.812 52.6251C148.617 51.9316 152.943 47.3539 153.609 44.3854C154.247 41.4169 154.413 25.742 151.667 22.8845C148.894 20.0269 127.124 22.3573 128.51 29.3764Z" fill="#FFEDE5"/>
<path d="M142.765 41.417C142.072 41.417 140.851 41.0563 140.685 40.9731C140.463 40.8621 140.435 40.8621 140.519 35.9793C140.519 35.6464 140.519 35.3967 140.519 35.3135C140.491 35.0915 139.825 33.9541 139.243 33.0108C139.16 32.8721 139.187 32.7056 139.326 32.6224C139.465 32.5391 139.631 32.5669 139.714 32.7056C140.214 33.5102 141.101 34.8973 141.101 35.2857C141.101 35.369 141.101 35.6186 141.101 35.9516C141.073 36.9503 141.045 39.8079 141.073 40.4737C141.406 40.5847 142.349 40.8344 142.82 40.8066C143.209 40.7789 143.819 40.3072 144.096 40.0298C144.207 39.9188 144.373 39.9188 144.484 40.0298C144.595 40.1408 144.595 40.3072 144.484 40.4182C144.401 40.5014 143.541 41.3337 142.848 41.3615C142.82 41.417 142.793 41.417 142.765 41.417Z" fill="#472938"/>
<path d="M139.326 44.3576L147.036 43.3033C147.036 43.3033 146.453 46.8545 143.708 47.4648C140.962 48.0752 139.326 44.3576 139.326 44.3576Z" fill="white"/>
<path d="M146.98 34.4812C146.509 34.5367 146.093 34.2038 146.037 33.7322L145.982 33.0941C145.927 32.6224 146.259 32.2063 146.731 32.1508C147.202 32.0953 147.618 32.4282 147.674 32.8999L147.729 33.538C147.812 34.0096 147.452 34.4258 146.98 34.4812Z" fill="#472938"/>
<path d="M136.192 36.4231C135.721 36.5063 135.277 36.2011 135.194 35.7295L135.083 35.0914C135 34.6198 135.305 34.1759 135.776 34.0926C136.248 34.0094 136.691 34.3146 136.775 34.7862L136.886 35.4243C136.969 35.896 136.664 36.3398 136.192 36.4231Z" fill="#472938"/>
<path d="M144.096 30.5694C144.096 30.5694 148.09 29.1545 150.225 30.4029C150.225 30.4029 149.865 28.6551 147.674 28.7384C145.483 28.8216 144.068 29.1268 143.847 29.6539C143.625 30.181 144.096 30.5694 144.096 30.5694Z" fill="#472938"/>
<path d="M138.161 31.6515C138.161 31.6515 133.946 31.2631 132.199 33.0109C132.199 33.0109 132.115 31.2076 134.251 30.7637C136.386 30.3198 137.828 30.2643 138.161 30.7082C138.522 31.1798 138.161 31.6515 138.161 31.6515Z" fill="#472938"/>
<path d="M131.2 38.7812L130.396 31.7899C130.396 31.7899 137.024 32.4835 142.016 27.4343C147.008 22.385 150.475 25.2148 150.475 25.2148L153.941 34.6752L154.773 33.8152C154.773 33.8152 154.968 24.9929 154.773 24.6877C154.579 24.3825 153.109 23.467 153.109 23.467C153.109 23.467 152.638 14.8666 141.961 13.1743C131.284 11.4819 128.455 22.6624 125.349 23.1063L126.597 24.6877C126.597 24.6877 126.181 25.9639 126.208 27.5452C126.236 29.1266 129.62 37.1166 129.62 37.1166L131.2 38.7812Z" fill="#3B2645"/>
<path d="M116.391 68.3277C116.391 68.3277 110.095 70.131 110.373 83.2535C110.373 83.2535 104.133 92.6307 103.439 103.839C103.439 103.839 88.1863 89.8286 87.6593 88.1085C87.1047 86.3607 87.4098 80.2295 87.0492 78.7314C86.6887 77.2332 85.3575 75.6519 85.5239 73.5434C85.6903 71.4349 86.0508 68.4664 85.8567 68.1612C85.6626 67.856 82.7506 68.1889 82.2514 70.6026C81.7522 73.0163 81.6135 75.7628 81.6135 75.7628C81.6135 75.7628 76.9267 76.9281 76.3443 77.7881C75.7619 78.6481 76.0947 80.9231 76.0947 80.9231C76.0947 80.9231 76.2056 88.5802 76.9821 89.4402C77.7586 90.3003 81.4749 92.1868 82.2514 92.7139C83.0279 93.241 91.7916 113.41 95.591 117.988C99.3904 122.566 102.913 123.842 106.213 122.76C109.513 121.678 118.637 109.36 121.577 103.645C124.517 97.9296 123.435 68.9935 116.391 68.3277Z" fill="#FFEDE5"/>
<path d="M122.963 87.3874C119.608 86.5551 117.417 87.0545 117.417 87.0545C117.417 87.0545 121.882 103.201 114.976 113.688C117.694 110.081 120.246 106.197 121.549 103.673C122.797 101.203 123.324 94.3787 122.963 87.3874Z" fill="#DF845C"/>
<path d="M103.412 103.839L106.019 105.753L103.523 102.646L103.412 103.839Z" fill="#DF845C"/>
<path d="M78.2855 77.6494C78.2855 77.6494 83.0279 78.0101 83.2775 78.2875C83.5271 78.5649 83.9153 88.3583 83.0279 89.0241C82.1127 89.7177 77.5645 89.6067 77.5645 89.6067C77.5645 89.6067 83.0001 90.1061 83.5825 89.8564C84.1649 89.6067 85.2188 86.1666 85.4129 84.391C85.607 82.6154 84.4977 77.9268 84.0817 77.8159C83.6657 77.7049 78.2855 77.6494 78.2855 77.6494Z" fill="#DF845C"/>
<path d="M176.655 274.182C176.849 268.079 177.487 259.118 177.376 250.823C177.209 238.893 176.017 225.465 175.435 221.553C174.824 217.642 176.239 199.525 176.239 199.525L151.168 203.021C151.778 204.963 156.326 221.997 156.521 229.433C156.742 236.868 165.867 271.491 166.227 274.266C166.283 274.626 166.31 275.015 166.366 275.403C168.668 275.68 173.077 275.902 176.655 274.182Z" fill="#FFEDE5"/>
<path d="M168.89 283.032C168.89 283.032 168.612 280.064 171.94 279.342C175.268 278.621 176.793 280.286 176.793 280.286C176.599 278.982 176.599 276.846 176.682 274.182C173.105 275.902 168.695 275.68 166.421 275.403C166.643 277.567 166.699 280.147 166.477 282.256C166.837 283.199 168.89 283.032 168.89 283.032Z" fill="white"/>
<path d="M165.395 295.683C168.945 297.542 167.919 301.703 172.356 302.73C176.045 303.59 181.647 303.091 183.838 302.841C184.42 302.785 184.891 302.314 185.002 301.731C185.058 301.315 185.113 300.76 185.086 300.178C182.312 300.427 175.795 300.927 173.188 300.288C169.86 299.484 169.056 296.072 167.392 295.128C166.144 294.435 165.34 293.519 165.007 293.103C164.951 293.686 164.868 294.185 164.84 294.546C164.73 295.045 164.979 295.489 165.395 295.683Z" fill="#3B2645"/>
<path d="M183.838 296.46C183.172 295.517 182.201 293.492 181.203 291.189C180.621 293.27 173.965 292.299 173.105 292.077C172.245 291.855 168.917 283.032 168.917 283.032C168.917 283.032 166.865 283.171 166.477 282.228C166.421 282.699 166.366 283.171 166.283 283.587C165.95 285.363 165.34 290.218 165.007 293.103C165.34 293.519 166.144 294.407 167.392 295.128C169.084 296.072 169.86 299.484 173.188 300.289C175.795 300.927 182.312 300.427 185.086 300.178C185.002 299.068 184.725 297.736 183.838 296.46Z" fill="#AB8DA8"/>
<path d="M173.077 292.077C173.937 292.299 180.593 293.27 181.175 291.189C179.067 286.361 176.766 280.286 176.766 280.286C176.766 280.286 175.24 278.621 171.912 279.342C168.584 280.064 168.862 283.032 168.862 283.032C168.862 283.032 172.217 291.882 173.077 292.077Z" fill="#3B2645"/>
<path d="M167.596 222.424C170.229 222.014 172.282 221.155 172.181 220.504C172.08 219.853 169.863 219.657 167.23 220.066C164.596 220.476 162.544 221.335 162.645 221.986C162.746 222.637 164.963 222.833 167.596 222.424Z" fill="#E0855C"/>
<path d="M105.603 274.654C105.63 268.523 105.963 259.617 106.351 251.322C107.045 236.59 110.262 223.634 110.262 222.053C110.262 215.783 110.983 196.335 111.371 196.806L134.584 202.438C133.918 204.353 127.567 220.444 127.096 227.879C126.624 235.314 116.474 272.351 116.003 275.098C115.947 275.458 115.892 275.819 115.836 276.235C113.534 276.402 109.125 276.485 105.603 274.654Z" fill="#FFEDE5"/>
<path d="M113.063 283.754C113.063 283.754 113.451 280.785 110.151 279.953C106.851 279.121 105.27 280.73 105.27 280.73C105.519 279.426 105.603 277.289 105.603 274.626C109.125 276.457 113.534 276.374 115.836 276.18C115.559 278.316 115.392 280.896 115.559 283.032C115.087 283.976 113.063 283.754 113.063 283.754Z" fill="white"/>
<path d="M116.114 296.516C112.48 298.263 113.396 302.453 108.931 303.313C105.214 304.034 99.6401 303.368 97.4492 303.035C96.8668 302.952 96.3953 302.48 96.3398 301.87C96.2844 301.454 96.2566 300.899 96.3121 300.316C99.0854 300.649 105.575 301.371 108.21 300.843C111.565 300.15 112.48 296.765 114.172 295.877C115.448 295.212 116.28 294.352 116.64 293.935C116.696 294.518 116.724 295.017 116.751 295.406C116.807 295.877 116.529 296.321 116.114 296.516Z" fill="#3B2645"/>
<path d="M97.6709 296.682C98.3643 295.766 99.4181 293.769 100.5 291.494C101.027 293.602 107.683 292.853 108.57 292.659C109.457 292.465 113.063 283.754 113.063 283.754C113.063 283.754 115.087 283.975 115.531 283.032C115.559 283.504 115.614 283.976 115.67 284.392C115.947 286.195 116.391 291.05 116.64 293.935C116.28 294.351 115.448 295.211 114.172 295.877C112.453 296.765 111.565 300.122 108.209 300.843C105.603 301.398 99.0853 300.677 96.312 300.316C96.3952 299.234 96.7557 297.903 97.6709 296.682Z" fill="#AB8DA8"/>
<path d="M108.542 292.659C107.655 292.853 100.999 293.602 100.472 291.494C102.746 286.722 105.242 280.73 105.242 280.73C105.242 280.73 106.823 279.12 110.123 279.953C113.423 280.785 113.035 283.754 113.035 283.754C113.035 283.754 109.43 292.465 108.542 292.659Z" fill="#3B2645"/>
<path d="M121.334 224.422C121.457 223.775 119.434 222.847 116.816 222.349C114.198 221.851 111.975 221.972 111.853 222.62C111.73 223.267 113.752 224.195 116.371 224.693C118.989 225.191 121.211 225.069 121.334 224.422Z" fill="#E0855C"/>
<path d="M173.188 146.647C173.188 146.647 177.847 176.166 176.239 199.525C176.239 199.525 167.225 206.267 146.176 202.244L142.931 183.684L137.607 202.355C137.607 202.355 115.781 203.659 109.929 195.197C109.929 195.197 113.063 160.185 119.691 146.036C126.319 131.887 171.025 135.05 173.188 146.647Z" fill="#3B2645"/>
<path d="M142.931 183.684C142.931 183.684 140.324 181.381 140.047 181.159C139.77 180.937 137.357 171.394 137.357 171.394L140.019 193.893L142.931 183.684Z" fill="#3B2645"/>
<path d="M154.857 200.025C150.17 200.025 146.786 199.664 146.703 199.664C146.62 199.664 146.564 199.581 146.592 199.498C146.592 199.414 146.675 199.359 146.759 199.387C146.953 199.414 165.562 201.384 176.405 195.919C176.461 195.891 176.544 195.919 176.599 195.974C176.627 196.03 176.599 196.113 176.544 196.168C170.193 199.359 161.291 200.025 154.857 200.025Z" fill="white"/>
<path d="M138.466 199.47C138.466 199.47 138.439 199.47 138.466 199.47C118.277 197.777 110.262 192.146 110.179 192.09C110.123 192.035 110.095 191.951 110.151 191.896C110.206 191.84 110.29 191.813 110.345 191.868C110.428 191.924 118.388 197.5 138.494 199.192C138.577 199.192 138.633 199.276 138.633 199.331C138.577 199.414 138.522 199.47 138.466 199.47Z" fill="white"/>
<path d="M159.654 59.5054C159.654 59.5054 155.383 68.078 145.594 68.7161C135.804 69.3542 132.004 62.2519 132.004 62.2519L116.391 68.3554C116.391 68.3554 119.22 78.3985 117.417 87.0821C117.417 87.0821 121.549 101.841 121.549 103.7C121.549 105.559 125.016 113.438 125.238 115.297C125.459 117.156 119.691 146.064 119.691 146.064C119.691 146.064 147.258 154.165 153.664 153.888C160.07 153.61 173.188 146.647 173.188 146.647C173.188 146.647 171.885 122.427 173.188 116.462C174.492 110.497 179.373 94.545 179.373 94.545C179.373 94.545 175.24 73.6544 176.405 65.3314L159.654 59.5054Z" fill="#AB8DA8"/>
<path d="M176.211 94.2121C176.072 94.2121 175.961 94.1289 175.934 93.9902C173.493 84.0026 173.022 64.4437 173.022 64.2495C173.022 64.083 173.133 63.972 173.299 63.972C173.465 63.972 173.576 64.083 173.576 64.2495C173.576 64.4437 174.048 83.9471 176.488 93.8792C176.516 94.0179 176.433 94.1844 176.294 94.2121C176.239 94.2121 176.211 94.2121 176.211 94.2121Z" fill="#472938"/>
<path d="M118.332 90.6333C118.277 90.6333 118.193 90.6055 118.138 90.5778C118.027 90.4668 117.999 90.3004 118.11 90.1894C122.991 84.6685 118.498 67.6619 118.443 67.4955C118.415 67.3567 118.498 67.1903 118.637 67.1625C118.776 67.1348 118.942 67.218 118.97 67.3567C119.164 68.0781 123.574 84.8072 118.498 90.5501C118.471 90.6055 118.388 90.6333 118.332 90.6333Z" fill="#472938"/>
<path d="M144.096 71.7401C134.39 71.7401 129.37 63.4171 129.314 63.3062C129.231 63.1674 129.287 63.001 129.425 62.9177C129.564 62.8345 129.73 62.89 129.814 63.0287C129.869 63.1119 135.111 71.8233 145.233 71.1297C153.442 70.5749 157.879 65.3037 159.349 63.5558C159.848 62.9455 159.987 62.8068 160.209 62.8623C160.32 62.89 160.403 62.9732 160.431 63.0842C160.486 63.2229 160.403 63.3894 160.237 63.4171C160.209 63.4171 160.209 63.4171 160.181 63.4171C160.098 63.5004 159.932 63.7223 159.765 63.9165C158.268 65.6921 153.719 71.102 145.261 71.6846C144.873 71.7401 144.484 71.7401 144.096 71.7401Z" fill="#472938"/>
<path d="M176.405 65.3315C176.405 65.3315 186.5 64.7766 188.635 80.7012C188.635 80.7012 199.007 100.399 200.2 106.697C201.393 112.994 199.257 121.872 196.65 126.422C194.043 130.972 185.363 145.676 183.782 147.923C182.201 150.17 182.451 150.753 178.319 151.058C178.319 151.058 175.268 151.613 174.658 151.89C174.048 152.168 170.359 154.137 169.61 153.86C168.862 153.61 168.141 152.611 168.279 152.417C168.446 152.195 172.301 150.115 172.301 150.115C172.301 150.115 166.088 151.169 165.506 151.141C164.924 151.113 164.064 149.809 164.064 149.809C164.064 149.809 162.039 148.894 161.79 148.173C161.54 147.451 163.759 146.009 163.759 146.009C163.759 146.009 162.428 145.676 161.956 144.982C161.485 144.289 169.721 139.877 170.72 139.933C171.718 139.988 178.485 140.848 178.485 140.848C178.485 140.848 187.471 111.94 187.554 110.137C187.637 108.333 180.426 100.815 179.317 94.545C179.372 94.545 174.741 72.7389 176.405 65.3315Z" fill="#FFEDE5"/>
<path d="M163.676 149.893C163.565 149.893 163.481 149.837 163.426 149.726C163.37 149.588 163.426 149.421 163.565 149.366L169.832 146.508C169.971 146.453 170.137 146.508 170.193 146.647C170.248 146.786 170.193 146.952 170.054 147.007L163.786 149.865C163.759 149.893 163.731 149.893 163.676 149.893Z" fill="#472938"/>
<path d="M163.814 146.314C163.703 146.314 163.62 146.258 163.565 146.175C163.482 146.037 163.537 145.87 163.676 145.787L169.805 142.513C169.943 142.43 170.11 142.485 170.193 142.624C170.276 142.763 170.221 142.929 170.082 143.012L163.953 146.286C163.898 146.286 163.842 146.314 163.814 146.314Z" fill="#472938"/>
</svg>
