<svg width="201" height="219" viewBox="0 0 201 219" fill="none" xmlns="http://www.w3.org/2000/svg">
<path d="M96.2101 211.189C148.706 211.189 191.47 192.114 199.906 138.9C208.343 85.6862 135.383 110.467 136.739 62.2218C138.096 13.996 122.019 -14.0376 77.9999 8.58883C33.9803 31.2152 40.6421 78.8623 34.1398 100.97C21.4944 143.868 -48.2149 211.189 96.2101 211.189Z" fill="#98BFFD"/>
<path d="M28.7338 105.561C33.3517 92.7364 32.7519 80.7751 27.394 78.8444C22.0361 76.9136 13.9491 85.7446 9.33112 98.5688C4.71318 111.393 5.31304 123.354 10.6709 125.285C16.0288 127.216 24.1158 118.385 28.7338 105.561Z" fill="#98BFFD"/>
<path d="M182.048 80.0058C188.916 74.0011 187.866 61.5592 179.703 52.2159C171.541 42.8727 159.356 40.1662 152.488 46.1708C145.62 52.1755 146.669 64.6174 154.832 73.9607C162.995 83.3039 175.18 86.0104 182.048 80.0058Z" fill="#98BFFD"/>
<path d="M102.096 31.0128L103.771 40.2709C103.99 41.488 104.828 42.5056 105.985 42.9645L109.695 44.421C109.695 44.421 105.785 50.2672 97.9469 51.9233C90.1083 53.5594 85.8201 46.4562 85.8201 46.4562L89.131 43.9821C89.869 43.4234 90.2679 42.5455 90.2081 41.6277L89.6097 33.028L102.096 31.0128Z" fill="#FFEDE5"/>
<path d="M90.0684 39.4728C90.0684 39.4728 99.4627 45.0196 102.096 31.0128L89.6296 33.0081L90.0684 39.4728Z" fill="#DF845C"/>
<path d="M104.795 28.0731C105.149 26.5716 104.741 25.1903 103.883 24.9879C103.026 24.7854 102.043 25.8386 101.689 27.3402C101.335 28.8417 101.743 30.223 102.601 30.4255C103.459 30.6279 104.441 29.5747 104.795 28.0731Z" fill="#FFEDE5"/>
<path d="M88.3351 32.1515C89.0982 31.7107 89.0918 30.2703 88.3207 28.9343C87.5496 27.5983 86.3059 26.8726 85.5427 27.3133C84.7796 27.7541 84.786 29.1945 85.5571 30.5305C86.3282 31.8665 87.5719 32.5923 88.3351 32.1515Z" fill="#DF845C"/>
<path d="M102.734 28.5387C102.694 28.5387 102.674 28.5387 102.634 28.5188C102.534 28.4589 102.494 28.3392 102.554 28.2594L103.252 26.9026C103.312 26.8028 103.432 26.7629 103.512 26.8228C103.611 26.8827 103.651 27.0024 103.591 27.0822L102.893 28.439C102.873 28.4988 102.814 28.5387 102.734 28.5387Z" fill="#472938"/>
<path d="M87.7149 30.4143C87.675 30.4143 87.6151 30.3944 87.5753 30.3545L86.219 29.0975C86.1392 29.0176 86.1392 28.8979 86.199 28.8181C86.2788 28.7383 86.3985 28.7383 86.4783 28.7982L87.8346 30.0552C87.9143 30.135 87.9143 30.2547 87.8545 30.3345C87.8146 30.3944 87.7548 30.4143 87.7149 30.4143Z" fill="#472938"/>
<path d="M84.7629 21.7547C84.7629 21.7547 88.034 33.9259 89.2706 35.6817C90.4873 37.4176 94.257 39.0337 94.8952 39.1335C95.5335 39.2333 98.0665 38.9739 98.645 38.4751C99.2234 37.9763 102.335 34.6841 102.814 32.5491C103.272 30.4142 103.392 19.1409 101.417 17.0858C99.4228 15.0306 83.7656 16.7067 84.7629 21.7547Z" fill="#FFEDE5"/>
<path d="M95.0149 30.4142C94.5163 30.4142 93.6387 30.1548 93.519 30.095C93.3594 30.0152 93.3395 30.0152 93.3993 26.5035C93.3993 26.2641 93.3993 26.0845 93.3993 26.0246C93.3794 25.865 92.9007 25.0469 92.4818 24.3686C92.422 24.2688 92.4419 24.1491 92.5417 24.0892C92.6414 24.0294 92.7611 24.0493 92.8209 24.1491C93.1799 24.7277 93.8182 25.7253 93.8182 26.0047C93.8182 26.0645 93.8182 26.2441 93.8182 26.4835C93.7982 27.2018 93.7783 29.257 93.7982 29.7358C94.0376 29.8156 94.7157 29.9952 95.0548 29.9753C95.334 29.9553 95.7728 29.6161 95.9723 29.4166C96.0521 29.3368 96.1717 29.3368 96.2515 29.4166C96.3313 29.4964 96.3313 29.6161 96.2515 29.6959C96.1917 29.7558 95.5734 30.3544 95.0747 30.3743C95.0548 30.4142 95.0349 30.4142 95.0149 30.4142Z" fill="#472938"/>
<path d="M92.5416 32.5291L98.0865 31.7709C98.0865 31.7709 97.6676 34.3248 95.693 34.7638C93.7184 35.2027 92.5416 32.5291 92.5416 32.5291Z" fill="white"/>
<path d="M98.0465 25.4261C97.7075 25.466 97.4083 25.2266 97.3684 24.8874L97.3285 24.4285C97.2886 24.0893 97.528 23.79 97.867 23.7501C98.2061 23.7102 98.5053 23.9496 98.5452 24.2888L98.5851 24.7477C98.6449 25.0869 98.3856 25.3862 98.0465 25.4261Z" fill="#472938"/>
<path d="M90.2878 26.8227C89.9487 26.8826 89.6296 26.6631 89.5698 26.3239L89.49 25.865C89.4301 25.5258 89.6496 25.2065 89.9886 25.1467C90.3277 25.0868 90.6468 25.3063 90.7067 25.6455L90.7864 26.1044C90.8463 26.4436 90.6269 26.7628 90.2878 26.8227Z" fill="#472938"/>
<path d="M95.9723 22.6128C95.9723 22.6128 98.8444 21.5952 100.38 22.4931C100.38 22.4931 100.121 21.236 98.5452 21.2959C96.9695 21.3558 95.9523 21.5752 95.7928 21.9543C95.6332 22.3334 95.9723 22.6128 95.9723 22.6128Z" fill="#472938"/>
<path d="M91.7039 23.391C91.7039 23.391 88.6722 23.1117 87.4157 24.3687C87.4157 24.3687 87.3558 23.0717 88.8916 22.7525C90.4274 22.4333 91.4646 22.3934 91.7039 22.7126C91.9632 23.0518 91.7039 23.391 91.7039 23.391Z" fill="#472938"/>
<path d="M86.6977 28.5186L86.1193 23.4905C86.1193 23.4905 90.8862 23.9894 94.4764 20.358C98.0666 16.7266 100.56 18.7617 100.56 18.7617L103.053 25.5656L103.651 24.9471C103.651 24.9471 103.791 18.6021 103.651 18.3826C103.512 18.1632 102.455 17.5047 102.455 17.5047C102.455 17.5047 102.116 11.3194 94.4365 10.1023C86.7575 8.88514 84.7231 16.9261 82.4892 17.2453L83.3867 18.3826C83.3867 18.3826 83.0876 19.3005 83.1075 20.4378C83.1275 21.5751 85.5608 27.3215 85.5608 27.3215L86.6977 28.5186Z" fill="#3B2645"/>
<path d="M76.0468 49.7683C76.0468 49.7683 71.5192 51.0652 71.7186 60.5028C71.7186 60.5028 67.2309 67.2469 66.7323 75.3078C66.7323 75.3078 55.7623 65.2316 55.3833 63.9946C54.9844 62.7375 55.2038 58.328 54.9445 57.2505C54.6852 56.1731 53.7278 55.0358 53.8475 53.5194C53.9672 52.003 54.2265 49.868 54.0869 49.6486C53.9472 49.4291 51.853 49.6685 51.494 51.4044C51.1349 53.1403 51.0352 55.1156 51.0352 55.1156C51.0352 55.1156 47.6644 55.9536 47.2456 56.5722C46.8267 57.1907 47.0661 58.8268 47.0661 58.8268C47.0661 58.8268 47.1458 64.3338 47.7043 64.9523C48.2628 65.5708 50.9355 66.9276 51.494 67.3067C52.0524 67.6858 58.3552 82.1914 61.0877 85.4836C63.8202 88.7758 66.3533 89.6937 68.7268 88.9155C71.1003 88.1374 77.6624 79.2783 79.7766 75.1681C81.8908 71.0578 81.113 50.2471 76.0468 49.7683Z" fill="#FFEDE5"/>
<path d="M80.7738 63.4759C78.3604 62.8773 76.7847 63.2365 76.7847 63.2365C76.7847 63.2365 79.996 74.849 75.0295 82.3911C76.9842 79.7973 78.8192 77.0039 79.7566 75.1882C80.6542 73.4124 81.0331 68.504 80.7738 63.4759Z" fill="#DF845C"/>
<path d="M66.7123 75.3078L68.5872 76.6845L66.7921 74.4498L66.7123 75.3078Z" fill="#DF845C"/>
<path d="M48.6417 56.4724C48.6417 56.4724 52.0524 56.7318 52.2319 56.9313C52.4114 57.1308 52.6906 64.1742 52.0524 64.653C51.3942 65.1518 48.1231 65.072 48.1231 65.072C48.1231 65.072 52.0324 65.4312 52.4513 65.2516C52.8701 65.072 53.628 62.5979 53.7677 61.3209C53.9073 60.0439 53.1095 56.6719 52.8103 56.5921C52.5111 56.5123 48.6417 56.4724 48.6417 56.4724Z" fill="#DF845C"/>
<path d="M119.388 197.818C119.528 193.428 119.987 186.983 119.907 181.017C119.787 172.438 118.93 162.781 118.511 159.967C118.072 157.154 119.089 144.125 119.089 144.125L101.058 146.639C101.497 148.036 104.768 160.287 104.908 165.634C105.067 170.981 111.629 195.882 111.889 197.878C111.929 198.137 111.949 198.416 111.989 198.696C113.644 198.895 116.815 199.055 119.388 197.818Z" fill="#FFEDE5"/>
<path d="M113.804 204.183C113.804 204.183 113.604 202.048 115.998 201.529C118.391 201.01 119.488 202.207 119.488 202.207C119.348 201.269 119.348 199.733 119.408 197.818C116.835 199.055 113.664 198.895 112.028 198.696C112.188 200.252 112.228 202.107 112.068 203.624C112.328 204.302 113.804 204.183 113.804 204.183Z" fill="white"/>
<path d="M111.29 213.281C113.843 214.618 113.105 217.611 116.297 218.349C118.949 218.968 122.978 218.608 124.554 218.429C124.973 218.389 125.312 218.05 125.392 217.631C125.432 217.331 125.472 216.932 125.452 216.513C123.457 216.693 118.77 217.052 116.895 216.593C114.502 216.015 113.923 213.56 112.726 212.882C111.829 212.383 111.25 211.725 111.011 211.425C110.971 211.844 110.911 212.204 110.891 212.463C110.812 212.822 110.991 213.141 111.29 213.281Z" fill="#3B2645"/>
<path d="M124.554 213.84C124.075 213.161 123.377 211.705 122.659 210.049C122.24 211.545 117.454 210.847 116.835 210.687C116.217 210.527 113.823 204.183 113.823 204.183C113.823 204.183 112.348 204.282 112.068 203.604C112.028 203.943 111.988 204.282 111.929 204.582C111.689 205.859 111.251 209.35 111.011 211.425C111.251 211.725 111.829 212.363 112.726 212.882C113.943 213.56 114.502 216.014 116.895 216.593C118.77 217.052 123.457 216.693 125.452 216.513C125.392 215.715 125.192 214.757 124.554 213.84Z" fill="#AB8DA8"/>
<path d="M116.815 210.687C117.434 210.847 122.22 211.545 122.639 210.049C121.123 206.577 119.468 202.207 119.468 202.207C119.468 202.207 118.371 201.01 115.978 201.529C113.584 202.048 113.784 204.183 113.784 204.183C113.784 204.183 116.197 210.547 116.815 210.687Z" fill="#3B2645"/>
<path d="M112.873 160.593C114.767 160.299 116.244 159.68 116.171 159.212C116.098 158.744 114.504 158.603 112.61 158.898C110.716 159.192 109.24 159.811 109.312 160.279C109.385 160.747 110.979 160.888 112.873 160.593Z" fill="#E0855C"/>
<path d="M68.2881 198.157C68.308 193.747 68.5474 187.342 68.8266 181.376C69.3252 170.782 71.6389 161.464 71.6389 160.326C71.6389 155.817 72.1575 141.83 72.4367 142.169L89.1311 146.22C88.6524 147.597 84.0849 159.169 83.7458 164.516C83.4067 169.864 76.1067 196.501 75.7676 198.476C75.7277 198.735 75.6878 198.995 75.648 199.294C73.9925 199.414 70.8212 199.474 68.2881 198.157Z" fill="#FFEDE5"/>
<path d="M73.6534 204.701C73.6534 204.701 73.9327 202.566 71.5592 201.968C69.1857 201.369 68.0488 202.526 68.0488 202.526C68.2283 201.589 68.2881 200.052 68.2881 198.137C70.8212 199.454 73.9925 199.394 75.648 199.254C75.4485 200.791 75.3289 202.646 75.4485 204.183C75.1095 204.861 73.6534 204.701 73.6534 204.701Z" fill="white"/>
<path d="M75.8474 213.88C73.2346 215.137 73.8928 218.149 70.6816 218.768C68.0089 219.287 63.9999 218.808 62.4242 218.568C62.0053 218.509 61.6662 218.169 61.6263 217.73C61.5865 217.431 61.5665 217.032 61.6064 216.613C63.6009 216.852 68.2682 217.371 70.163 216.992C72.5764 216.493 73.2346 214.059 74.4513 213.421C75.3688 212.942 75.9671 212.323 76.2264 212.024C76.2663 212.443 76.2862 212.802 76.3062 213.081C76.3461 213.421 76.1466 213.74 75.8474 213.88Z" fill="#3B2645"/>
<path d="M62.5837 213.999C63.0823 213.341 63.8402 211.904 64.6181 210.268C64.997 211.784 69.784 211.246 70.4222 211.106C71.0605 210.966 73.6534 204.701 73.6534 204.701C73.6534 204.701 75.1094 204.861 75.4285 204.182C75.4485 204.522 75.4884 204.861 75.5282 205.16C75.7277 206.457 76.0468 209.949 76.2263 212.024C75.967 212.323 75.3687 212.942 74.4512 213.421C73.2146 214.059 72.5763 216.473 70.1629 216.992C68.288 217.391 63.6009 216.872 61.6063 216.613C61.6662 215.835 61.9255 214.877 62.5837 213.999Z" fill="#AB8DA8"/>
<path d="M70.4023 211.106C69.764 211.246 64.9771 211.784 64.5981 210.268C66.2337 206.836 68.0288 202.526 68.0288 202.526C68.0288 202.526 69.1657 201.369 71.5392 201.968C73.9127 202.566 73.6334 204.701 73.6334 204.701C73.6334 204.701 71.0405 210.966 70.4023 211.106Z" fill="#3B2645"/>
<path d="M79.6018 162.031C79.6902 161.565 78.2355 160.897 76.3525 160.539C74.4695 160.182 72.8714 160.269 72.7829 160.734C72.6945 161.2 74.1493 161.867 76.0322 162.225C77.9152 162.583 79.5134 162.496 79.6018 162.031Z" fill="#E0855C"/>
<path d="M116.895 106.095C116.895 106.095 120.246 127.325 119.089 144.125C119.089 144.125 112.607 148.973 97.4682 146.08L95.1346 132.732L91.3051 146.16C91.3051 146.16 75.608 147.098 71.3995 141.012C71.3995 141.012 73.6534 115.832 78.4203 105.656C83.1873 95.48 115.339 97.7547 116.895 106.095Z" fill="#3B2645"/>
<path d="M95.1346 132.732C95.1346 132.732 93.2598 131.076 93.0603 130.916C92.8609 130.756 91.1256 123.893 91.1256 123.893L93.0404 140.074L95.1346 132.732Z" fill="#3B2645"/>
<path d="M103.711 144.484C100.34 144.484 97.9071 144.225 97.8472 144.225C97.7874 144.225 97.7475 144.165 97.7675 144.105C97.7675 144.045 97.8273 144.005 97.8871 144.025C98.0267 144.045 111.41 145.462 119.209 141.531C119.249 141.511 119.309 141.531 119.348 141.571C119.368 141.611 119.348 141.671 119.309 141.711C114.741 144.005 108.339 144.484 103.711 144.484Z" fill="white"/>
<path d="M91.9235 144.085C91.9235 144.085 91.9035 144.085 91.9235 144.085C77.4032 142.868 71.6389 138.817 71.5791 138.778C71.5392 138.738 71.5193 138.678 71.5592 138.638C71.599 138.598 71.6589 138.578 71.6988 138.618C71.7586 138.658 77.483 142.668 91.9434 143.885C92.0032 143.885 92.0431 143.945 92.0431 143.985C92.0032 144.045 91.9634 144.085 91.9235 144.085Z" fill="white"/>
<path d="M107.162 43.4233C107.162 43.4233 104.09 49.5887 97.0493 50.0476C90.0086 50.5066 87.276 45.3987 87.276 45.3987L76.0468 49.7883C76.0468 49.7883 78.0812 57.0111 76.7847 63.2563C76.7847 63.2563 79.7566 73.8712 79.7566 75.208C79.7566 76.5449 82.2498 82.2114 82.4093 83.5483C82.5689 84.8851 78.4203 105.676 78.4203 105.676C78.4203 105.676 98.246 111.502 102.853 111.302C107.461 111.103 116.895 106.095 116.895 106.095C116.895 106.095 115.958 88.6761 116.895 84.3863C117.832 80.0964 121.343 68.6236 121.343 68.6236C121.343 68.6236 118.371 53.5992 119.209 47.6134L107.162 43.4233Z" fill="#AB8DA8"/>
<path d="M119.069 68.3842C118.969 68.3842 118.89 68.3244 118.87 68.2246C117.114 61.0416 116.775 46.9749 116.775 46.8353C116.775 46.7156 116.855 46.6357 116.975 46.6357C117.095 46.6357 117.174 46.7156 117.174 46.8353C117.174 46.9749 117.513 61.0017 119.269 68.1448C119.289 68.2445 119.229 68.3643 119.129 68.3842C119.089 68.3842 119.069 68.3842 119.069 68.3842Z" fill="#472938"/>
<path d="M77.4429 65.8104C77.403 65.8104 77.3432 65.7904 77.3033 65.7704C77.2235 65.6906 77.2036 65.5709 77.2833 65.4911C80.7937 61.5205 77.5626 49.2895 77.5227 49.1698C77.5027 49.07 77.5626 48.9503 77.6623 48.9303C77.762 48.9104 77.8817 48.9702 77.9016 49.07C78.0413 49.5888 81.2126 61.6203 77.5626 65.7505C77.5426 65.7904 77.4828 65.8104 77.4429 65.8104Z" fill="#472938"/>
<path d="M95.9723 52.2225C88.9914 52.2225 85.3813 46.2367 85.3414 46.1569C85.2816 46.0571 85.3215 45.9374 85.4212 45.8775C85.5209 45.8177 85.6406 45.8576 85.7004 45.9574C85.7403 46.0172 89.51 52.2824 96.7901 51.7835C102.694 51.3845 105.885 47.5935 106.942 46.3365C107.301 45.8975 107.401 45.7977 107.561 45.8376C107.64 45.8576 107.7 45.9174 107.72 45.9973C107.76 46.097 107.7 46.2167 107.581 46.2367C107.561 46.2367 107.561 46.2367 107.541 46.2367C107.481 46.2965 107.361 46.4562 107.242 46.5958C106.164 47.8728 102.893 51.7636 96.81 52.1826C96.5308 52.2225 96.2516 52.2225 95.9723 52.2225Z" fill="#472938"/>
<path d="M119.209 47.6134C119.209 47.6134 126.469 47.2143 128.005 58.6672C128.005 58.6672 135.464 72.8336 136.322 77.3629C137.18 81.8922 135.644 88.277 133.769 91.5493C131.894 94.8215 125.651 105.396 124.514 107.013C123.377 108.629 123.557 109.048 120.585 109.267C120.585 109.267 118.391 109.666 117.952 109.866C117.513 110.065 114.861 111.482 114.322 111.283C113.784 111.103 113.265 110.385 113.365 110.245C113.484 110.085 116.257 108.589 116.257 108.589C116.257 108.589 111.789 109.347 111.37 109.327C110.951 109.307 110.333 108.369 110.333 108.369C110.333 108.369 108.877 107.711 108.697 107.192C108.518 106.673 110.114 105.636 110.114 105.636C110.114 105.636 109.156 105.396 108.817 104.898C108.478 104.399 114.402 101.226 115.12 101.266C115.838 101.306 120.705 101.925 120.705 101.925C120.705 101.925 127.167 81.134 127.227 79.837C127.287 78.5401 122.101 73.1329 121.303 68.6236C121.343 68.6236 118.012 52.9408 119.209 47.6134Z" fill="#FFEDE5"/>
<path d="M110.054 108.429C109.974 108.429 109.914 108.389 109.874 108.31C109.834 108.21 109.874 108.09 109.974 108.05L114.482 105.995C114.581 105.955 114.701 105.995 114.741 106.095C114.781 106.195 114.741 106.314 114.641 106.354L110.133 108.409C110.114 108.429 110.094 108.429 110.054 108.429Z" fill="#472938"/>
<path d="M110.153 105.856C110.074 105.856 110.014 105.816 109.974 105.756C109.914 105.656 109.954 105.536 110.054 105.476L114.462 103.122C114.561 103.062 114.681 103.102 114.741 103.202C114.801 103.302 114.761 103.421 114.661 103.481L110.253 105.836C110.213 105.836 110.173 105.856 110.153 105.856Z" fill="#472938"/>
</svg>
