<svg xmlns="http://www.w3.org/2000/svg" width="130" height="97" fill="none" viewBox="0 0 130 97"><path fill="#3C8F7C" d="M18.797 71.0361C18.5801 71.1631 17.8207 71.3942 17.4391 72.021C17.0066 72.5763 16.9519 73.5342 16.9808 73.5148C17.021 73.5558 16.4395 72.5937 16.4647 71.5643C16.4106 70.5356 16.9638 69.4403 17.4517 69.2369C18.3544 68.6733 19.5093 69.1765 19.6042 69.7297C19.7129 70.2878 19.2496 70.7244 18.797 71.0361Z"/><path fill="#3C8F7C" d="M9.2861 64.9214C9.38731 64.8284 9.64444 64.4871 10.0097 64.3567C10.3523 64.1964 10.8031 64.2485 10.7886 64.2603C10.7993 64.2832 10.4743 63.9287 9.99209 63.8565C9.52939 63.7476 8.91456 63.921 8.72408 64.134C8.28401 64.5163 8.28716 65.1052 8.52353 65.1954C8.75991 65.2856 9.05224 65.1115 9.2861 64.9214Z"/><path fill="#3C8F7C" d="M10.2623 62.5259C10.2572 62.6717 10.1692 63.1055 10.2981 63.504C10.393 63.9017 10.7048 64.2675 10.7048 64.2439C10.7275 64.2398 10.2736 64.1697 9.92907 63.7941C9.56822 63.4561 9.31739 62.8119 9.35574 62.5141C9.36265 61.8964 9.78637 61.5424 9.99571 61.6902C10.2051 61.8381 10.2554 62.2073 10.2623 62.5259Z"/><path fill="#D3D7E3" d="M39.2324 0H100.928C101.29 0 101.637 0.158695 101.892 0.441174C102.148 0.723653 102.292 1.10678 102.292 1.50626V95.4916C102.292 95.891 102.148 96.274 101.892 96.5565C101.636 96.8389 101.29 96.9977 100.928 96.9978H39.2317C38.87 96.9977 38.5232 96.8389 38.2674 96.5565C38.0116 96.274 37.8679 95.891 37.8677 95.4916V1.50626C37.8679 1.10671 38.0117 0.723591 38.2676 0.441131C38.5235 0.158672 38.8706 -4.23859e-08 39.2324 0Z"/><path fill="#F47458" d="M39.0727 0H101.087C101.406 0 101.713 0.140194 101.939 0.389739C102.165 0.639284 102.292 0.97774 102.292 1.33065V20.184H37.8677V1.33065C37.8677 0.97774 37.9947 0.639284 38.2206 0.389739C38.4466 0.140194 38.7531 0 39.0727 0Z"/><path fill="#fff" d="M58.7705 27.3574L40.6628 27.3225L40.6335 45.8454L58.7412 45.8803L58.7705 27.3574Z" opacity=".71"/><path fill="#fff" d="M79.2146 27.4149L61.1068 27.3765L61.0746 45.8993L79.1824 45.9377L79.2146 27.4149Z" opacity=".71"/><path fill="#fff" d="M99.6739 27.437L81.5655 27.4021L81.5362 45.925L99.6446 45.9599L99.6739 27.437Z" opacity=".71"/><path fill="#fff" d="M58.7262 49.011L40.6177 48.9727L40.5855 67.4955L58.694 67.5339L58.7262 49.011Z" opacity=".71"/><path fill="#fff" d="M79.1887 49.0364L61.0804 49.0015L61.0511 67.5243L79.1594 67.5592L79.1887 49.0364Z" opacity=".71"/><path fill="#fff" d="M99.6288 49.0977L81.5204 49.0593L81.4882 67.5822L99.5966 67.6206L99.6288 49.0977Z" opacity=".71"/><path fill="#fff" d="M58.6893 70.649L40.5815 70.6106L40.5493 89.1335L58.6571 89.1719L58.6893 70.649Z" opacity=".71"/><path fill="#fff" d="M79.1554 70.6743L61.0471 70.6394L61.0178 89.1622L79.1262 89.1971L79.1554 70.6743Z" opacity=".71"/><path fill="#fff" d="M99.6063 70.7136L81.4979 70.6787L81.4686 89.2016L99.577 89.2365L99.6063 70.7136Z" opacity=".71"/><path fill="#F47458" d="M55.4173 31.8239L53.9357 30.167L49.6934 34.7927L45.4516 30.167L43.9701 31.8239L48.1929 36.4287L43.9701 41.0336L45.451 42.6898L49.6934 38.0648L53.9357 42.6905L55.4167 41.0336L51.1938 36.4287L55.4173 31.8239Z"/><path fill="#F47458" d="M96.953 31.9828L95.4721 30.3259L91.2297 34.9509L86.988 30.3252L85.5064 31.9821L89.7293 36.587L85.5064 41.1918L86.9874 42.8487L91.2297 38.223L95.4715 42.8487L96.953 41.1918L92.7302 36.587L96.953 31.9828Z"/><path fill="#F47458" d="M96.6719 74.8927L95.191 73.2358L90.9486 77.8615L86.7069 73.2358L85.2253 74.892L89.4482 79.4969L85.2253 84.1018L86.7063 85.7586L90.9486 81.133L95.1903 85.7586L96.6719 84.1024L92.4491 79.4969L96.6719 74.8927Z"/><path fill="#fff" d="M53.7919 8.40859L41.6551 8.3836C41.5571 8.3836 41.4601 8.36228 41.3696 8.32087C41.2792 8.27945 41.1969 8.21875 41.1277 8.14224C41.0585 8.06572 41.0036 7.97488 40.9661 7.87492C40.9287 7.77496 40.9095 7.66784 40.9096 7.55967L40.9133 5.60291C40.9136 5.49451 40.9332 5.38723 40.9711 5.28723C41.009 5.18723 41.0644 5.09647 41.1341 5.02017C41.2039 4.94388 41.2866 4.88354 41.3775 4.84262C41.4684 4.80171 41.5657 4.78103 41.6639 4.78176L53.8007 4.80605C53.8986 4.80623 53.9955 4.82771 54.0858 4.86926C54.1762 4.91081 54.2582 4.97161 54.3273 5.0482C54.3964 5.12478 54.4511 5.21564 54.4883 5.31559C54.5256 5.41553 54.5446 5.5226 54.5444 5.63068V7.58743C54.5442 7.69604 54.5246 7.80353 54.4866 7.90372C54.4486 8.0039 54.393 8.09478 54.3231 8.17113C54.2531 8.24747 54.1702 8.30776 54.079 8.34852C53.9879 8.38927 53.8903 8.40969 53.7919 8.40859Z" opacity=".8"/><path fill="#fff" d="M97.7398 8.49756L58.0374 8.41773C57.9395 8.41755 57.8426 8.39608 57.7522 8.35454C57.6618 8.31299 57.5798 8.2522 57.5106 8.17563C57.4415 8.09905 57.3868 8.0082 57.3495 7.90825C57.3121 7.8083 57.293 7.70121 57.2932 7.5931L57.297 5.63635C57.297 5.5283 57.3164 5.42134 57.354 5.32157C57.3915 5.2218 57.4465 5.13119 57.5158 5.05492C57.5851 4.97865 57.6674 4.91822 57.7578 4.87708C57.8483 4.83595 57.9452 4.81491 58.0431 4.81519L97.7454 4.89501C97.9427 4.8963 98.1314 4.98377 98.2704 5.1383C98.4094 5.29282 98.4873 5.50184 98.4872 5.71964V7.6764C98.487 7.78453 98.4675 7.89157 98.4299 7.99139C98.3922 8.09121 98.3371 8.18184 98.2677 8.25811C98.1983 8.33438 98.1159 8.39479 98.0253 8.43587C97.9347 8.47696 97.8377 8.49792 97.7398 8.49756Z" opacity=".8"/><path fill="#fff" d="M97.5454 17.0978L41.8994 16.9847C41.7663 16.9845 41.6346 16.9553 41.5117 16.8989C41.3888 16.8424 41.2772 16.7598 41.1833 16.6557C41.0894 16.5515 41.0149 16.428 40.9643 16.2921C40.9136 16.1562 40.8877 16.0106 40.888 15.8636L40.8924 13.203C40.8927 13.0561 40.9191 12.9106 40.9703 12.775C41.0214 12.6393 41.0963 12.5161 41.1906 12.4124C41.2848 12.3087 41.3967 12.2265 41.5197 12.1706C41.6427 12.1146 41.7745 12.0859 41.9076 12.0862L97.5523 12.2014C97.6854 12.2016 97.8172 12.2307 97.9401 12.2872C98.063 12.3436 98.1747 12.4263 98.2687 12.5304C98.3626 12.6345 98.4371 12.758 98.4879 12.8939C98.5386 13.0298 98.5646 13.1754 98.5643 13.3224L98.5599 15.983C98.5588 16.2793 98.4513 16.5629 98.2612 16.7718C98.071 16.9808 97.8136 17.098 97.5454 17.0978Z" opacity=".8"/><path fill="#F7A491" d="M21.9165 44.981C22.325 44.6138 25.4843 46.1451 25.4447 46.6782C25.4051 47.2113 27.6467 52.3777 27.6467 52.3777L31.5263 48.9619C31.5609 48.8383 31.9286 47.5098 31.9462 47.2724C31.9651 47.0232 32.6207 46.5866 32.9249 46.6476C33.2292 46.7087 32.6647 47.1335 32.6276 47.2106C32.5271 47.4188 32.9168 47.5007 32.9168 47.5007C32.9168 47.5007 34.0382 46.8212 34.0614 46.4221C34.0847 46.0229 34.3166 45.1851 34.5593 45.36C34.685 45.4503 34.685 46.0444 34.6441 46.3263C34.7158 46.0063 34.8176 45.6453 34.917 45.6092C35.0986 45.544 35.1885 45.7987 35.1558 45.9237C35.1231 46.0486 34.8302 47.407 34.7409 47.5604C34.6517 47.7138 32.8439 49.3201 32.583 49.6699C32.583 49.6699 27.5656 56.0039 27.2079 56.1698C26.8936 56.3148 25.7766 54.1318 24.7206 52.6831C23.6646 51.2345 20.6398 46.127 21.9165 44.981Z"/><path fill="#F48C7F" d="M11.7932 91.5581C11.7932 91.5581 11.1017 92.3008 11.0879 92.5736C11.074 92.8464 11.025 95.7666 11.3079 96.0401C11.5908 96.3136 12.4168 96.5059 12.1509 96.8127C11.9497 97.0445 10.4039 96.9946 9.37979 96.9328C9.08055 96.9147 8.70523 94.2798 8.58705 93.8925C8.41479 93.3302 7.99674 92.0635 8.15327 91.6713C8.22934 91.4804 8.59333 91.0882 9.10758 90.7217C9.6476 90.3365 10.165 89.4785 10.165 89.4785L11.7932 91.5581Z"/><path fill="#F7A491" d="M18.934 93.2878C18.934 93.2878 18.3166 95.2126 18.316 95.2181C18.2701 95.5229 18.0897 96.276 18.0897 96.5536C18.0897 97.5948 22.3432 95.6693 21.3901 95.2077C21.304 95.1661 21.033 94.8322 21.0048 94.4775C20.9608 93.9319 21.3631 93.2468 21.3631 93.2468L18.934 93.2878Z"/><path fill="#355389" d="M25.6078 57.4436C25.6078 57.4436 25.9178 60.8948 25.9178 60.9462C25.9178 66.5284 26.9205 77.4318 26.7294 78.4813C26.2648 81.0413 21.26 94.0993 21.26 94.0993L18.5568 93.7425L22.0811 78.1079L20.7841 71.8149L18.9491 59.3761L25.6078 57.4436Z"/><path fill="#13375B" d="M16.5296 60.4955L16.0167 63.7662L14.6288 77.2268L9.34106 90.3827C9.34106 90.3827 10.0853 92.2964 11.1822 92.5657L19.5996 79.0587L24.827 61.7748L24.6434 57.9355L16.5296 60.4955Z"/><path fill="#CF5338" d="M26.6853 49.2278L22.9347 49.6505C22.9347 49.6505 22.7631 46.2555 22.7631 44.6361C22.7631 42.6717 22.9146 40.1409 23.1296 40.1937C23.7325 40.3464 24.5447 40.7136 25.0282 41.4473C26.7036 43.9878 26.6853 49.2278 26.6853 49.2278Z"/><path fill="#F47458" d="M24.842 44.2899C24.9206 44.8889 26.362 61.1732 26.362 61.1732C19.5367 64.8167 15.7652 61.8215 15.7652 61.8215C15.7652 61.8215 15.9883 50.3864 15.7205 48.8302C15.5433 47.8008 15.3227 40.958 15.9267 40.7664C16.7024 40.52 17.5912 40.259 18.5605 40.148C19.3877 40.0529 22.6017 39.998 23.1763 40.2111C23.1782 40.2111 24.512 41.7716 24.842 44.2899Z"/><path fill="#184655" d="M9.14055 90.7029C9.14055 90.7029 10.7298 95.6444 11.3522 95.8825C11.5175 95.9463 12.3103 96.1067 12.4592 96.494C12.5045 96.6106 12.4592 97 12.4592 97H9.14683C9.14683 97 8.72752 94.8225 8.56218 93.866C8.56218 93.866 7.6852 91.5289 7.78264 91.3165C7.88009 91.1041 9.14055 90.7029 9.14055 90.7029Z"/><path fill="#184655" d="M17.8468 96.8972L18.334 95.198C18.334 95.198 19.3568 95.6756 19.8685 95.5964C20.3803 95.5173 21.3773 95.198 21.3773 95.198C23.4192 95.94 25.0921 96.3003 24.7878 96.8972H17.8468Z"/><path fill="#F7A491" d="M27.2107 56.1747C27.2469 56.1494 27.2814 56.121 27.3138 56.09C27.1925 54.4935 27.2145 52.949 27.6677 52.4263C27.657 52.4013 27.5577 52.1681 27.454 51.9272C26.9284 52.3757 26.6788 53.5682 26.7769 55.5041C26.7926 55.639 26.8157 55.7728 26.8461 55.9046C26.9982 56.0893 27.1365 56.2094 27.2107 56.1747Z"/><path fill="#F2E9DA" d="M37.1829 44.3223L43.372 33.9319L32.7432 38.0425L31.3276 42.5669L37.1829 44.3223Z"/><path fill="#E0D5C3" d="M31.3276 42.5669L32.8337 43.0181L43.372 33.9319L32.7432 38.0425L31.3276 42.5669Z"/><path fill="#E8BA70" d="M32.7439 38.0426L35.4952 36.9785L33.996 39.8133L0.230064 68.9259L0 66.275L32.7439 38.0426Z"/><path fill="#F7CC7F" d="M33.9964 39.8133L37.1406 39.3059L35.9325 42.5517L2.16715 71.6643L0.230469 68.9259L33.9964 39.8133Z"/><path fill="#FAE0B2" d="M35.9317 42.5516L38.7855 41.6326L37.1832 44.3223L4.4393 72.554L2.16632 71.6641L35.9317 42.5516Z"/><path fill="#DB3F2A" d="M41.2716 37.4581L43.3719 33.9319L39.7647 35.3271L41.0465 35.9407L41.2716 37.4581Z"/><path fill="#F8A492" d="M9.00408 61.3459C9.0003 61.3111 9.0003 61.2759 9.00408 61.2411C9.10466 60.1138 9.95273 50.6438 10.0954 50.2412C10.2243 49.8774 14.0277 43.8718 14.0277 43.8718L15.8973 46.6838L12.2392 52.0709C12.1574 52.4131 10.8379 58.804 10.8379 58.804C10.8379 58.804 10.5669 59.9694 10.4462 60.6677C10.5015 60.8357 10.5556 60.9946 10.6034 61.1251C10.7137 61.3718 10.8457 61.606 10.9976 61.8241C11.161 62.0664 11.4313 62.5946 11.4647 62.7362C11.5036 62.9007 11.5734 63.2422 11.613 63.4491C11.6526 63.6559 11.7067 63.8954 11.7155 64.0044C11.7409 64.1104 11.7807 64.2115 11.8337 64.3043C11.8498 64.3359 11.8569 64.3721 11.854 64.4082C11.8512 64.4444 11.8386 64.4787 11.8178 64.5068C11.7971 64.5349 11.7691 64.5554 11.7376 64.5657C11.7062 64.576 11.6726 64.5756 11.6413 64.5646C11.508 64.516 11.4049 64.3258 11.3408 64.2071C11.161 63.8732 11.0648 63.2631 11.0202 63.2957C10.9756 63.3283 10.8178 64.3626 10.7926 64.4799C10.7675 64.5972 10.5789 65.7987 10.472 66.0181C10.3651 66.2374 10.2237 66.2006 10.1866 66.0632C10.1545 65.9452 10.3041 64.264 10.3041 64.264C10.3041 64.264 10.323 64.0488 10.2381 64.1162C10.1533 64.1835 10.0137 65.7127 9.95461 65.9327C9.89552 66.1527 9.76098 66.2749 9.64594 66.0951C9.50701 65.8765 9.74653 64.2578 9.74653 64.2578C9.74653 64.2578 9.77293 64.0544 9.69435 64.0731C9.61576 64.0919 9.51706 65.392 9.45608 65.5058C9.3951 65.6196 9.23982 65.6585 9.16627 65.4711C9.07952 65.2497 9.30458 63.8052 9.30458 63.8052C9.30458 63.8052 9.29326 63.6906 9.24171 63.7288C9.19016 63.767 9.03677 64.8686 8.93492 64.9713C8.92483 64.983 8.91268 64.9923 8.89923 64.9987C8.88577 65.0051 8.87129 65.0083 8.85666 65.0083C8.84202 65.0083 8.82754 65.0051 8.81408 64.9987C8.80063 64.9923 8.78848 64.983 8.77839 64.9713C8.58979 64.8325 8.87772 63.7823 8.8752 63.261C8.87269 62.7397 9.09146 62.1504 9.02608 61.5333C9.02231 61.5014 9.01099 61.4056 9.00408 61.3459Z"/><path fill="#CF5338" d="M11.0569 47.675L14.3052 50.0836C14.3052 50.0836 16.1365 47.0745 17.1197 46.0035C18.3506 44.6617 16.6708 40.5518 15.8775 40.7836C14.1034 41.3042 11.0569 47.675 11.0569 47.675Z"/><path fill="#F7A491" d="M19.4738 37.0001L19.0338 40.2035C19.0338 40.2035 20.6412 44.0212 21.6006 43.6866C22.4059 43.409 21.9105 40.0341 21.9105 40.0341C21.9105 40.0341 21.4704 38.2218 21.6037 37.3152C21.737 36.4087 19.4738 37.0001 19.4738 37.0001Z"/><path fill="#F47458" d="M21.6059 37.315C21.7379 36.4078 19.4747 36.9999 19.4747 36.9999L19.4382 37.2657C19.4953 37.4294 19.5783 37.5806 19.6834 37.7121C20.1863 38.3125 20.9778 38.6727 21.6606 38.6998C21.5933 38.2111 21.5493 37.6871 21.6059 37.315Z"/><path fill="#F7A491" d="M19.1045 32.4701C19.0416 32.4444 18.5921 36.1177 19.4433 37.1291C20.2946 38.1404 21.9517 38.4708 22.5464 37.6746C23.204 36.7938 23.1707 32.8449 21.848 31.8051C20.5253 30.7653 19.1045 32.4701 19.1045 32.4701Z"/><path fill="#F7CC7F" d="M21.3441 29.8386C20.6036 30.0144 19.9302 30.4384 19.416 31.0526C18.9521 31.113 18.3209 31.3997 17.6696 32.588C16.8681 34.0526 17.4597 35.6755 18.3926 36.471C19.3255 37.2665 19.3123 38.1869 19.3123 38.1869L19.4594 37.7114C19.5705 37.3515 19.6104 36.9695 19.5763 36.5911C19.5586 36.359 19.5077 36.1315 19.4255 35.9171C19.201 35.3854 19.9077 35.0328 20.1057 34.5899C20.2578 34.2491 20.2654 33.4703 20.5055 32.9073L20.7922 32.477C20.7922 32.477 21.4542 31.9085 22.1017 32.0688C22.7492 32.2292 22.6561 29.5436 21.3441 29.8386Z"/><path fill="#F7A491" d="M20.0619 35.2462C20.0688 35.6944 19.8846 36.0614 19.6501 36.0655C19.4156 36.0697 19.2201 35.7103 19.2132 35.2622C19.2063 34.8141 19.3911 34.4478 19.6256 34.4429C19.8601 34.4381 20.0556 34.7953 20.0619 35.2462Z"/><path fill="#fff" d="M21.4449 36.2793L22.7274 36.21C22.7274 36.21 22.723 36.749 22.1616 36.7989C21.4732 36.8565 21.4449 36.2793 21.4449 36.2793Z"/><path fill="#F7A491" d="M117.475 42.7049C117.114 42.3789 114.315 43.7388 114.351 44.2096C114.386 44.6804 112.398 49.2708 112.398 49.2708L108.962 46.2377C108.932 46.128 108.606 44.9481 108.59 44.7368C108.574 44.5155 107.993 44.1281 107.723 44.1851C107.453 44.2422 107.954 44.6171 107.987 44.6867C108.076 44.8748 107.731 44.9443 107.731 44.9443C107.731 44.9443 106.738 44.3412 106.717 43.9864C106.696 43.6315 106.49 42.888 106.276 43.046C106.166 43.1262 106.167 43.6535 106.201 43.9043C106.138 43.6196 106.047 43.2993 105.959 43.2673C105.799 43.209 105.719 43.4353 105.748 43.5463C105.777 43.6573 106.037 44.8628 106.115 44.9995C106.194 45.1362 107.795 46.5624 108.027 46.8728C108.027 46.8728 112.47 52.4976 112.787 52.6449C113.064 52.7741 114.054 50.8356 114.989 49.5485C115.924 48.2614 118.606 43.7231 117.475 42.7049Z"/><path fill="#F48C7F" d="M126.442 84.0651C126.442 84.0651 127.053 84.7252 127.067 84.9672C127.081 85.2092 127.121 87.8034 126.871 88.0454C126.622 88.2874 125.89 88.4592 126.125 88.7313C126.303 88.9376 127.672 88.8931 128.579 88.8379C128.844 88.8222 129.176 86.4825 129.281 86.1383C129.433 85.6368 129.804 84.5139 129.666 84.166C129.598 83.9967 129.275 83.6482 128.82 83.3228C128.342 82.9805 127.884 82.2188 127.884 82.2188L126.442 84.0651Z"/><path fill="#F7A491" d="M120.12 85.6015C120.12 85.6015 120.666 87.3106 120.667 87.3149C120.708 87.5858 120.867 88.2553 120.867 88.5011C120.867 89.4264 117.1 87.7162 117.945 87.3062C118.021 87.2692 118.261 86.9726 118.286 86.6579C118.324 86.1733 117.968 85.5652 117.968 85.5652L120.12 85.6015Z"/><path fill="#355389" d="M114.206 53.7715C114.206 53.7715 113.931 56.8359 113.931 56.8817C113.931 61.8388 113.044 71.5212 113.212 72.4528C113.624 74.7261 118.056 86.3218 118.056 86.3218L120.45 86.0046L117.33 72.1218L118.478 66.5333L120.103 55.4874L114.206 53.7715Z"/><path fill="#5375B5" d="M122.244 56.4825L122.698 59.3864L123.928 71.3395L128.61 83.0218C128.61 83.0218 127.952 84.7214 126.98 84.9602L119.527 72.9664L114.898 57.6191L115.061 54.2092L122.244 56.4825Z"/><path fill="#2AA186" d="M113.253 46.476L116.574 46.8522C116.574 46.8522 116.726 43.8373 116.726 42.401C116.726 40.6562 116.592 38.4093 116.401 38.4576C115.867 38.593 115.148 38.9196 114.72 39.571C113.239 41.8229 113.253 46.476 113.253 46.476Z"/><path fill="#50BFA5" d="M114.882 42.0914C114.812 42.623 113.536 57.0838 113.536 57.0838C119.582 60.3175 122.919 57.66 122.919 57.66C122.919 57.66 122.721 47.5037 122.958 46.1244C123.115 45.2097 123.311 39.1335 122.775 38.9636C122.089 38.7454 121.302 38.5135 120.443 38.4144C119.71 38.3304 116.864 38.2815 116.355 38.4708C116.355 38.4696 115.175 39.8545 114.882 42.0914Z"/><path fill="#184655" d="M128.791 83.3064C128.791 83.3064 127.384 87.6949 126.833 87.9056C126.687 87.962 125.985 88.1043 125.852 88.4485C125.812 88.5519 125.852 88.8974 125.852 88.8974H128.786C128.786 88.8974 129.157 86.9645 129.304 86.1151C129.304 86.1151 130.08 84.0399 129.994 83.8512C129.908 83.6625 128.791 83.3064 128.791 83.3064Z"/><path fill="#184655" d="M121.079 88.8064L120.647 87.2974C120.647 87.2974 119.741 87.7218 119.288 87.6509C118.835 87.5801 117.95 87.2974 117.95 87.2974C116.143 87.9563 114.662 88.276 114.931 88.8064H121.079Z"/><path fill="#F7A491" d="M112.787 52.6452C112.755 52.6226 112.724 52.5975 112.696 52.5699C112.803 51.1531 112.784 49.7807 112.382 49.3161C112.392 49.2942 112.48 49.0873 112.571 48.8735C113.037 49.2716 113.258 50.3305 113.171 52.0496C113.157 52.1696 113.137 52.2885 113.109 52.4057C112.975 52.5699 112.852 52.6759 112.787 52.6452Z"/><path fill="#F8A492" d="M128.909 57.2367C128.913 57.2059 128.913 57.1747 128.909 57.1439C128.82 56.1408 128.069 47.733 127.943 47.3757C127.83 47.0528 124.461 41.7195 124.461 41.7195L122.806 44.2166L126.045 49C126.117 49.3041 127.286 54.981 127.286 54.981C127.286 54.981 127.525 56.0154 127.633 56.6355C127.584 56.7847 127.535 56.9257 127.493 57.0417C127.396 57.2608 127.279 57.4686 127.144 57.6624C126.999 57.8774 126.76 58.347 126.73 58.4724C126.696 58.6184 126.634 58.9219 126.599 59.1049C126.564 59.288 126.516 59.5018 126.508 59.6008C126.486 59.695 126.451 59.7849 126.404 59.8673C126.389 59.8953 126.383 59.9274 126.386 59.9594C126.388 59.9914 126.399 60.0219 126.418 60.0468C126.436 60.0717 126.461 60.0899 126.489 60.099C126.517 60.1082 126.546 60.1078 126.574 60.098C126.692 60.0547 126.784 59.8861 126.84 59.7814C127 59.4842 127.084 58.9426 127.124 58.9714C127.164 59.0002 127.304 59.9193 127.325 60.0228C127.347 60.1262 127.515 61.1939 127.609 61.3889C127.704 61.5838 127.829 61.5512 127.862 61.4296C127.891 61.3243 127.758 59.8309 127.758 59.8309C127.758 59.8309 127.741 59.6428 127.814 59.6999C127.888 59.7569 128.013 61.1149 128.066 61.3136C128.118 61.5124 128.236 61.6171 128.339 61.4572C128.462 61.2635 128.25 59.8272 128.25 59.8272C128.25 59.8272 128.226 59.6466 128.296 59.6635C128.365 59.6805 128.453 60.8353 128.507 60.935C128.561 61.0346 128.698 61.071 128.764 60.9042C128.84 60.708 128.642 59.4266 128.642 59.4266C128.642 59.4266 128.651 59.3244 128.695 59.3582C128.739 59.3921 128.876 60.3713 128.966 60.4616C128.975 60.4721 128.986 60.4805 128.998 60.4862C129.009 60.4919 129.022 60.4948 129.035 60.4948C129.048 60.4948 129.061 60.4919 129.073 60.4862C129.085 60.4805 129.096 60.4721 129.105 60.4616C129.27 60.3362 129.017 59.4059 129.019 58.9426C129.022 58.4793 128.828 57.9595 128.885 57.4085C128.893 57.3752 128.903 57.29 128.909 57.2367Z"/><path fill="#50BFA5" d="M127.093 45.0974L124.216 47.2358C124.216 47.2358 122.595 44.5645 121.724 43.6134C120.634 42.4222 122.122 38.7716 122.824 38.9779C124.395 39.4399 127.093 45.0974 127.093 45.0974Z"/><path fill="#F7A491" d="M120.232 35.287L120.662 38.4273C120.662 38.4273 119.09 42.1664 118.152 41.8422C117.365 41.5701 117.85 38.2612 117.85 38.2612C117.85 38.2612 118.278 36.4845 118.149 35.5955C118.021 34.7065 120.232 35.287 120.232 35.287Z"/><path fill="#F47458" d="M118.151 35.5955C118.023 34.7065 120.233 35.287 120.233 35.287L120.269 35.5472C120.213 35.7081 120.132 35.8567 120.029 35.9861C119.536 36.5748 118.763 36.9265 118.098 36.9547C118.163 36.4738 118.204 35.9604 118.151 35.5955Z"/><path fill="#F7A491" d="M120.596 30.844C120.659 30.8189 121.097 34.4206 120.266 35.4118C119.434 36.403 117.813 36.7284 117.232 35.9466C116.589 35.0833 116.621 31.212 117.913 30.1926C119.206 29.1732 120.596 30.844 120.596 30.844Z"/><path fill="#184655" d="M118.407 28.2662C119.132 28.439 119.79 28.8551 120.291 29.4573C120.746 29.5169 121.362 29.7946 121.999 30.962C122.783 32.3976 122.204 33.9888 121.293 34.7693C120.381 35.5499 120.393 36.4514 120.393 36.4514L120.249 35.9849C120.141 35.632 120.102 35.2574 120.136 34.8866C120.153 34.6593 120.202 34.4364 120.283 34.2264C120.502 33.7048 119.812 33.3587 119.618 32.9249C119.469 32.5907 119.462 31.8271 119.227 31.2748L118.947 30.8535C118.947 30.8535 118.3 30.2962 117.667 30.4535C117.033 30.6109 117.124 27.9765 118.407 28.2662Z"/><path fill="#F7A491" d="M119.659 33.5651C119.653 34.0039 119.833 34.3644 120.062 34.3688C120.292 34.3732 120.482 34.0202 120.489 33.5807C120.496 33.1412 120.315 32.782 120.086 32.7776C119.857 32.7732 119.664 33.1256 119.659 33.5651Z"/><path fill="#fff" d="M118.309 34.5806L117.056 34.5085C117.056 34.5085 117.06 35.0377 117.611 35.0872C118.282 35.1467 118.309 34.5806 118.309 34.5806Z"/><path fill="#F7CC7F" d="M110.485 34.3794C110.485 34.3794 113.919 34.9261 113.394 38.5798C112.905 41.9891 109.96 41.2963 109.204 41.1258C108.448 40.9553 110.485 34.3794 110.485 34.3794Z"/><path fill="#E8BA70" d="M109.204 41.129C108.852 41.0494 109.106 39.5805 109.477 38.0332C110.741 38.3065 112.147 38.6119 113.345 38.8727C112.733 41.9515 109.938 41.2945 109.204 41.129Z"/><path fill="#96D9C9" d="M108.509 41.7609C108.509 41.7609 107.754 44.7325 107.953 47.0409C108.138 49.1944 107.86 49.553 107.135 49.4859C106.409 49.4188 104.65 48.9392 104.62 48.1694C104.589 47.3995 104.913 43.4536 106.132 41.3358C107.351 39.218 108.509 41.7609 108.509 41.7609Z"/><path fill="#50BFA5" d="M107.335 40.522C107.819 40.88 108.507 41.7608 108.507 41.7608C108.507 41.7608 107.753 44.7324 107.952 47.0408C108.137 49.1943 107.859 49.5529 107.134 49.4858C106.768 49.4436 106.407 49.3649 106.054 49.2507C105.767 43.9582 107.004 41.1207 107.335 40.522Z"/><path fill="#96D9C9" d="M100.083 27.179C100.083 27.179 105.778 31.7556 107.618 33.1386L108.697 34.9071L107.933 40.0593L106.093 41.0586L97.0993 43.0196L97.3078 41.9043L98.9401 36.9064L99.773 31.2164L100.016 27.7175L100.083 27.179Z"/><path fill="#50BFA5" d="M98.9371 36.904L99.1553 35.4119L108.256 37.8575L107.93 40.0562L106.09 41.0561L97.0964 43.0172L97.3049 41.9019L98.9371 36.904Z"/><path fill="#3C8F7C" d="M107.62 33.135C107.62 33.135 108.372 37.5053 106.092 41.055C106.092 41.055 105.965 41.3841 106.243 41.5891L107.941 42.0675C107.941 42.0675 108.727 42.3753 109.391 41.1271C110.055 39.8789 111.228 37.0771 110.533 33.9845C110.533 33.9845 110.363 33.1469 109.438 32.9933L108.203 32.7369C108.203 32.7369 107.653 32.6447 107.62 33.135Z"/><path fill="#256653" d="M100.083 27.179C100.083 27.179 98.6014 25.9747 97.7447 26.0004C96.8879 26.0261 96.0295 27.2793 95.4761 28.3075C94.9227 29.3357 93.462 33.3568 93.3234 36.0739C93.1848 38.7911 93.2098 42.6611 94.4114 43.1225C95.613 43.584 97.0964 43.0204 97.0964 43.0204C97.0964 43.0204 99.0412 41.1747 100.176 35.4345C101.31 29.6943 100.083 27.179 100.083 27.179Z"/><path fill="#3C8F7C" d="M95.2635 43.273C95.2635 43.273 93.8784 41.2869 94.5818 35.9241C95.6931 27.4799 98.494 26.2029 98.494 26.2029C98.494 26.2029 100.568 27.9464 98.5866 36.1084C96.9572 42.8304 95.2635 43.273 95.2635 43.273Z"/><path fill="#F7CC7F" d="M99.2536 32.6722C99.0917 33.8299 98.8703 34.9765 98.5906 36.1066C98.4327 36.7579 98.2742 37.3498 98.1162 37.8883C97.255 37.5585 95.8625 36.731 96.4573 34.6326C97.0084 32.6879 98.4429 32.5707 99.2536 32.6722Z"/><path fill="#E8BA70" d="M98.5907 36.1065C98.4327 36.7579 98.2742 37.3497 98.1163 37.8883C97.2669 37.5629 95.9005 36.7535 96.434 34.7185L98.7748 35.316C98.7174 35.5724 98.6566 35.8357 98.5907 36.1065Z"/><g style="mix-blend-mode:multiply" opacity=".3"><path fill="#3C8F7C" d="M106.089 41.0562C106.742 40.0251 107.206 38.8637 107.456 37.637L110.468 38.2639C110.228 39.2683 109.864 40.2318 109.388 41.1277C108.724 42.3753 107.938 42.0681 107.938 42.0681L106.24 41.5898C105.962 41.3854 106.089 41.0562 106.089 41.0562Z"/></g><path fill="#F7A491" d="M108.315 45.0072C108.315 44.6599 108.269 44.406 108.102 44.2756C107.934 44.1452 107.573 43.9935 107.552 44.0286C107.531 44.0637 107.52 44.426 108.071 44.8944C108.337 45.058 108.315 45.0072 108.315 45.0072Z"/></svg>